{
    "asset" : {
        "generator" : "Khronos glTF Blender I/O v1.5.17",
        "version" : "2.0"
    },
    "scene" : 0,
    "scenes" : [
        {
            "name" : "Scene",
            "nodes" : [
                0
            ]
        }
    ],
    "nodes" : [
        {
            "mesh" : 0,
            "name" : "human_lowpoly",
            "rotation" : [
                0.7071068286895752,
                0,
                0,
                0.7071067094802856
            ],
            "scale" : [
                0.8722664713859558,
                0.8722664713859558,
                0.8722664713859558
            ]
        }
    ],
    "materials" : [
        {
            "doubleSided" : true,
            "name" : "Material.003",
            "pbrMetallicRoughness" : {
                "baseColorFactor" : [
                    0.6399999856948853,
                    0.6399999856948853,
                    0.6399999856948853,
                    1
                ],
                "metallicFactor" : 0,
                "roughnessFactor" : 0.5
            }
        }
    ],
    "meshes" : [
        {
            "name" : "Mesh_Model001_24_GTAMtl_1.0_0.0_0.004",
            "primitives" : [
                {
                    "attributes" : {
                        "POSITION" : 0,
                        "NORMAL" : 1,
                        "TEXCOORD_0" : 2
                    },
                    "indices" : 3,
                    "material" : 0
                }
            ]
        }
    ],
    "accessors" : [
        {
            "bufferView" : 0,
            "componentType" : 5126,
            "count" : 2024,
            "max" : [
                0.2689753770828247,
                0.38324177265167236,
                -1.211200014950009e-05
            ],
            "min" : [
                -0.40504366159439087,
                -0.17993232607841492,
                -2.114215135574341
            ],
            "type" : "VEC3"
        },
        {
            "bufferView" : 1,
            "componentType" : 5126,
            "count" : 2024,
            "type" : "VEC3"
        },
        {
            "bufferView" : 2,
            "componentType" : 5126,
            "count" : 2024,
            "type" : "VEC2"
        },
        {
            "bufferView" : 3,
            "componentType" : 5123,
            "count" : 9840,
            "type" : "SCALAR"
        }
    ],
    "bufferViews" : [
        {
            "buffer" : 0,
            "byteLength" : 24288,
            "byteOffset" : 0
        },
        {
            "buffer" : 0,
            "byteLength" : 24288,
            "byteOffset" : 24288
        },
        {
            "buffer" : 0,
            "byteLength" : 16192,
            "byteOffset" : 48576
        },
        {
            "buffer" : 0,
            "byteLength" : 19680,
            "byteOffset" : 64768
        }
    ],
    "buffers" : [
        {
            "byteLength" : 84448,
            "uri" : "data:application/octet-stream;base64,"
        }
    ]
}
