<?xml version="1.0" encoding="UTF-8" standalone="no"?><!DOCTYPE svg PUBLIC "-//W3C//DTD SVG 1.1//EN" "http://www.w3.org/Graphics/SVG/1.1/DTD/svg11.dtd"><svg width="100%" height="100%" viewBox="0 0 419 417" version="1.1" xmlns="http://www.w3.org/2000/svg" xmlns:xlink="http://www.w3.org/1999/xlink" xml:space="preserve" xmlns:serif="http://www.serif.com/" style="fill-rule:evenodd;clip-rule:evenodd;stroke-linejoin:round;stroke-miterlimit:2;"><rect id="dribble" x="0.721" y="0" width="416.667" height="416.667" style="fill:none;"/><g><path d="M417.217,208.34c0,114.952 -93.197,208.163 -208.163,208.163c-114.966,0 -208.163,-93.211 -208.163,-208.163c0,-114.965 93.197,-208.177 208.163,-208.177c114.966,0 208.163,93.212 208.163,208.177Zm-208.163,-116.959c-64.566,0 -117.101,52.479 -117.101,116.959c-0,64.495 52.535,116.945 117.101,116.945c64.566,0 117.102,-52.45 117.102,-116.945c-0,-64.48 -52.536,-116.959 -117.102,-116.959Zm0,215.894c-22.694,0 -43.623,-7.674 -60.337,-20.558c2.819,-5.539 23.334,-42.47 77.521,-61.335l0.114,-0.028c13.583,35.365 19.335,65.05 20.915,74.247c-11.746,4.955 -24.673,7.674 -38.213,7.674Zm56.038,-17.398c-1.324,-7.617 -6.663,-35.436 -18.964,-69.378c6.905,-1.068 13.611,-1.509 19.904,-1.509c20.672,-0 36.86,4.542 40.619,5.695c-4.471,26.937 -19.904,50.257 -41.559,65.192Zm-154.973,-81.38l0.043,-2.449l2.591,0.014c12.287,0 54.899,-1.01 98.821,-14.037c2.648,5.196 5.197,10.492 7.546,15.774l-3.275,0.997c-49.46,15.974 -76.625,58.245 -80.81,65.164c-15.505,-17.455 -24.916,-40.377 -24.916,-65.463Zm175.987,-61.918c13.355,16.558 21.47,37.458 21.84,60.252c-4.428,-0.925 -23.249,-4.427 -45.744,-4.427c-7.261,-0 -14.892,0.37 -22.552,1.309c-0.655,-1.566 -1.296,-3.146 -1.979,-4.712c-1.993,-4.67 -4.129,-9.311 -6.336,-13.882c34.611,-14.265 51.312,-34.055 54.771,-38.54Zm-119.55,-27.307c3.417,4.698 20.345,28.347 36.205,56.351c-42.541,11.191 -80.312,11.917 -89.438,11.917l-0.954,-0c6.549,-30.183 26.937,-55.269 54.187,-68.268Zm42.498,-9.567c24.944,-0 47.766,9.268 65.178,24.516c-2.762,3.773 -17.711,22.467 -51.097,35.081c-15.462,-28.247 -32.362,-51.639 -36.376,-57.049c7.161,-1.68 14.621,-2.548 22.295,-2.548Z" style="fill:#fff;fill-rule:nonzero;"/></g></svg>