<?xml version="1.0" encoding="UTF-8" standalone="no"?><!DOCTYPE svg PUBLIC "-//W3C//DTD SVG 1.1//EN" "http://www.w3.org/Graphics/SVG/1.1/DTD/svg11.dtd"><svg width="100%" height="100%" viewBox="0 0 419 417" version="1.1" xmlns="http://www.w3.org/2000/svg" xmlns:xlink="http://www.w3.org/1999/xlink" xml:space="preserve" xmlns:serif="http://www.serif.com/" style="fill-rule:evenodd;clip-rule:evenodd;stroke-linejoin:round;stroke-miterlimit:2;"><rect id="ig" x="0.025" y="0" width="416.667" height="416.667" style="fill:none;"/><clipPath id="_clip1"><rect x="0.025" y="0" width="416.667" height="416.667"/></clipPath><g clip-path="url(#_clip1)"><g><path d="M208.358,0c114.982,0 208.333,93.351 208.333,208.333c0,114.983 -93.351,208.334 -208.333,208.334c-114.982,-0 -208.333,-93.351 -208.333,-208.334c-0,-114.982 93.351,-208.333 208.333,-208.333Zm48.715,330.056l-97.444,0c-40.415,0 -73.3,-32.884 -73.3,-73.3l0,-97.444c0,-40.415 32.885,-73.3 73.3,-73.3l97.444,0c40.43,0 73.3,32.885 73.3,73.3l-0,97.444c-0,40.416 -32.87,73.3 -73.3,73.3Zm-97.444,-221.095c-27.76,-0 -50.338,22.592 -50.338,50.351l0,97.444c0,27.76 22.578,50.338 50.338,50.338l97.444,0c27.76,0 50.352,-22.578 50.352,-50.338l-0,-97.444c-0,-27.759 -22.592,-50.351 -50.352,-50.351l-97.444,-0Zm49.726,38.977c-33.141,0 -60.09,26.948 -60.09,60.089c0,33.155 26.949,60.118 60.09,60.118c33.155,-0 60.103,-26.963 60.103,-60.118c0,-33.141 -26.948,-60.089 -60.103,-60.089Zm-0,98.597c-21.226,0 -38.494,-17.268 -38.494,-38.508c0,-21.225 17.268,-38.493 38.494,-38.493c21.239,-0 38.507,17.268 38.507,38.493c0,21.24 -17.268,38.508 -38.507,38.508Zm63.605,-116.947c-7.886,0 -14.307,6.406 -14.307,14.307c0,7.901 6.421,14.307 14.307,14.307c7.915,0 14.321,-6.406 14.321,-14.307c0,-7.901 -6.406,-14.307 -14.321,-14.307Z" style="fill:#fff;"/></g></g></svg>