<?xml version="1.0" encoding="UTF-8" standalone="no"?>
<!-- Created with Inkscape (http://www.inkscape.org/) -->

<svg
   width="100mm"
   height="100mm"
   viewBox="0 0 100 100"
   version="1.1"
   id="svg12"
   inkscape:version="1.1.1 (c3084ef, 2021-09-22)"
   sodipodi:docname="facebook.svg"
   xmlns:inkscape="http://www.inkscape.org/namespaces/inkscape"
   xmlns:sodipodi="http://sodipodi.sourceforge.net/DTD/sodipodi-0.dtd"
   xmlns="http://www.w3.org/2000/svg"
   xmlns:svg="http://www.w3.org/2000/svg">
  <sodipodi:namedview
     id="namedview14"
     pagecolor="#ffffff"
     bordercolor="#666666"
     borderopacity="1.0"
     inkscape:pageshadow="2"
     inkscape:pageopacity="0.0"
     inkscape:pagecheckerboard="0"
     inkscape:document-units="mm"
     showgrid="false"
     inkscape:zoom="0.68039856"
     inkscape:cx="454.88044"
     inkscape:cy="234.42142"
     inkscape:window-width="1680"
     inkscape:window-height="997"
     inkscape:window-x="0"
     inkscape:window-y="25"
     inkscape:window-maximized="1"
     inkscape:current-layer="g238" />
  <defs
     id="defs9">
    <linearGradient
       id="b"
       spreadMethod="pad"
       gradientTransform="matrix(0.01342,0.02325,0.02325,-0.01342,6454.29,3180.97)"
       gradientUnits="userSpaceOnUse"
       y2="0"
       x2="1"
       y1="0"
       x1="0">
      <stop
         offset="0"
         style="stop-opacity:1;stop-color:#00b7f0"
         id="stop48" />
      <stop
         offset="1"
         style="stop-opacity:1;stop-color:#007cc1"
         id="stop50" />
    </linearGradient>
    <clipPath
       id="a"
       clipPathUnits="userSpaceOnUse">
      <path
         d="m 6454.3,3181 v -0.03 z"
         id="path53" />
    </clipPath>
  </defs>
  <g
     inkscape:label="Layer 1"
     inkscape:groupmode="layer"
     id="layer1">
    <g
       id="g238"
       transform="matrix(0.26458333,0,0,0.26458333,-72.868605,-77.422999)">
      <path
         style="fill:#010201;fill-opacity:1;fill-rule:nonzero;stroke:none;stroke-width:0.13333"
         d="m 324.12659,-52.707408 c 49.70409,0 89.99775,40.292324 89.99775,89.997754 0,49.70409 -40.29366,89.997754 -89.99775,89.997754 -49.70409,0 -89.99775,-40.293664 -89.99775,-89.997754 0,-49.70543 40.29366,-89.997754 89.99775,-89.997754"
         id="path62" />
      <path
         style="fill:#ffffff;fill-opacity:1;fill-rule:nonzero;stroke:none;stroke-width:0.13333"
         d="m 324.12659,-19.374904 c -15.39028,0 -17.31957,0.0653 -23.36342,0.34132 -6.03051,0.27466 -10.15041,1.23197 -13.75432,2.63327 -3.72657,1.44796 -6.88649,3.38525 -10.03708,6.5358302 -3.15059,3.15059 -5.08787,6.31051 -6.53584,10.03708999 -1.39996,3.60391001 -2.35861,7.72247001 -2.63327,13.75431981 -0.27599,6.04518 -0.34132,7.97313 -0.34132,23.36342 0,15.38894 0.0653,17.31956 0.34132,23.36341 0.27466,6.03052 1.23331,10.15041 2.63327,13.75432 1.44797,3.72658 3.38525,6.8865 6.53584,10.03575 3.15059,3.15059 6.31051,5.08788 10.03708,6.53717 3.60391,1.39997 7.72381,2.35861 13.75432,2.63327 6.04385,0.27599 7.97314,0.34133 23.36342,0.34133 15.38895,0 17.31823,-0.0653 23.36208,-0.34133 6.03185,-0.27466 10.15175,-1.2333 13.75566,-2.63327 3.72657,-1.44929 6.88649,-3.38658 10.03708,-6.53717 3.14926,-3.14925 5.08787,-6.30917 6.53584,-10.03575 1.39996,-3.60391 2.35861,-7.7238 2.63327,-13.75432 0.27599,-6.04385 0.34132,-7.97447 0.34132,-23.36341 0,-15.38895 -0.0653,-17.31824 -0.34132,-23.36342 -0.27466,-6.0318498 -1.23331,-10.1504098 -2.63327,-13.75431981 -1.44797,-3.72657999 -3.38658,-6.88649999 -6.53584,-10.03708999 -3.15059,-3.1505802 -6.31051,-5.0878702 -10.03708,-6.5358302 -3.60391,-1.4013 -7.72381,-2.35861 -13.75566,-2.63327 -6.04385,-0.27599 -7.97313,-0.34132 -23.36208,-0.34132 z m 0,10.2104102 c 15.13029,0 16.92224,0.0573 22.89809,0.32932 5.52387,0.25333 8.52379,1.17597 10.52107,1.95195 2.64527,1.02798 4.53322,2.25595 6.51584,4.23856 1.98262,1.98261999 3.21059,3.87057 4.23856,6.51451 0.77598,1.99728 1.69863,4.99721 1.95195,10.5223998 0.272,5.97585 0.32933,7.76781 0.32933,22.8981 0,15.13028 -0.0573,16.92224 -0.32933,22.89809 -0.25332,5.52386 -1.17597,8.52512 -1.95195,10.52107 -1.02797,2.64527 -2.25594,4.53322 -4.23856,6.51584 -1.98262,1.98261 -3.87057,3.21058 -6.51584,4.23856 -1.99728,0.77598 -4.9972,1.69996 -10.52107,1.95062 -5.97585,0.27332 -7.76647,0.33065 -22.89809,0.33065 -15.13162,0 -16.92358,-0.0573 -22.89809,-0.33065 -5.52387,-0.25066 -8.52512,-1.17464 -10.52107,-1.95062 -2.64527,-1.02798 -4.53322,-2.25595 -6.51584,-4.23856 -1.98262,-1.98262 -3.21059,-3.87057 -4.23856,-6.51584 -0.77598,-1.99595 -1.69863,-4.99721 -1.95195,-10.52107 -0.272,-5.97585 -0.32933,-7.76781 -0.32933,-22.89809 0,-15.13029 0.0573,-16.92225 0.32933,-22.8981 0.25332,-5.5251898 1.17597,-8.5251198 1.95195,-10.5223998 1.02797,-2.64394 2.25461,-4.53189001 4.23856,-6.51451 1.98262,-1.98261 3.87057,-3.21058 6.51584,-4.23856 1.99595,-0.77598 4.9972,-1.69862 10.52107,-1.95195 5.97585,-0.27199 7.7678,-0.32932 22.89809,-0.32932"
         id="path64" />
      <path
         style="fill:#ffffff;fill-opacity:1;fill-rule:nonzero;stroke:none;stroke-width:0.13333"
         d="m 324.12659,56.179206 c -10.43174,0 -18.88886,-8.45713 -18.88886,-18.88886 0,-10.43174 8.45712,-18.88887 18.88886,-18.88887 10.43174,0 18.88886,8.45713 18.88886,18.88887 0,10.43173 -8.45712,18.88886 -18.88886,18.88886 z m 0,-47.9867998 c -16.07026,0 -29.09794,13.0276698 -29.09794,29.0979398 0,16.07026 13.02768,29.09793 29.09794,29.09793 16.07027,0 29.09794,-13.02767 29.09794,-29.09793 0,-16.07027 -13.02767,-29.0979398 -29.09794,-29.0979398 m 37.04707,-1.15064 c 0,3.7558998 -3.04392,6.7998298 -6.79849,6.7998298 -3.75591,0 -6.79983,-3.04393 -6.79983,-6.7998298 0,-3.75591 3.04392,-6.79983001 6.79983,-6.79983001 3.75457,0 6.79849,3.04392001 6.79849,6.79983001"
         id="path66" />
      <path
         style="fill:#010201;fill-opacity:1;fill-rule:evenodd;stroke:none;stroke-width:0.13333"
         d="m 852.31818,177.09583 c 0,49.70409 -40.29232,89.99775 -89.99775,89.99775 -49.70542,0 -89.99775,-40.29366 -89.99775,-89.99775 0,-49.70542 40.29233,-89.997754 89.99775,-89.997754 49.70543,0 89.99775,40.292334 89.99775,89.997754"
         id="path116" />
      <path
         style="fill:#ffffff;fill-opacity:1;fill-rule:evenodd;stroke:none;stroke-width:0.13333"
         d="m 794.06631,224.31065 c -0.58666,-3.47058 -3.61325,-20.10083 -11.06639,-40.56298 17.85288,-2.81993 33.47916,1.80662 35.42578,2.4586 -2.45328,15.8356 -11.55971,29.5006 -24.35939,38.10438 z m -31.74588,9.76109 c -13.15967,0 -25.30603,-4.48255 -34.91912,-12.00237 1.0133,-2.09728 12.57301,-24.36605 44.67888,-35.57377 0.14666,-0.072 0.21333,-0.072 0.35999,-0.14533 8.02647,20.75281 11.27972,38.17771 12.14636,43.16558 -6.86649,2.96526 -14.3863,4.55589 -22.26611,4.55589 z m -56.97191,-56.90391 v -1.73462 c 2.45328,0.0707 30.07925,0.43332 58.49187,-8.0998 1.66663,3.18259 3.17326,6.43717 4.62656,9.69042 -0.71999,0.216 -1.51997,0.43333 -2.23995,0.64932 -29.35926,9.4731 -44.97221,35.35778 -46.27884,37.52706 -9.03978,-10.05041 -14.59964,-23.42608 -14.59964,-38.03238 z m 32.74585,-51.55338 c 1.51996,2.02528 11.63971,16.1236 21.11947,32.89918 -26.61266,7.08649 -50.10541,6.94116 -52.63868,6.94116 3.67991,-17.64223 15.61294,-32.32053 31.51921,-39.84034 z m 24.22606,-5.35053 c 14.46631,0 27.69264,5.42253 37.74573,14.31697 -1.01331,1.4453 -9.6131,12.94235 -29.86592,20.53416 -9.31977,-17.13557 -19.66618,-31.16322 -21.25281,-33.3325 4.26656,-1.01198 8.74645,-1.51863 13.373,-1.51863 z m 44.0389,20.89681 c 7.94647,9.68776 12.71968,22.05278 12.86635,35.42845 -1.87996,-0.36133 -20.67949,-4.19323 -39.62568,-1.80796 -0.42666,-0.93997 -0.79998,-1.95062 -1.22664,-2.96392 -1.15997,-2.74793 -2.45327,-5.56786 -3.7599,-8.24246 20.97281,-8.53179 30.5059,-20.82348 31.74587,-22.41411 z m -44.0389,-30.7299 c -36.79908,0 -66.665,29.86192 -66.665,66.665 0,36.80308 29.86592,66.665 66.665,66.665 36.73242,0 66.665,-29.86192 66.665,-66.665 0,-36.80308 -29.93258,-66.665 -66.665,-66.665"
         id="path118" />
      <path
         style="fill:#000000;fill-opacity:1;fill-rule:evenodd;stroke:none;stroke-width:0.13333"
         d="m 1063.9591,175.93985 c 0,49.6921 -40.2937,89.998 -89.99783,89.998 -49.70405,0 -89.99771,-40.3059 -89.99771,-89.998 0,-49.7054 40.29366,-90.004444 89.99771,-90.004444 49.70413,0 89.99783,40.299044 89.99783,90.004444"
         id="path120"
         sodipodi:nodetypes="csssc" />
      <path
         style="fill:#ffffff;fill-opacity:1;fill-rule:nonzero;stroke:none;stroke-width:0.13333"
         d="m 948.30462,200.09925 c 1.63863,0 3.19459,-0.1467 4.65855,-0.48 1.4853,-0.32 2.80393,-0.8267 3.91457,-1.6 1.11063,-0.72 2.03063,-1.7333 2.69993,-2.9999 0.6706,-1.2666 0.992,-2.9066 0.992,-4.8932 0,-3.8932 -1.0933,-6.6532 -3.27061,-8.3331 -2.17994,-1.64 -7.62669,0.9564 -8.66111,-2.4666 h -18.06089 v 20.7728 z m -0.91864,-32.1192 c 2.94392,0 5.3812,-0.6933 7.31182,-2.12 1.91061,-1.3866 2.83726,-3.6932 2.83726,-6.8531 0,-1.76 -0.30799,-3.2133 -0.92665,-4.3333 -0.63998,-1.1199 -1.48929,-2.0132 -2.55993,-2.6266 -1.06264,-0.6399 -2.26395,-1.0799 -3.65724,-1.3199 -1.36797,-0.2667 -2.81257,-0.2025 -4.2719,-0.3733 h -15.54228 v 17.6262 z m 2.14928,-30.4793 c 3.60924,0 6.86649,0.3067 9.84371,0.96 2.9586,0.6267 5.4866,1.6666 7.6212,3.1066 2.1013,1.44 3.7466,3.3466 4.9239,5.7599 1.1506,2.3732 1.7266,5.3332 1.7266,8.8531 0,3.7999 -0.8627,6.9731 -2.5853,9.5064 -1.7386,2.5333 -4.2892,4.5999 -7.6998,6.2265 4.6439,1.3333 8.0825,3.6799 10.3624,7.0132 2.292,3.3732 3.4146,7.3998 3.4146,12.1197 0,3.8265 -0.7333,7.1198 -2.1973,9.8931 -1.4759,2.7999 -3.4879,5.0798 -5.9665,6.8265 -2.4986,1.7732 -5.3705,3.0665 -8.5851,3.9199 -3.1786,0.8399 -8.92461,4.5146 -9.85977,1.2666 h -36.57109 v -75.4515 h 35.57245 m 68.52894,33.6392 c -1.7826,-1.9733 -4.8025,-3.0399 -8.4878,-3.0399 -2.3986,0 -4.3825,0.4133 -5.9718,1.2266 -1.5533,0.8133 -2.8253,1.8266 -3.79863,3.0133 -0.9693,1.2133 -1.6293,2.4799 -2.0119,3.8532 -0.3867,1.32 -0.616,2.5333 -0.6867,3.5999 h 24.41543 c -0.3586,-3.8266 -1.6679,-6.6531 -3.4586,-8.6531 z m -17.2395,28.706 c 2.2452,2.1999 5.4945,3.3065 9.7024,3.3065 3.0266,0 5.6425,-0.7733 7.8371,-2.2932 2.1746,-1.52 3.4973,-3.1466 4.0093,-4.8399 h 13.2143 c -2.1239,6.5732 -5.3465,11.2664 -9.7424,14.093 -4.3452,2.8399 -9.6438,4.2532 -15.8183,4.2532 -4.3039,0 -8.1758,-0.6933 -11.65303,-2.0666 -3.476,-1.3867 -6.3812,-3.3333 -8.8238,-5.8799 -2.38,-2.5466 -4.2292,-5.5598 -5.5479,-9.1064 -1.3026,-3.5199 -1.9599,-7.4132 -1.9599,-11.6397 0,-4.0799 0.6813,-7.9065 2.0159,-11.4264 1.364,-3.5333 3.2466,-6.5998 5.7225,-9.1598 2.4826,-2.5732 5.4252,-4.5999 8.8518,-6.0932 3.42793,-1.4799 7.20783,-2.2266 11.39443,-2.2266 4.6212,0 8.6705,0.8933 12.1384,2.7066 3.4585,1.7867 6.2931,4.2133 8.5211,7.2398 2.2266,3.0266 3.8106,6.4932 4.8012,10.3731 0.9826,3.8666 1.3266,7.9198 1.044,12.1597 h -39.42443 c 0,4.3199 1.4613,8.4131 3.71733,10.5998 m -6.78523,-57.2919 v 7.4531 h 30.58323 v -7.4531 h -30.58323"
         id="path122"
         sodipodi:nodetypes="scccscsccsscscccsccsccccscccscccsccccscccccccsccccscccscccsccccccccccc" />
      <path
         style="fill:#010201;fill-opacity:1;fill-rule:nonzero;stroke:none;stroke-width:0.277547"
         d="m 652.40195,483.37322 c 0,-103.46948 -83.87744,-187.34413 -187.34413,-187.34413 -103.46669,0 -187.3444,83.87465 -187.3444,187.34413 0,93.50831 68.50994,171.01326 158.07152,185.06547 V 537.52537 H 388.2162 v -54.15215 h 47.56874 v -41.27401 c 0,-46.95259 27.97118,-72.88934 70.76336,-72.88934 20.49683,0 41.93732,3.65807 41.93732,3.65807 v 46.10608 h -23.62479 c -23.2723,0 -30.53015,14.44076 -30.53015,29.2562 v 35.143 h 51.95954 l -8.30696,54.15215 h -43.65258 v 130.91332 c 89.5616,-14.05221 158.07127,-91.55716 158.07127,-185.06547"
         id="path142"
         sodipodi:nodetypes="csscccccssccsscccccc" />
      <path
         style="fill:#ffffff;fill-opacity:1;fill-rule:nonzero;stroke:none;stroke-width:0.277547"
         d="m 537.98326,537.52537 8.30696,-54.15215 h -51.95954 v -35.143 c 0,-14.81544 7.25785,-29.2562 30.53015,-29.2562 h 23.62479 v -46.10608 c 0,0 -21.44049,-3.65807 -41.93732,-3.65807 -42.79218,0 -70.76336,25.93675 -70.76336,72.88934 v 41.27401 H 388.2162 v 54.15215 h 47.56874 v 130.91332 c 9.5393,1.49875 19.3145,2.27866 29.27288,2.27866 9.95838,0 19.73357,-0.77991 29.27286,-2.27866 V 537.52537 h 43.65258"
         id="path144" />
      <g
         clip-path="url(#a)"
         transform="matrix(0.13333,0,0,-0.13333,0,1600)"
         id="g164">
        <path
           style="fill:url(#b);fill-opacity:1;fill-rule:nonzero;stroke:none"
           d="m 6454.3,3181 v -0.03 0.03"
           id="path162" />
      </g>
    </g>
  </g>
</svg>
