<?xml version="1.0" encoding="UTF-8" standalone="no"?>
<svg viewBox="0 0 8000 4500" preserveAspectRatio="xMidYMin slice" version="1.1" xmlns="http://www.w3.org/2000/svg" xmlns:xlink="http://www.w3.org/1999/xlink" xml:space="preserve" xmlns:serif="http://www.serif.com/" style="fill-rule:evenodd;clip-rule:evenodd;stroke-linejoin:round;stroke-miterlimit:2;"><path d="M-128.949,1188.25c-0,-0 526.062,-468.324 1661.59,-468.324c1135.53,-0 1725.74,1206.09 2585.41,1206.09c859.663,0 930.233,-250.2 1873.3,-250.2c943.064,-0 1165.04,622.293 2123.5,622.293l-0,2382.92l-8242.02,0l-1.764,-3492.78Z" style="fill:#161616;"/><path d="M-579.738,4836.41c48.32,-269.884 167.522,-474.154 297.034,-711.481c98.362,-180.247 179.389,-373.967 357.935,-489.475c302.908,-195.961 1179.53,44.465 1520.54,122.132c173.128,39.431 1054.66,262.994 1105.83,451.425c75.866,279.408 -1095.3,641.916 -1299.49,705.31c-338.307,105.027 -675.899,205.046 -1022.77,277.834c-597.671,125.415 -918.657,123.523 -1489.48,-122.85l530.418,-232.895Z" style="fill:#191919;"/><path d="M6264.03,5666.23c66.356,-532.609 -658.481,-559.652 -848.387,-937.661c-101.246,-201.531 454.722,-1260.89 950.848,-1305.72c374.076,-33.798 697.24,-182.106 1059.15,-251.794c137.292,-26.436 278.904,-92.965 419.176,-93.809c118.459,-0.713 232.816,37.562 339.327,86.592c457.781,210.729 803.214,764.151 798.636,1270.24c-2.138,236.265 -79.712,473.305 -133.653,701.231c-55.448,234.294 -100.052,516.649 -290.007,684.403c-369.986,326.744 -1129.59,243.073 -1594.23,294.663c-290.438,32.247 -581.095,88.645 -874.376,85.366c-311.821,-3.486 -620.053,-71.991 -929.56,-104.074l1103.08,-429.44Z" style="fill:#191919;"/><path d="M7841.69,2282.46c-370.408,143.02 -730.204,-50.282 -1083.78,-140.206c-203.285,-51.701 -418.432,-74.448 -628.011,-73.359c-306.923,1.595 -593.449,102.131 -883.057,192.951c-431.401,135.285 -905.539,284.531 -1362.65,253.491c-334.024,-22.682 -983.277,-597.318 -1370.86,-761.724c-262.184,-111.213 -497.25,-177.117 -1061.92,-177.379c-169.836,-0.078 -605.785,-24.756 -1074.23,-197.003c-245.594,-90.305 -625.261,-330.996 -835.063,23.824c-43.519,73.602 566.751,-105.932 379.661,103.162c-41.854,46.776 -32.373,160.692 30.687,284.733c114.293,225.536 333.952,378.836 585.071,408.319c374.54,33.503 1320.91,87.296 1798.18,553.87c563.976,551.333 957.635,679.994 1450.97,717.521c648.752,49.348 1021.31,-151.413 1204.93,-239.996c364.935,-176.05 591.924,-369.534 992.392,-417.922c472.085,-57.041 998.783,173.437 1406.17,-26.368c200.141,-98.16 327.401,-328.02 451.491,-503.914Z" style="fill:#191919;"/></svg>