<?xml version="1.0" encoding="UTF-8" standalone="no"?><!DOCTYPE svg PUBLIC "-//W3C//DTD SVG 1.1//EN" "http://www.w3.org/Graphics/SVG/1.1/DTD/svg11.dtd"><svg width="100%" height="100%" viewBox="0 0 2136 2136" version="1.1" xmlns="http://www.w3.org/2000/svg" xmlns:xlink="http://www.w3.org/1999/xlink" xml:space="preserve" xmlns:serif="http://www.serif.com/" style="fill-rule:evenodd;clip-rule:evenodd;stroke-linejoin:round;stroke-miterlimit:2;"><rect id="logo_bison_white" x="0.282" y="1.339" width="2133.33" height="2133.33" style="fill:none;"/><g><g><path d="M817.869,1044.83l-108.022,-0c-1.57,-0 -2.355,-1.01 -2.355,-3.029l1.177,-426.083c0,-1.615 0.785,-2.423 2.355,-2.423l115.969,0c22.566,0 43.072,5.653 61.517,16.959c18.053,11.305 32.279,26.296 42.679,44.97c10.4,18.675 15.6,38.914 15.6,60.718c0,17.766 -3.924,34.321 -11.773,49.664c-7.849,15.344 -17.17,27.76 -27.962,37.248c11.577,11.912 20.603,25.741 27.079,41.488c6.475,15.748 9.713,32.302 9.713,49.665c-0,24.024 -5.592,45.929 -16.777,65.714c-11.381,19.785 -26.589,35.583 -45.623,47.393c-19.034,11.811 -40.226,17.716 -63.577,17.716Zm9.124,-357.947l-45.916,0l-0,97.512l45.916,-0c13.932,-0 25.215,-5.098 33.849,-15.293c8.634,-10.195 12.951,-21.249 12.951,-33.16c0,-13.123 -4.611,-24.58 -13.834,-34.371c-9.222,-9.792 -20.211,-14.688 -32.966,-14.688Zm-9.124,172.614l-36.792,0l-0.589,109.625l37.381,-0c14.521,-0 26.981,-5.451 37.381,-16.353c10.4,-10.902 15.6,-23.823 15.6,-38.762c-0,-14.94 -5.2,-27.76 -15.6,-38.46c-10.4,-10.7 -22.86,-16.05 -37.381,-16.05Z" style="fill:#fff;fill-rule:nonzero;"/><path d="M1058.34,1044.83l-68.287,-0c-1.962,-0 -2.943,-1.01 -2.943,-3.029l0.588,-426.083c0,-1.615 0.785,-2.423 2.355,-2.423l67.698,0c1.57,0 2.355,0.808 2.355,2.423l0.589,426.083c-0,2.019 -0.785,3.029 -2.355,3.029Z" style="fill:#fff;fill-rule:nonzero;"/><path d="M1216.11,1050.89c-21.389,0 -41.11,-5.652 -59.163,-16.958c-17.856,-11.306 -32.132,-26.397 -42.826,-45.273c-10.694,-18.877 -16.041,-39.621 -16.041,-62.232l-0,-28.466c-0,-2.221 0.981,-3.332 2.943,-3.332l67.698,0c1.57,0 2.355,1.111 2.355,3.332l-0,28.466c-0,13.526 4.415,25.185 13.245,34.977c8.83,9.791 19.426,14.687 31.789,14.687c12.558,0 23.252,-4.997 32.082,-14.99c8.831,-9.994 13.246,-21.552 13.246,-34.674c-0,-15.142 -9.615,-28.365 -28.846,-39.671c-3.139,-2.019 -7.211,-4.492 -12.215,-7.42c-5.003,-2.927 -10.939,-6.308 -17.807,-10.144c-6.868,-3.836 -13.54,-7.622 -20.015,-11.357c-6.476,-3.734 -12.755,-7.318 -18.838,-10.75c-21.977,-13.325 -38.313,-30.031 -49.007,-50.119c-10.695,-20.087 -16.042,-42.648 -16.042,-67.682c0,-23.016 5.495,-43.81 16.483,-62.384c10.989,-18.371 25.362,-32.958 43.121,-43.759c17.758,-10.801 37.038,-16.201 57.838,-16.201c21.388,-0 41.011,5.451 58.867,16.353c17.857,11.103 32.132,25.841 42.827,44.213c10.694,18.372 16.041,38.964 16.041,61.778l0,50.875c0,1.615 -0.785,2.423 -2.355,2.423l-67.698,-0c-1.569,-0 -2.354,-0.808 -2.354,-2.423l-0.589,-50.875c0,-14.536 -4.415,-26.347 -13.245,-35.432c-8.83,-9.085 -19.328,-13.627 -31.494,-13.627c-12.363,-0 -22.959,4.845 -31.789,14.536c-8.83,9.69 -13.245,21.198 -13.245,34.523c-0,13.526 2.796,24.832 8.388,33.917c5.593,9.085 15.846,17.766 30.759,26.043c1.57,0.808 5.2,2.827 10.89,6.057c5.691,3.23 12.019,6.814 18.985,10.75c6.966,3.937 13.294,7.47 18.985,10.599c5.691,3.13 9.124,4.997 10.302,5.603c20.015,11.507 35.86,25.64 47.536,42.396c11.675,16.757 17.513,37.349 17.513,61.778c-0,23.621 -5.298,44.819 -15.895,63.594c-10.792,18.776 -25.116,33.615 -42.973,44.516c-17.857,10.902 -37.675,16.353 -59.456,16.353Z" style="fill:#fff;fill-rule:nonzero;"/><path d="M1487.78,1050.89c-21.388,0 -41.109,-5.652 -59.162,-16.958c-17.856,-11.306 -32.23,-26.397 -43.12,-45.273c-10.891,-18.877 -16.336,-39.621 -16.336,-62.232l0.588,-196.538c0,-23.015 5.397,-43.708 16.189,-62.08c10.596,-18.574 24.921,-33.463 42.974,-44.668c18.052,-11.204 37.675,-16.807 58.867,-16.807c21.978,0 41.698,5.552 59.162,16.656c17.661,11.104 31.838,25.993 42.532,44.667c10.695,18.675 16.042,39.419 16.042,62.232l0.589,196.538c-0,22.611 -5.299,43.305 -15.895,62.08c-10.792,18.978 -25.117,34.119 -42.973,45.425c-17.857,11.306 -37.676,16.958 -59.457,16.958Zm0,-74.799c12.166,0 22.763,-5.098 31.789,-15.293c9.026,-10.195 13.54,-21.652 13.54,-34.371l-0.589,-196.538c-0,-13.728 -4.219,-25.337 -12.657,-34.825c-8.437,-9.489 -19.132,-14.233 -32.083,-14.233c-12.362,-0 -22.958,4.643 -31.788,13.93c-8.83,9.287 -13.246,20.996 -13.246,35.128l0,196.538c0,13.526 4.416,25.185 13.246,34.977c8.83,9.791 19.426,14.687 31.788,14.687Z" style="fill:#fff;fill-rule:nonzero;"/><path d="M1717.07,1044.83l-60.339,-0c-3.14,-0 -4.71,-1.413 -4.71,-4.24l-0.588,-422.449c-0,-3.231 1.57,-4.846 4.709,-4.846l54.453,0l101.841,244.385l-2.943,-239.539c-0,-3.231 1.766,-4.846 5.298,-4.846l59.751,0c2.354,0 3.532,1.615 3.532,4.846l0.588,423.055c0,2.422 -0.981,3.634 -2.943,3.634l-52.981,-0l-104.49,-228.335l4.415,223.489c-0,3.231 -1.864,4.846 -5.593,4.846Z" style="fill:#fff;fill-rule:nonzero;"/></g><g><path d="M820.942,1531.73c-21.388,-0 -41.109,-5.653 -59.162,-16.959c-17.856,-11.305 -32.132,-26.396 -42.826,-45.273c-10.694,-18.876 -16.042,-39.62 -16.042,-62.232l0,-28.466c0,-2.221 0.982,-3.331 2.944,-3.331l67.698,0c1.57,0 2.354,1.11 2.354,3.331l0,28.466c0,13.527 4.416,25.186 13.246,34.977c8.83,9.792 19.426,14.688 31.788,14.688c12.559,-0 23.253,-4.997 32.083,-14.99c8.83,-9.994 13.246,-21.552 13.246,-34.675c-0,-15.141 -9.616,-28.365 -28.846,-39.671c-3.139,-2.018 -7.211,-4.492 -12.215,-7.419c-5.004,-2.927 -10.939,-6.309 -17.807,-10.145c-6.868,-3.836 -13.54,-7.621 -20.015,-11.356c-6.476,-3.735 -12.755,-7.318 -18.838,-10.75c-21.977,-13.325 -38.313,-30.031 -49.007,-50.119c-10.695,-20.088 -16.042,-42.649 -16.042,-67.683c0,-23.015 5.494,-43.809 16.483,-62.383c10.989,-18.372 25.362,-32.958 43.121,-43.759c17.758,-10.801 37.037,-16.202 57.837,-16.202c21.389,0 41.012,5.451 58.868,16.353c17.857,11.104 32.132,25.842 42.826,44.214c10.695,18.371 16.042,38.964 16.042,61.777l-0,50.876c-0,1.615 -0.785,2.423 -2.355,2.423l-67.698,-0c-1.57,-0 -2.354,-0.808 -2.354,-2.423l-0.589,-50.876c-0,-14.536 -4.415,-26.346 -13.245,-35.431c-8.831,-9.085 -19.329,-13.627 -31.495,-13.627c-12.362,-0 -22.958,4.845 -31.788,14.535c-8.83,9.691 -13.246,21.199 -13.246,34.523c0,13.527 2.797,24.832 8.389,33.917c5.593,9.085 15.845,17.766 30.759,26.044c1.569,0.807 5.2,2.826 10.89,6.056c5.691,3.231 12.019,6.814 18.985,10.751c6.966,3.937 13.294,7.47 18.985,10.599c5.69,3.129 9.124,4.997 10.302,5.602c20.015,11.508 35.86,25.64 47.535,42.397c11.676,16.756 17.514,37.349 17.514,61.777c-0,23.621 -5.299,44.819 -15.895,63.595c-10.792,18.775 -25.117,33.614 -42.973,44.516c-17.857,10.902 -37.676,16.353 -59.457,16.353Z" style="fill:#fff;fill-rule:nonzero;"/><path d="M1097.62,1525.67l-67.992,0c-1.766,0 -2.649,-1.009 -2.649,-3.028l-0,-353.707l-78.295,0c-1.962,0 -2.943,-1.009 -2.943,-3.028l0.589,-69.348c-0,-1.616 0.785,-2.423 2.354,-2.423l228.996,-0c2.159,-0 3.238,0.807 3.238,2.423l-0,69.348c-0,2.019 -0.785,3.028 -2.355,3.028l-79.177,0l0.589,353.707c-0,2.019 -0.785,3.028 -2.355,3.028Z" style="fill:#fff;fill-rule:nonzero;"/><path d="M1321.02,1531.73c-21.192,-0 -40.815,-5.653 -58.868,-16.959c-18.052,-11.305 -32.426,-26.497 -43.12,-45.576c-10.695,-19.078 -16.042,-39.923 -16.042,-62.534l1.178,-310.099c-0,-1.616 0.785,-2.423 2.354,-2.423l67.698,-0c1.57,-0 2.355,0.807 2.355,2.423l-0,310.099c-0,13.93 4.317,25.791 12.951,35.582c8.634,9.792 19.132,14.688 31.494,14.688c12.951,-0 23.744,-4.896 32.377,-14.688c8.634,-9.791 12.951,-21.652 12.951,-35.582l0,-310.099c0,-1.616 0.785,-2.423 2.355,-2.423l67.698,-0c1.57,-0 2.355,0.807 2.355,2.423l1.177,310.099c0,22.813 -5.298,43.809 -15.894,62.989c-10.793,18.977 -25.117,34.068 -42.974,45.273c-17.856,11.205 -37.871,16.807 -60.045,16.807Z" style="fill:#fff;fill-rule:nonzero;"/><path d="M1598.29,1525.07l-108.022,0.605c-1.962,0 -2.943,-1.009 -2.943,-3.028l1.177,-426.083c0,-1.616 0.785,-2.423 2.355,-2.423l112.732,-0.606c22.369,-0.605 42.581,4.644 60.633,15.747c18.249,11.104 32.819,26.094 43.71,44.971c10.89,18.876 16.336,39.721 16.336,62.535l-0,178.064c-0,23.823 -5.593,45.627 -16.778,65.412c-11.381,19.583 -26.49,35.179 -45.328,46.787c-18.838,11.609 -40.128,17.615 -63.872,18.019Zm5.299,-357.341l-42.091,0.606l-0.589,281.027l37.381,-0c14.914,-0 27.472,-5.35 37.676,-16.05c10.204,-10.7 15.305,-23.52 15.305,-38.46l0,-178.67c0,-13.123 -4.709,-24.58 -14.128,-34.371c-9.419,-9.792 -20.604,-14.486 -33.554,-14.082Z" style="fill:#fff;fill-rule:nonzero;"/><path d="M1842.89,1525.67l-68.287,0c-1.962,0 -2.943,-1.009 -2.943,-3.028l0.589,-426.083c-0,-1.616 0.785,-2.423 2.354,-2.423l67.698,-0c1.57,-0 2.355,0.807 2.355,2.423l0.589,426.083c-0,2.019 -0.785,3.028 -2.355,3.028Z" style="fill:#fff;fill-rule:nonzero;"/><path d="M2009.78,1531.73c-21.388,-0 -41.109,-5.653 -59.162,-16.959c-17.856,-11.305 -32.23,-26.396 -43.121,-45.273c-10.89,-18.876 -16.335,-39.62 -16.335,-62.232l0.588,-196.537c0,-23.015 5.397,-43.709 16.189,-62.081c10.596,-18.573 24.921,-33.462 42.973,-44.667c18.053,-11.205 37.676,-16.807 58.868,-16.807c21.978,-0 41.698,5.552 59.162,16.655c17.661,11.104 31.838,25.993 42.532,44.668c10.695,18.675 16.042,39.419 16.042,62.232l0.589,196.537c-0,22.612 -5.299,43.305 -15.895,62.081c-10.792,18.977 -25.117,34.119 -42.973,45.424c-17.857,11.306 -37.676,16.959 -59.457,16.959Zm0,-74.799c12.166,-0 22.762,-5.098 31.789,-15.293c9.026,-10.196 13.539,-21.653 13.539,-34.372l-0.588,-196.537c-0,-13.728 -4.219,-25.337 -12.657,-34.826c-8.437,-9.488 -19.132,-14.233 -32.083,-14.233c-12.362,0 -22.958,4.644 -31.788,13.93c-8.83,9.287 -13.246,20.997 -13.246,35.129l0,196.537c0,13.527 4.416,25.186 13.246,34.977c8.83,9.792 19.426,14.688 31.788,14.688Z" style="fill:#fff;fill-rule:nonzero;"/></g><path d="M461.043,765.788l190.445,-163.317l-0.001,931.069l-157.455,-25.224l-89.665,-83.066l-55.234,30.629l-53.82,22.642l-82.835,20.849l-40.019,-68.348l-108.543,-45.705l0,-284.908l-58.12,-60.361l325.718,-307.103l129.529,32.843Zm-92.396,67.451l-0,97.183l-83.756,39.001l-21.006,81.206l46.191,30.248l165.66,-77.807l-6.741,-121.206l-100.348,-48.625Z" style="fill:#fff;"/></g></svg>