<?xml version="1.0" encoding="UTF-8" standalone="no"?><!DOCTYPE svg PUBLIC "-//W3C//DTD SVG 1.1//EN" "http://www.w3.org/Graphics/SVG/1.1/DTD/svg11.dtd"><svg width="100%" height="100%" viewBox="0 0 2160 2160" version="1.1" xmlns="http://www.w3.org/2000/svg" xmlns:xlink="http://www.w3.org/1999/xlink" xml:space="preserve" xmlns:serif="http://www.serif.com/" style="fill-rule:evenodd;clip-rule:evenodd;stroke-linejoin:round;stroke-miterlimit:2;"><rect id="Artboard1" x="0" y="0" width="2160" height="2160" style="fill:none;"/><g><path id="modal_bg" d="M1875.44,78.334c-1.609,-11.496 -10.616,-20.548 -22.104,-22.215c-510.723,-73.694 -1021.45,-75.111 -1532.17,-0.048c-11.467,1.694 -20.443,10.748 -22.039,22.229c-93.516,675.657 -93.584,1351.31 -0.176,2026.97c1.677,12.07 11.482,21.375 23.624,22.417c509.785,43.458 1019.57,42.112 1529.36,-0.051c12.16,-1.012 21.997,-10.313 23.688,-22.398c94.089,-675.635 93.976,-1351.27 -0.18,-2026.9Z" style="fill:#161616;"/><clipPath id="_clip1"><path id="curve" d="M1875.44,78.334c-1.609,-11.496 -10.616,-20.548 -22.104,-22.215c-510.723,-73.694 -1021.45,-75.111 -1532.17,-0.048c-11.467,1.694 -20.443,10.748 -22.039,22.229c-93.516,675.657 -93.584,1351.31 -0.176,2026.97c1.677,12.07 11.482,21.375 23.624,22.417c509.785,43.458 1019.57,42.112 1529.36,-0.051c12.16,-1.012 21.997,-10.313 23.688,-22.398c94.089,-675.635 93.976,-1351.27 -0.18,-2026.9Z"/></clipPath><g clip-path="url(#_clip1)"><path d="M1086.03,-1.387c0,-0 -43.91,254.155 -429.108,341.7c-385.198,87.545 -385.804,345.13 -420.822,559.615c-35.018,214.485 -442.102,-713.491 -442.102,-713.491c447.423,-321.407 891.299,-391.689 1292.03,-187.824Z" style="fill:#192f40;"/></g><path id="letter" d="M896.953,188.451l-134.769,58.742c-6.615,2.888 -6.92,12.16 -0.506,15.472l27.338,14.111l81.413,-56.638c0.844,-0.587 1.749,0.107 1.791,0.904l-68.202,65.104c-1.697,1.616 -2.653,3.857 -2.653,6.197l0,30.148c0,8.655 11.368,11.856 15.88,4.469l16.548,-27.076l35.008,18.069c4.936,2.55 10.952,-0.197 12.259,-5.596l27.646,-114.034c1.667,-6.881 -5.262,-12.704 -11.753,-9.872Z" style="fill:#64bcff;fill-rule:nonzero;"/><g id="mail"><path d="M600.709,131.606l-81.054,-29.682c-7.437,-2.724 -15.773,-0.98 -21.494,4.498l-62.351,59.69c-4.743,4.542 -6.819,11.112 -5.499,17.42l18.282,87.368c2.139,10.221 12.382,16.727 22.88,14.53l144.407,-30.218c10.497,-2.197 17.267,-12.263 15.128,-22.484l-18.282,-87.368c-1.32,-6.308 -5.847,-11.496 -12.017,-13.754Zm-90.364,95.941l-37.189,43.844c-0.941,1.113 -2.191,1.813 -3.514,2.09c-1.836,0.384 -3.829,-0.054 -5.369,-1.36c-2.656,-2.252 -2.983,-6.227 -0.731,-8.883l37.19,-43.843c2.251,-2.661 6.228,-2.978 8.883,-0.731c2.655,2.252 2.982,6.227 0.73,8.883Zm14.454,-18.155l-64.603,-28.07c-7.145,-3.105 -5.95,-13.37 1.749,-14.981l114.918,-24.047c7.699,-1.612 12.91,7.312 7.604,13.023l-47.927,51.618c-2.998,3.224 -7.702,4.208 -11.741,2.457Zm92.341,30.74c-0.889,1.814 -2.538,3.015 -4.379,3.4c-1.323,0.277 -2.743,0.136 -4.052,-0.507l-51.649,-25.253c-3.128,-1.53 -4.423,-5.303 -2.892,-8.431c1.525,-3.122 5.297,-4.426 8.43,-2.892l51.649,25.253c3.128,1.53 4.422,5.303 2.893,8.43Z" style="fill:#64bcff;fill-rule:nonzero;"/><path d="M544.046,161.318l-39.484,8.263c-4.086,0.855 -6.709,4.866 -5.854,8.952c0.856,4.092 4.866,6.709 8.953,5.854l39.484,-8.262c4.091,-0.856 6.71,-4.861 5.854,-8.953c-0.856,-4.086 -4.861,-6.71 -8.953,-5.854Z" style="fill:#64bcff;fill-rule:nonzero;"/></g><path id="chat_22" d="M354.78,436.682c-19.527,0.127 -37.422,12.767 -44.197,31.082c-3.93,10.625 -3.919,21.377 -0.96,31.007c0.326,1.06 0.238,2.191 -0.289,3.163l-9.288,17.041c-1.631,2.995 0.857,6.569 4.232,6.079l19.276,-2.808c1.089,-0.158 2.173,0.151 3.052,0.814c7.99,6.045 18.029,9.724 29.292,9.722c19.478,-0.007 37.5,-12.369 44.406,-30.584c12.173,-32.082 -11.233,-65.738 -45.524,-65.516Zm1.081,63.29l-23.497,-4.209c-2.319,-0.415 -3.859,-2.628 -3.444,-4.947c0.415,-2.316 2.628,-3.86 4.947,-3.444l23.497,4.208c2.316,0.415 3.859,2.631 3.444,4.947c-0.415,2.32 -2.631,3.859 -4.947,3.445Zm19.789,-13.778l-40.28,-7.214c-2.319,-0.415 -3.859,-2.628 -3.444,-4.947c0.415,-2.316 2.628,-3.86 4.947,-3.445l40.28,7.215c2.316,0.414 3.859,2.631 3.444,4.947c-0.415,2.319 -2.631,3.859 -4.947,3.444Z" style="fill:#64bcff;fill-rule:nonzero;"/><g id="dots"><path d="M255.667,361.505c0.156,-1.223 1.035,-2.23 2.225,-2.549c1.19,-0.319 2.455,0.114 3.201,1.095c6.595,8.677 18.325,24.108 20.18,26.549c0.166,0.219 0.361,0.414 0.58,0.58c2.441,1.855 17.872,13.585 26.549,20.18c0.981,0.746 1.414,2.011 1.095,3.201c-0.319,1.19 -1.326,2.069 -2.549,2.225c-10.812,1.373 -30.041,3.815 -33.082,4.202c-0.273,0.034 -0.539,0.106 -0.792,0.212c-2.827,1.186 -20.701,8.685 -30.751,12.902c-1.137,0.477 -2.448,0.219 -3.32,-0.652c-0.871,-0.872 -1.129,-2.183 -0.652,-3.32c4.217,-10.05 11.716,-27.924 12.902,-30.751c0.106,-0.253 0.178,-0.519 0.212,-0.792c0.387,-3.042 2.829,-22.27 4.202,-33.082Z" style="fill:#64bcff;"/><path d="M1007.8,110.952c0.155,-1.223 1.035,-2.23 2.225,-2.549c1.19,-0.319 2.455,0.114 3.201,1.095c4.478,5.891 10.878,14.311 12.214,16.069c0.166,0.219 0.361,0.413 0.579,0.579c1.758,1.337 10.178,7.737 16.07,12.215c0.981,0.745 1.413,2.01 1.094,3.201c-0.319,1.19 -1.326,2.069 -2.548,2.224c-7.341,0.933 -17.833,2.265 -20.024,2.544c-0.272,0.034 -0.538,0.105 -0.791,0.212c-2.036,0.854 -11.789,4.946 -18.613,7.809c-1.136,0.477 -2.448,0.219 -3.319,-0.653c-0.871,-0.871 -1.129,-2.183 -0.652,-3.319c2.863,-6.824 6.955,-16.576 7.809,-18.612c0.106,-0.253 0.177,-0.52 0.212,-0.792c0.278,-2.19 1.611,-12.682 2.543,-20.023Z" style="fill:#64bcff;"/><path d="M737.046,45.687c0.88,-0.914 2.237,-1.184 3.401,-0.676c1.163,0.509 1.887,1.687 1.814,2.955c-0.502,8.713 -1.257,21.82 -1.503,26.083c-0.051,0.884 0.287,1.746 0.925,2.36c3.076,2.962 12.535,12.067 18.822,18.12c0.915,0.88 1.184,2.237 0.676,3.4c-0.508,1.164 -1.687,1.888 -2.955,1.814c-8.712,-0.501 -21.82,-1.257 -26.083,-1.502c-0.884,-0.051 -1.746,0.287 -2.36,0.925c-2.961,3.076 -12.067,12.534 -18.119,18.822c-0.881,0.914 -2.238,1.184 -3.401,0.676c-1.163,-0.509 -1.887,-1.687 -1.814,-2.955c0.502,-8.713 1.257,-21.82 1.503,-26.083c0.05,-0.884 -0.287,-1.746 -0.925,-2.36c-3.076,-2.962 -12.535,-12.067 -18.823,-18.12c-0.914,-0.88 -1.184,-2.237 -0.676,-3.4c0.509,-1.164 1.688,-1.887 2.955,-1.814c8.713,0.502 21.82,1.257 26.083,1.502c0.884,0.051 1.746,-0.287 2.361,-0.925c2.961,-3.076 12.066,-12.534 18.119,-18.822Z" style="fill:#64bcff;"/><path d="M648.24,353.366c1.188,0.446 1.973,1.585 1.967,2.855c-0.006,1.27 -0.802,2.401 -1.995,2.836c-8.062,2.937 -20.085,7.319 -24.038,8.759c-0.832,0.304 -1.49,0.955 -1.801,1.784c-1.48,3.938 -5.98,15.918 -8.997,23.95c-0.447,1.188 -1.586,1.973 -2.856,1.967c-1.269,-0.007 -2.401,-0.803 -2.835,-1.995c-2.938,-8.062 -7.32,-20.086 -8.76,-24.038c-0.303,-0.832 -0.955,-1.49 -1.784,-1.801c-3.938,-1.48 -15.917,-5.98 -23.949,-8.998c-1.189,-0.446 -1.974,-1.585 -1.967,-2.855c0.006,-1.269 0.802,-2.401 1.995,-2.836c8.061,-2.937 20.085,-7.319 24.037,-8.759c0.832,-0.303 1.49,-0.955 1.802,-1.784c1.479,-3.938 5.98,-15.918 8.997,-23.95c0.446,-1.188 1.586,-1.973 2.855,-1.967c1.27,0.007 2.401,0.803 2.836,1.996c2.938,8.061 7.319,20.085 8.76,24.037c0.303,0.832 0.954,1.49 1.783,1.802c3.938,1.479 15.918,5.979 23.95,8.997Z" style="fill:#64bcff;"/><circle cx="451.494" cy="359.611" r="11.684" style="fill:#64bcff;"/><circle cx="370.623" cy="110.138" r="7.332" style="fill:#64bcff;"/><circle cx="335.389" cy="628.277" r="11.684" style="fill:#64bcff;"/><circle cx="832.745" cy="126.773" r="11.684" style="fill:#64bcff;"/><circle cx="1090.77" cy="130.307" r="8.058" style="fill:#64bcff;"/><path d="M330.293,220.778c6.049,-0 10.959,4.91 10.959,10.959c0,6.048 -4.91,10.959 -10.959,10.959c-6.048,-0 -10.959,-4.911 -10.959,-10.959c0,-6.049 4.911,-10.959 10.959,-10.959Zm0,2.083c4.899,0 8.876,3.977 8.876,8.876c-0,4.898 -3.977,8.875 -8.876,8.875c-4.898,0 -8.875,-3.977 -8.875,-8.875c-0,-4.899 3.977,-8.876 8.875,-8.876Z" style="fill:#64bcff;"/><path d="M707.57,271.005c6.448,-0 11.684,5.235 11.684,11.684c-0,6.449 -5.236,11.684 -11.684,11.684c-6.449,0 -11.685,-5.235 -11.685,-11.684c0,-6.449 5.236,-11.684 11.685,-11.684Zm-0,2.083c5.298,-0 9.6,4.302 9.6,9.601c0,5.299 -4.302,9.601 -9.6,9.601c-5.299,-0 -9.601,-4.302 -9.601,-9.601c-0,-5.299 4.302,-9.601 9.601,-9.601Z" style="fill:#64bcff;"/><path d="M950.89,45.064c6.449,0 11.684,5.236 11.684,11.684c0,6.449 -5.235,11.685 -11.684,11.685c-6.449,-0 -11.684,-5.236 -11.684,-11.685c-0,-6.448 5.235,-11.684 11.684,-11.684Zm0,2.083c5.299,0 9.601,4.302 9.601,9.601c-0,5.299 -4.302,9.601 -9.601,9.601c-5.299,0 -9.601,-4.302 -9.601,-9.601c0,-5.299 4.302,-9.601 9.601,-9.601Z" style="fill:#64bcff;"/><path d="M974.434,244.106c7.729,-0 14.005,6.275 14.005,14.005c-0,7.73 -6.276,14.005 -14.005,14.005c-7.73,0 -14.006,-6.275 -14.006,-14.005c0,-7.73 6.276,-14.005 14.006,-14.005Zm-0,2.083c6.579,-0 11.922,5.342 11.922,11.922c-0,6.58 -5.343,11.922 -11.922,11.922c-6.58,-0 -11.922,-5.342 -11.922,-11.922c-0,-6.58 5.342,-11.922 11.922,-11.922Z" style="fill:#64bcff;"/></g></g></svg>