<?xml version="1.0" encoding="UTF-8" standalone="no"?><!DOCTYPE svg PUBLIC "-//W3C//DTD SVG 1.1//EN" "http://www.w3.org/Graphics/SVG/1.1/DTD/svg11.dtd"><svg width="100%" height="100%" viewBox="0 0 2160 2160" version="1.1" xmlns="http://www.w3.org/2000/svg" xmlns:xlink="http://www.w3.org/1999/xlink" xml:space="preserve" xmlns:serif="http://www.serif.com/" style="fill-rule:evenodd;clip-rule:evenodd;stroke-linejoin:round;stroke-miterlimit:2;"><rect id="whole" x="0" y="0" width="2160" height="2160" style="fill:none;"/><clipPath id="_clip1"><rect x="0" y="0" width="2160" height="2160"/></clipPath><g clip-path="url(#_clip1)"><g><rect x="-256.616" y="-201.247" width="2659.05" height="2470.47" style="fill:#161616;"/><path d="M2402.44,-201.247l-2659.05,0l0,2470.47l2659.05,0l0,-2470.47Zm-2.083,2.084l0,2466.3c0,-0 -2571.29,-0 -2654.89,-0c-0,-0 -0,-2466.3 -0,-2466.3c-0,-0 2654.89,-0 2654.89,-0l0,-0Z" style="fill:#64bcff;"/><path id="curve" d="M865.63,-65.243c-0,0 -43.91,254.155 -429.108,341.7c-385.198,87.545 -385.805,345.13 -420.823,559.616c-35.018,214.485 -442.102,-713.492 -442.102,-713.492c447.424,-321.406 891.3,-391.689 1292.03,-187.824Z" style="fill:#192f40;"/><path id="letter" d="M680.668,159.613l-134.769,58.742c-6.615,2.888 -6.92,12.16 -0.505,15.472l27.337,14.111l81.413,-56.638c0.844,-0.587 1.749,0.107 1.792,0.904l-68.203,65.104c-1.697,1.616 -2.652,3.857 -2.652,6.197l-0,30.148c-0,8.655 11.367,11.856 15.879,4.469l16.549,-27.076l35.007,18.069c4.936,2.55 10.952,-0.197 12.259,-5.596l27.646,-114.033c1.667,-6.882 -5.261,-12.705 -11.753,-9.873Z" style="fill:#64bcff;fill-rule:nonzero;"/><g id="mail"><path d="M385.743,76.402l-81.054,-29.682c-7.438,-2.724 -15.773,-0.98 -21.494,4.498l-62.352,59.69c-4.742,4.542 -6.819,11.112 -5.499,17.42l18.283,87.368c2.139,10.221 12.382,16.727 22.879,14.53l144.407,-30.218c10.498,-2.197 17.268,-12.263 15.129,-22.485l-18.283,-87.367c-1.32,-6.308 -5.846,-11.496 -12.016,-13.754Zm-90.364,95.941l-37.19,43.843c-0.941,1.114 -2.191,1.814 -3.514,2.091c-1.835,0.384 -3.828,-0.055 -5.369,-1.36c-2.655,-2.252 -2.982,-6.228 -0.73,-8.883l37.189,-43.844c2.251,-2.66 6.229,-2.977 8.884,-0.73c2.655,2.252 2.982,6.227 0.73,8.883Zm14.453,-18.155l-64.602,-28.07c-7.146,-3.105 -5.951,-13.37 1.749,-14.981l114.917,-24.048c7.7,-1.611 12.911,7.313 7.604,13.024l-47.927,51.618c-2.998,3.224 -7.701,4.208 -11.741,2.457Zm92.341,30.74c-0.888,1.814 -2.538,3.014 -4.379,3.4c-1.323,0.276 -2.742,0.136 -4.052,-0.507l-51.649,-25.254c-3.128,-1.529 -4.422,-5.302 -2.892,-8.43c1.526,-3.122 5.297,-4.426 8.43,-2.893l51.649,25.254c3.128,1.529 4.423,5.303 2.893,8.43Z" style="fill:#64bcff;fill-rule:nonzero;"/><path d="M329.08,106.114l-39.484,8.263c-4.087,0.855 -6.709,4.865 -5.854,8.952c0.856,4.091 4.866,6.709 8.952,5.854l39.484,-8.262c4.091,-0.856 6.71,-4.861 5.854,-8.953c-0.855,-4.086 -4.861,-6.71 -8.952,-5.854Z" style="fill:#64bcff;fill-rule:nonzero;"/></g><path id="chat" d="M101.583,423.664c-19.527,0.126 -37.422,12.767 -44.198,31.082c-3.929,10.625 -3.918,21.376 -0.96,31.007c0.327,1.06 0.239,2.191 -0.289,3.163l-9.288,17.041c-1.631,2.995 0.857,6.569 4.233,6.079l19.276,-2.808c1.088,-0.158 2.173,0.15 3.052,0.814c7.99,6.045 18.029,9.724 29.292,9.722c19.478,-0.008 37.499,-12.369 44.406,-30.585c12.172,-32.081 -11.233,-65.737 -45.524,-65.515Zm1.081,63.289l-23.497,-4.208c-2.319,-0.415 -3.86,-2.628 -3.444,-4.947c0.414,-2.316 2.628,-3.86 4.947,-3.445l23.497,4.209c2.316,0.414 3.859,2.631 3.444,4.947c-0.416,2.319 -2.631,3.859 -4.947,3.444Zm19.789,-13.777l-40.28,-7.214c-2.319,-0.416 -3.86,-2.628 -3.444,-4.947c0.414,-2.317 2.627,-3.86 4.947,-3.445l40.28,7.214c2.316,0.415 3.859,2.631 3.444,4.948c-0.415,2.319 -2.631,3.859 -4.947,3.444Z" style="fill:#64bcff;fill-rule:nonzero;"/><g id="dots"><path d="M43.338,286.526c0.155,-1.222 1.034,-2.23 2.224,-2.548c1.19,-0.319 2.455,0.113 3.201,1.094c6.595,8.677 18.325,24.108 20.18,26.55c0.166,0.218 0.361,0.413 0.58,0.579c2.441,1.856 17.872,13.585 26.549,20.18c0.981,0.746 1.414,2.011 1.095,3.201c-0.319,1.19 -1.326,2.07 -2.549,2.225c-10.812,1.373 -30.04,3.816 -33.082,4.202c-0.272,0.034 -0.539,0.106 -0.792,0.212c-2.827,1.186 -20.701,8.685 -30.751,12.902c-1.136,0.477 -2.448,0.219 -3.319,-0.652c-0.872,-0.871 -1.13,-2.183 -0.653,-3.319c4.217,-10.051 11.716,-27.924 12.902,-30.752c0.107,-0.253 0.178,-0.519 0.212,-0.791c0.387,-3.042 2.829,-22.271 4.203,-33.083Z" style="fill:#64bcff;"/><path d="M766.466,61.021c0.155,-1.223 1.034,-2.23 2.224,-2.549c1.19,-0.319 2.455,0.114 3.201,1.095c4.478,5.891 10.878,14.311 12.214,16.069c0.166,0.219 0.361,0.414 0.58,0.58c1.758,1.336 10.178,7.736 16.069,12.214c0.981,0.746 1.414,2.01 1.095,3.201c-0.319,1.19 -1.326,2.069 -2.549,2.224c-7.341,0.933 -17.833,2.265 -20.023,2.544c-0.272,0.034 -0.539,0.106 -0.792,0.212c-2.036,0.854 -11.788,4.946 -18.612,7.809c-1.137,0.477 -2.448,0.219 -3.32,-0.652c-0.871,-0.872 -1.129,-2.183 -0.652,-3.32c2.863,-6.824 6.955,-16.576 7.809,-18.612c0.106,-0.253 0.178,-0.52 0.212,-0.792c0.278,-2.19 1.611,-12.682 2.544,-20.023Z" style="fill:#64bcff;"/><path d="M519.443,49.807c0.88,-0.915 2.237,-1.184 3.4,-0.676c1.164,0.508 1.888,1.687 1.815,2.955c-0.502,8.712 -1.258,21.82 -1.503,26.083c-0.051,0.884 0.287,1.746 0.925,2.36c3.076,2.961 12.535,12.067 18.822,18.119c0.915,0.881 1.184,2.238 0.676,3.401c-0.508,1.163 -1.687,1.887 -2.955,1.814c-8.713,-0.502 -21.82,-1.257 -26.083,-1.503c-0.884,-0.051 -1.746,0.287 -2.36,0.925c-2.961,3.076 -12.067,12.535 -18.119,18.823c-0.881,0.914 -2.238,1.184 -3.401,0.676c-1.164,-0.509 -1.887,-1.688 -1.814,-2.955c0.502,-8.713 1.257,-21.821 1.502,-26.083c0.051,-0.884 -0.286,-1.746 -0.924,-2.361c-3.077,-2.961 -12.535,-12.066 -18.823,-18.119c-0.914,-0.88 -1.184,-2.237 -0.676,-3.401c0.509,-1.163 1.688,-1.887 2.955,-1.814c8.713,0.502 21.82,1.257 26.083,1.503c0.884,0.051 1.746,-0.287 2.36,-0.925c2.962,-3.076 12.067,-12.535 18.12,-18.822Z" style="fill:#64bcff;"/><path d="M387.133,303.435c1.188,0.446 1.973,1.586 1.967,2.855c-0.007,1.27 -0.803,2.401 -1.996,2.836c-8.061,2.938 -20.085,7.319 -24.037,8.76c-0.832,0.303 -1.49,0.954 -1.802,1.783c-1.479,3.938 -5.979,15.918 -8.997,23.95c-0.446,1.188 -1.585,1.973 -2.855,1.967c-1.27,-0.006 -2.401,-0.802 -2.836,-1.995c-2.937,-8.062 -7.319,-20.086 -8.759,-24.038c-0.304,-0.832 -0.955,-1.49 -1.784,-1.801c-3.938,-1.48 -15.918,-5.98 -23.95,-8.998c-1.188,-0.446 -1.973,-1.585 -1.967,-2.855c0.007,-1.269 0.803,-2.401 1.995,-2.836c8.062,-2.937 20.086,-7.319 24.038,-8.759c0.832,-0.303 1.49,-0.955 1.801,-1.784c1.48,-3.938 5.98,-15.917 8.998,-23.949c0.446,-1.189 1.585,-1.974 2.855,-1.968c1.27,0.007 2.401,0.803 2.836,1.996c2.937,8.061 7.319,20.085 8.759,24.037c0.304,0.832 0.955,1.49 1.784,1.802c3.938,1.479 15.918,5.979 23.95,8.997Z" style="fill:#64bcff;"/><circle cx="187.75" cy="272.767" r="11.684" style="fill:#64bcff;"/><circle cx="116.107" cy="60.207" r="7.332" style="fill:#64bcff;"/><circle cx="116.467" cy="591.529" r="11.684" style="fill:#64bcff;"/><circle cx="637.553" cy="90.025" r="11.684" style="fill:#64bcff;"/><circle cx="871.852" cy="93.559" r="8.058" style="fill:#64bcff;"/><path d="M79.732,161.619c6.049,-0 10.959,4.91 10.959,10.959c0,6.048 -4.91,10.959 -10.959,10.959c-6.048,-0 -10.959,-4.911 -10.959,-10.959c0,-6.049 4.911,-10.959 10.959,-10.959Zm0,2.083c4.899,0 8.876,3.977 8.876,8.876c-0,4.898 -3.977,8.875 -8.876,8.875c-4.898,0 -8.875,-3.977 -8.875,-8.875c-0,-4.899 3.977,-8.876 8.875,-8.876Z" style="fill:#64bcff;"/><path d="M492.603,277.761c6.449,-0 11.684,5.235 11.684,11.684c0,6.449 -5.235,11.684 -11.684,11.684c-6.449,0 -11.684,-5.235 -11.684,-11.684c-0,-6.449 5.235,-11.684 11.684,-11.684Zm0,2.083c5.299,0 9.601,4.302 9.601,9.601c-0,5.299 -4.302,9.601 -9.601,9.601c-5.299,0 -9.601,-4.302 -9.601,-9.601c0,-5.299 4.302,-9.601 9.601,-9.601Z" style="fill:#64bcff;"/><path d="M731.969,8.316c6.448,0 11.684,5.236 11.684,11.685c-0,6.448 -5.236,11.684 -11.684,11.684c-6.449,-0 -11.685,-5.236 -11.685,-11.684c0,-6.449 5.236,-11.685 11.685,-11.685Zm-0,2.084c5.298,-0 9.601,4.302 9.601,9.601c-0,5.298 -4.303,9.6 -9.601,9.6c-5.299,0 -9.601,-4.302 -9.601,-9.6c-0,-5.299 4.302,-9.601 9.601,-9.601Z" style="fill:#64bcff;"/><path d="M776.605,187.583c7.73,0 14.005,6.276 14.005,14.005c0,7.73 -6.275,14.006 -14.005,14.006c-7.73,-0 -14.005,-6.276 -14.005,-14.006c-0,-7.729 6.275,-14.005 14.005,-14.005Zm0,2.084c6.58,-0 11.922,5.342 11.922,11.921c-0,6.58 -5.342,11.922 -11.922,11.922c-6.58,0 -11.922,-5.342 -11.922,-11.922c0,-6.579 5.342,-11.921 11.922,-11.921Z" style="fill:#64bcff;"/></g></g></g></svg>