<?xml version="1.0" encoding="UTF-8" standalone="no"?><!DOCTYPE svg PUBLIC "-//W3C//DTD SVG 1.1//EN" "http://www.w3.org/Graphics/SVG/1.1/DTD/svg11.dtd"><svg width="100%" height="100%" viewBox="0 0 2136 2136" version="1.1" xmlns="http://www.w3.org/2000/svg" xmlns:xlink="http://www.w3.org/1999/xlink" xml:space="preserve" xmlns:serif="http://www.serif.com/" style="fill-rule:evenodd;clip-rule:evenodd;stroke-linecap:round;stroke-linejoin:round;stroke-miterlimit:1.5;"><rect id="buzonstudio_black_bg" x="1.081" y="0.686" width="2133.33" height="2133.33" style="fill:none;"/><clipPath id="_clip1"><rect x="1.081" y="0.686" width="2133.33" height="2133.33"/></clipPath><g clip-path="url(#_clip1)"><rect x="-378.487" y="-219.87" width="2790.58" height="2652.86" style="fill:#0e0e0e;stroke:#fdfdfd;stroke-width:8.33px;"/><g><path d="M823.469,898.447l71.325,-60.348l-0.001,458.224l-64.332,-12.414l-44.129,-40.881l-31.369,17.378l-40.329,5.501l-7.579,-33.133l-53.419,-22.493l-0,-140.218l-23.982,-32.788l120.824,-134.963l72.991,-3.865Zm-54.716,53.224l2.019,50.521l-38.126,16.894l-10.338,39.965l22.732,14.887l76.417,-38.685l-3.318,-59.651l-49.386,-23.931Z" style="fill:#fdfdfd;"/><circle cx="1490.34" cy="1040.94" r="15.625" style="fill:#00ff80;"/><g><path d="M1005.04,1007.84l-0,-36.906c-0,-13.014 -4.696,-32.024 -13.581,-41.06c-0.662,-0.757 -1.431,-1.533 -2.294,-2.308c0.963,-0.88 1.733,-1.66 2.314,-2.334c9.012,-8.914 13.561,-20.088 13.561,-33.543c-0,-0 -0,-6.2 -0,-6.2c-0,-13.058 -4.548,-24.266 -13.644,-33.625c-8.943,-9.2 -19.802,-13.797 -32.577,-13.797l-46.508,-0l-0,217.195l46.508,-0c12.775,-0 23.634,-4.597 32.577,-13.798c9.096,-9.358 13.644,-20.566 13.644,-33.624Zm-46.18,9.857l-9.492,-0.2l-0,-62.325c-0,0 9.451,0 9.451,0c2.53,0 4.679,0.914 6.45,2.737l0,-0c1.82,1.871 2.714,4.151 2.714,6.825c-0,-0 -0,43.106 -0,43.106c-0,2.674 -0.894,4.953 -2.714,6.825c-1.884,1.938 -3.977,3.004 -6.356,3.031l-0.053,0.001Zm-9.492,-141.77l9.451,0c2.53,0 4.679,0.914 6.45,2.737l0,-0c1.82,1.871 2.714,4.151 2.714,6.825c-0,-0 -0,14.467 -0,14.467c-0,2.841 -0.873,5.226 -2.714,7.12c-1.771,1.822 -3.92,2.736 -6.45,2.736l-9.451,0l-0,-33.885Z" style="fill:#fdfdfd;fill-rule:nonzero;"/><path d="M1057.94,838.062l-37.057,-0l-0,171.023c-0,13.058 4.548,24.266 13.644,33.624c8.935,9.193 19.887,13.798 32.864,13.798c0,-0 46.221,-0 46.221,-0l0,-218.445l-37.057,-0l0,180.682c0,0 -9.207,0.198 -9.207,0.198c-2.557,-0.012 -4.774,-1.056 -6.695,-3.032c-1.819,-1.872 -2.713,-4.151 -2.713,-6.825c0,-0 0,-171.023 0,-171.023Z" style="fill:#fdfdfd;fill-rule:nonzero;"/><path d="M1220.57,1056.08l-0,-37.861l-53.611,0c0,0 53.611,-141.787 53.611,-141.787l-0,-38.367l-92.73,-0l0,37.86l53.427,0c0,0 -53.427,131.204 -53.427,131.204l0,48.951l92.73,-0Z" style="fill:#fdfdfd;fill-rule:nonzero;"/><path d="M1282.85,837.933c-6.231,0 -17.824,0.151 -27.409,0.294c-11.214,0.141 -20.232,9.297 -20.202,20.524l-0,0.001c0.031,9.759 0.064,22.646 0.064,29.206l-0,117.842c-0,6.502 0.133,20.555 0.257,30.241c0.12,11.054 9.01,20.02 20.072,20.234c9.447,0.217 20.955,0.447 27.218,0.447c6.315,0 17.859,-0.066 27.393,-0.129c11.223,-0.063 20.305,-9.159 20.351,-20.387c0.047,-9.804 0.098,-23.938 0.098,-30.406c-0,0 -0,-117.842 -0,-117.842c-0,-6.559 0.031,-19.528 0.061,-29.363l0,-0.002c0.029,-11.28 -9.072,-20.458 -20.351,-20.523c-9.606,-0.067 -21.235,-0.137 -27.552,-0.137Zm9.472,40.257l0.116,140.656c-0,-0 -19.573,-0 -19.573,-0c0,-0 0.554,-140.656 0.554,-140.656l18.903,0Z" style="fill:#fdfdfd;fill-rule:nonzero;"/><path d="M1384.91,1056.56l-0,-123.573c-0,-0 41.338,123.276 41.338,123.276l30.016,0.57l0,-218.915l-35.177,-0l-0,109.414c-0,-0 -40.496,-109.228 -40.496,-109.228l-31.699,-0.002l0,218.458l36.018,0Z" style="fill:#fdfdfd;"/></g><g><path d="M1464.19,1078.28c-6.332,-0 -18.113,0.153 -27.852,0.299c-11.396,0.143 -20.559,9.447 -20.529,20.855l0,0.001c0.032,9.917 0.065,21.277 0.065,27.942c0,0 0,119.748 0,119.748c0,6.608 0.135,18.711 0.261,28.555c0.122,11.233 9.156,20.344 20.397,20.562c9.6,0.22 21.294,0.454 27.658,0.454c6.418,0 18.148,-0.067 27.836,-0.132c11.405,-0.063 20.634,-9.306 20.68,-20.716c0.048,-9.963 0.1,-22.149 0.1,-28.723l-0,-119.748c-0,-6.665 0.032,-18.108 0.062,-28.102l0,-0.001c0.03,-11.463 -9.219,-20.789 -20.68,-20.856c-9.762,-0.067 -21.579,-0.138 -27.998,-0.138Zm9.626,39.953l0.117,138.993c-0,-0 -19.889,-0 -19.889,-0c0,-0 0.562,-138.993 0.562,-138.993l19.21,0Z" style="fill:#fdfdfd;fill-rule:nonzero;"/><path d="M958.601,1078.54c-13.697,-0 -25.068,4.901 -34.131,14.663c-9.388,9.46 -14.113,21.076 -14.113,34.838c0,0 0,14.741 0,14.741c0,14.022 4.762,25.656 14.205,34.933c9.25,9.498 20.597,14.261 34.039,14.261c2.55,0 4.791,1.122 6.804,3.193c1.916,1.972 2.859,4.373 2.859,7.19l-0,44.837c-0,2.817 -0.943,5.218 -2.859,7.19c-2.013,2.07 -4.254,3.193 -6.804,3.193c-2.714,-0 -5.066,-1.099 -7.102,-3.193c-1.916,-1.972 -2.859,-4.373 -2.859,-7.19c0,-0 0,-33.305 0,-33.305l-38.283,0l0,33.305c0,13.546 4.719,25.174 14.155,34.882c9.268,9.535 20.629,14.312 34.089,14.312c13.251,-0 24.516,-4.769 33.791,-14.312c9.436,-9.708 14.155,-21.336 14.155,-34.882l-0,-44.837c-0,-13.547 -4.719,-25.174 -14.155,-34.882c-9.275,-9.544 -20.54,-14.312 -33.791,-14.312c-2.714,-0 -5.066,-1.099 -7.102,-3.193c-1.916,-1.972 -2.859,-4.373 -2.859,-7.19l0,-14.741c0,-2.991 0.921,-5.503 2.859,-7.497c1.891,-1.945 4.267,-2.886 7.102,-2.886c2.669,0 4.936,0.964 6.804,2.886c1.938,1.994 2.859,4.506 2.859,7.497c-0,0 -0,7.147 -0,7.147l38.283,0l-0,-7.147c-0,-13.778 -4.735,-25.404 -14.166,-34.894c-9.266,-9.742 -20.534,-14.607 -33.78,-14.607Z" style="fill:#fdfdfd;fill-rule:nonzero;"/><path d="M1113.45,1078.54l-96.189,-0l-0,39.118l28.953,0c-0,0 -0,178.732 -0,178.732l38.283,-0l-0,-178.732c-0,0 28.953,0 28.953,0l-0,-39.118Z" style="fill:#fdfdfd;fill-rule:nonzero;"/><path d="M1164.8,1078.54l-38.283,-0l0,168.656c0,13.546 4.719,25.174 14.155,34.882c9.268,9.535 20.628,14.312 34.089,14.312c-0,-0 47.945,-0 47.945,-0l0,-217.85l-38.283,-0l0,178.83c0.001,0 -9.706,0.208 -9.706,0.208c-2.695,-0.011 -5.033,-1.109 -7.058,-3.192c-1.917,-1.972 -2.859,-4.373 -2.859,-7.19c-0,-0 -0,-168.656 -0,-168.656Z" style="fill:#fdfdfd;fill-rule:nonzero;"/><path d="M1291.13,1078.54l-48.244,-0l0,217.85l48.244,-0c13.251,-0 24.516,-4.769 33.791,-14.312c9.436,-9.708 14.155,-21.336 14.155,-34.882c-0,-0 -0,-119.155 -0,-119.155c-0,-13.778 -4.735,-25.404 -14.166,-34.894c-9.266,-9.742 -20.533,-14.607 -33.78,-14.607Zm0.042,179.038l-10.003,-0.21c0,0 0,-139.71 0,-139.71c0,0 9.961,0 9.961,0c2.669,0 4.936,0.964 6.804,2.886c1.938,1.994 2.859,4.506 2.859,7.497c-0,0 -0,119.155 -0,119.155c-0,2.817 -0.942,5.218 -2.859,7.19c-1.993,2.049 -4.209,3.17 -6.726,3.192l-0.036,0Z" style="fill:#fdfdfd;fill-rule:nonzero;"/><path d="M1357.23,1291.72l-0,4.665l38.282,-0l0,-217.85l-38.282,-0l-0,213.185Z" style="fill:#fdfdfd;fill-rule:nonzero;"/></g></g></g></svg>