<?xml version="1.0" encoding="UTF-8" standalone="no"?><!DOCTYPE svg PUBLIC "-//W3C//DTD SVG 1.1//EN" "http://www.w3.org/Graphics/SVG/1.1/DTD/svg11.dtd"><svg width="100%" height="100%" viewBox="0 0 2136 2136" version="1.1" xmlns="http://www.w3.org/2000/svg" xmlns:xlink="http://www.w3.org/1999/xlink" xml:space="preserve" xmlns:serif="http://www.serif.com/" style="fill-rule:evenodd;clip-rule:evenodd;stroke-linecap:round;stroke-linejoin:round;stroke-miterlimit:1.5;"><rect id="buzonstudio_black_bg" x="1.081" y="0.686" width="2133.33" height="2133.33" style="fill:none;"/><clipPath id="_clip1"><rect x="1.081" y="0.686" width="2133.33" height="2133.33"/></clipPath><g clip-path="url(#_clip1)"><rect x="-378.487" y="-219.87" width="2790.58" height="2652.86" style="fill:#0e0e0e;stroke:#fdfdfd;stroke-width:8.33px;"/><g><g><g><path d="M881.284,1049.67l-0,-204.685l72.085,-0c5.865,-0 10.785,2.092 14.758,6.278c3.973,4.185 5.96,9.1 5.96,14.745l-0,58.106c-0,0 2.799,2.269 5.336,4.326c2.627,2.129 4.561,4.991 5.556,8.222c0,0 0.001,0 0.001,0.001c1.433,4.65 2.161,9.489 2.161,14.355c0,20.579 0,77.336 0,77.336c0,6.035 -1.986,11.096 -5.959,15.184c-3.974,4.088 -8.798,6.132 -14.474,6.132l-85.424,-0Zm26.677,-126.724l29.231,0c2.838,0 5.298,-1.071 7.379,-3.212c2.081,-2.141 3.122,-4.574 3.122,-7.3l0,-29.782c0,-2.92 -1.041,-5.402 -3.122,-7.446c-2.081,-2.044 -4.541,-3.066 -7.379,-3.066l-29.231,-0l-0,50.806Zm-0,99.569l42.854,-0c2.649,-0 4.966,-1.022 6.953,-3.066c1.987,-2.044 2.98,-4.623 2.98,-7.738l-0,-51.39c-0,-2.725 -0.993,-5.159 -2.98,-7.3c-1.987,-2.141 -4.304,-3.212 -6.953,-3.212l-42.854,0l-0,72.706Z" style="fill:#fdfdfd;fill-rule:nonzero;stroke:#fdfdfd;stroke-width:13.7px;stroke-linecap:butt;stroke-linejoin:miter;stroke-miterlimit:2;"/><path d="M1041.01,1049.67c-5.676,-0 -10.5,-2.044 -14.474,-6.132c-3.973,-4.088 -5.959,-9.052 -5.959,-14.892l-0,-183.369l26.393,-0l0,167.018c0,2.725 0.993,5.11 2.98,7.154c1.987,2.044 4.399,3.066 7.237,3.066l32.07,-0c2.838,-0 5.25,-1.022 7.236,-3.066c1.987,-2.044 2.98,-4.429 2.98,-7.154l0,-167.018l26.394,-0l-0,183.369c-0,5.84 -1.987,10.804 -5.96,14.892c-3.973,4.088 -8.798,6.132 -14.474,6.132l-64.423,-0Z" style="fill:#fdfdfd;fill-rule:nonzero;stroke:#fdfdfd;stroke-width:13.7px;stroke-linecap:butt;stroke-linejoin:miter;stroke-miterlimit:2;"/><path d="M1154.81,1049.67l0.004,-28.873l68.384,-148.365l-68.397,-0l0,-27.155l102.689,-0l-0.01,28.553l-66.068,148.685l66.042,-0l0,27.155l-102.644,-0Z" style="fill:#fdfdfd;fill-rule:nonzero;stroke:#fdfdfd;stroke-width:13.7px;stroke-linecap:butt;stroke-linejoin:miter;stroke-miterlimit:2;"/><path d="M1311.38,1049.67c-5.297,-0 -9.933,-2.044 -13.906,-6.132c-3.973,-4.088 -5.96,-9.149 -5.96,-15.184l0,-161.762c0,-6.034 1.987,-11.095 5.96,-15.183c3.973,-4.088 8.609,-6.132 13.906,-6.132l64.423,-0c6.055,-0 11.021,2.044 14.9,6.132c3.878,4.088 5.818,9.149 5.818,15.183l-0,161.762c-0,6.035 -1.94,11.096 -5.818,15.184c-3.879,4.088 -8.845,6.132 -14.9,6.132l-64.423,-0Zm16.177,-26.863l32.07,-0c3.216,-0 5.817,-1.071 7.804,-3.212c1.987,-2.142 2.98,-4.769 2.98,-7.884l0,-128.475c0,-3.31 -0.993,-5.986 -2.98,-8.03c-1.987,-2.044 -4.588,-3.066 -7.804,-3.066l-32.07,-0c-2.649,-0 -4.967,1.022 -6.953,3.066c-1.987,2.044 -2.98,4.72 -2.98,8.03l-0,128.475c-0,3.115 0.993,5.742 2.98,7.884c1.986,2.141 4.304,3.212 6.953,3.212Z" style="fill:#fdfdfd;fill-rule:nonzero;stroke:#fdfdfd;stroke-width:13.7px;stroke-linecap:butt;stroke-linejoin:miter;stroke-miterlimit:2;"/><path d="M1429.66,1049.67l0,-204.393l26.394,-0l52.787,136.359l-0,-136.359l26.393,-0l0,204.393l-26.393,-0l-52.787,-136.36l-0,136.36l-26.394,-0Z" style="fill:#fdfdfd;fill-rule:nonzero;stroke:#fdfdfd;stroke-width:13.7px;stroke-linecap:butt;stroke-linejoin:miter;stroke-miterlimit:2;"/></g><g><path d="M901.717,1289.6c-5.694,0 -10.534,-2.05 -14.52,-6.151c-3.986,-4.101 -5.978,-9.08 -5.978,-14.939l-0,-42.326l26.477,-0l-0,25.63c-0,2.929 0.996,5.419 2.989,7.469c1.993,2.051 4.318,3.076 6.975,3.076l32.457,0c2.847,0 5.267,-1.025 7.26,-3.076c1.992,-2.05 2.989,-4.54 2.989,-7.469l-0,-51.553c-0,-2.93 -0.997,-5.419 -2.989,-7.47c-1.993,-2.05 -4.413,-3.075 -7.26,-3.075l-48.4,-0c-5.694,-0 -10.534,-2.051 -14.52,-6.152c-3.986,-4.101 -5.978,-9.08 -5.978,-14.938l-0,-62.978c-0,-5.858 1.992,-10.838 5.978,-14.938c3.986,-4.101 8.826,-6.152 14.52,-6.152l64.628,0c5.694,0 10.534,2.051 14.52,6.152c3.985,4.1 5.978,9.08 5.978,14.938l0,28.413l-26.477,0l-0,-11.716c-0,-2.93 -0.997,-5.419 -2.989,-7.47c-1.993,-2.05 -4.413,-3.075 -7.26,-3.075l-32.457,-0c-2.657,-0 -4.982,1.025 -6.975,3.075c-1.993,2.051 -2.989,4.54 -2.989,7.47l-0,29.584c-0,2.929 0.996,5.419 2.989,7.47c1.993,2.05 4.318,3.075 6.975,3.075l48.685,0c5.694,0 10.534,2.051 14.52,6.152c3.985,4.1 5.978,9.08 5.978,14.938l0,84.946c0,5.859 -1.993,10.838 -5.978,14.939c-3.986,4.101 -8.826,6.151 -14.52,6.151l-64.628,0Z" style="fill:#fdfdfd;fill-rule:nonzero;stroke:#fdfdfd;stroke-width:13.52px;stroke-linecap:butt;stroke-linejoin:miter;stroke-miterlimit:2;"/><path d="M1059.91,1289.6l-0,-177.8l-39.574,-0l0,-27.242l105.625,0l-0,27.242l-39.574,-0l0,177.8l-26.477,0Z" style="fill:#fdfdfd;fill-rule:nonzero;stroke:#fdfdfd;stroke-width:13.52px;stroke-linecap:butt;stroke-linejoin:miter;stroke-miterlimit:2;"/><path d="M1175.14,1289.6c-5.694,0 -10.534,-2.05 -14.52,-6.151c-3.986,-4.101 -5.979,-9.08 -5.979,-14.939l0,-183.952l25.091,0l-0,167.549c-0,2.734 0.996,5.126 2.989,7.176c1.993,2.051 4.413,3.076 7.26,3.076l32.172,0c2.847,0 5.267,-1.025 7.259,-3.076c1.993,-2.05 2.99,-4.442 2.99,-7.176l-0,-167.549l25.167,0l-0,183.952c-0,5.859 -1.993,10.838 -5.979,14.939c-3.986,4.101 -8.826,6.151 -14.52,6.151l-61.93,0Z" style="fill:#fdfdfd;fill-rule:nonzero;stroke:#fdfdfd;stroke-width:13.52px;stroke-linecap:butt;stroke-linejoin:miter;stroke-miterlimit:2;"/><path d="M1291.03,1289.6l-0,-205.042l85.41,0c5.505,0 10.25,2.051 14.236,6.152c3.985,4.1 5.978,9.08 5.978,14.938l0,162.862c0,5.859 -1.993,10.838 -5.978,14.939c-3.986,4.101 -8.731,6.151 -14.236,6.151l-85.41,0Zm26.477,-27.241l42.705,0c2.658,0 5.03,-1.025 7.118,-3.076c2.088,-2.05 3.132,-4.54 3.132,-7.469l-0,-129.469c-0,-2.93 -1.044,-5.419 -3.132,-7.47c-2.088,-2.05 -4.46,-3.075 -7.118,-3.075l-42.705,-0l-0,150.559Z" style="fill:#fdfdfd;fill-rule:nonzero;stroke:#fdfdfd;stroke-width:13.52px;stroke-linecap:butt;stroke-linejoin:miter;stroke-miterlimit:2;"/><rect x="1429.61" y="1084.56" width="26.477" height="205.042" style="fill:#fdfdfd;fill-rule:nonzero;stroke:#fdfdfd;stroke-width:13.52px;stroke-linecap:butt;stroke-linejoin:miter;stroke-miterlimit:2;"/><path d="M1508.49,1289.6c-5.314,0 -9.964,-2.05 -13.95,-6.151c-3.986,-4.101 -5.979,-9.178 -5.979,-15.232l-0,-162.276c-0,-6.053 1.993,-11.131 5.979,-15.231c3.986,-4.101 8.636,-6.152 13.95,-6.152l64.628,0c6.073,0 11.056,2.051 14.947,6.152c3.891,4.1 5.836,9.178 5.836,15.231l-0,162.276c-0,6.054 -1.945,11.131 -5.836,15.232c-3.891,4.101 -8.874,6.151 -14.947,6.151l-64.628,0Zm16.228,-26.948l32.172,-0c3.226,-0 5.836,-1.074 7.829,-3.222c1.993,-2.148 2.989,-4.784 2.989,-7.909l0,-128.883c0,-3.32 -0.996,-6.005 -2.989,-8.056c-1.993,-2.05 -4.603,-3.075 -7.829,-3.075l-32.172,-0c-2.657,-0 -4.982,1.025 -6.975,3.075c-1.993,2.051 -2.989,4.736 -2.989,8.056l-0,128.883c-0,3.125 0.996,5.761 2.989,7.909c1.993,2.148 4.318,3.222 6.975,3.222Z" style="fill:#fdfdfd;fill-rule:nonzero;stroke:#fdfdfd;stroke-width:13.52px;stroke-linecap:butt;stroke-linejoin:miter;stroke-miterlimit:2;"/></g><path d="M755.128,918.479l93.77,-80.413l-0,458.437l-77.527,-12.42l-44.15,-40.9l-27.195,15.081l-26.5,11.149l-40.786,10.265l-19.704,-33.653l-53.444,-22.504l-0,-140.282l-28.617,-29.721l160.375,-151.21l63.778,16.171Zm-45.494,33.212l-0,47.85l-41.239,19.204l-10.343,39.983l22.743,14.894l81.567,-38.31l-3.319,-59.68l-49.409,-23.941Z" style="fill:#fdfdfd;"/></g><circle cx="1582.03" cy="1038.41" r="18.096" style="fill:#00ff80;"/></g></g></svg>