<?xml version="1.0" encoding="UTF-8" standalone="no"?><!DOCTYPE svg PUBLIC "-//W3C//DTD SVG 1.1//EN" "http://www.w3.org/Graphics/SVG/1.1/DTD/svg11.dtd"><svg width="100%" height="100%" viewBox="0 0 2136 2136" version="1.1" xmlns="http://www.w3.org/2000/svg" xmlns:xlink="http://www.w3.org/1999/xlink" xml:space="preserve" xmlns:serif="http://www.serif.com/" style="fill-rule:evenodd;clip-rule:evenodd;stroke-miterlimit:2;"><rect id="buzonstudio_black" x="0.48" y="0.686" width="2133.33" height="2133.33" style="fill:none;"/><clipPath id="_clip1"><rect x="0.48" y="0.686" width="2133.33" height="2133.33"/></clipPath><g clip-path="url(#_clip1)"><g><g><g><g><path d="M702.238,1032.47l-0,-405.346l142.754,-0c11.615,-0 21.357,4.144 29.225,12.432c7.868,8.288 11.803,18.022 11.803,29.201l-0,115.07c-0,-0 4.576,3.709 9.182,7.443c6.105,4.949 10.6,11.601 12.915,19.112c0.022,0.072 0.044,0.143 0.066,0.215c2.446,7.937 3.69,16.194 3.69,24.499c-0,38.922 -0,155.163 -0,155.163c-0,11.95 -3.934,21.973 -11.803,30.068c-7.868,8.095 -17.422,12.143 -28.663,12.143l-169.169,0Zm52.83,-250.956l57.888,-0c5.621,-0 10.492,-2.12 14.613,-6.361c4.122,-4.24 6.182,-9.059 6.182,-14.456l0,-58.98c0,-5.783 -2.06,-10.698 -6.182,-14.746c-4.121,-4.047 -8.992,-6.071 -14.613,-6.071l-57.888,-0l-0,100.614Zm-0,197.18l84.866,-0c5.245,-0 9.835,-2.024 13.769,-6.072c3.934,-4.047 5.901,-9.155 5.901,-15.323l0,-101.77c0,-5.397 -1.967,-10.216 -5.901,-14.456c-3.934,-4.241 -8.524,-6.361 -13.769,-6.361l-84.866,-0l-0,143.982Z" style="fill:#020202;fill-rule:nonzero;stroke:#020202;stroke-width:27.12px;"/><path d="M1018.56,1032.47c-11.241,0 -20.795,-4.048 -28.664,-12.143c-7.868,-8.095 -11.802,-17.925 -11.802,-29.49l-0,-363.135l52.268,-0l0,330.753c0,5.397 1.967,10.12 5.901,14.167c3.935,4.048 8.712,6.072 14.332,6.072l63.509,-0c5.62,-0 10.397,-2.024 14.331,-6.072c3.935,-4.047 5.902,-8.77 5.902,-14.167l-0,-330.753l52.268,-0l0,363.135c0,11.565 -3.934,21.395 -11.802,29.49c-7.869,8.095 -17.423,12.143 -28.664,12.143l-127.579,0Z" style="fill:#020202;fill-rule:nonzero;stroke:#020202;stroke-width:27.12px;"/><path d="M1243.91,1032.47l0.009,-57.177l135.422,-293.815l-135.448,0l0,-53.776l203.359,-0l-0.02,56.545l-130.837,294.447l130.786,-0l0,53.776l-203.271,0Z" style="fill:#020202;fill-rule:nonzero;stroke:#020202;stroke-width:27.12px;"/><path d="M1553.98,1032.47c-10.491,0 -19.671,-4.048 -27.54,-12.143c-7.868,-8.095 -11.802,-18.118 -11.802,-30.068l-0,-320.346c-0,-11.95 3.934,-21.973 11.802,-30.068c7.869,-8.095 17.049,-12.143 27.54,-12.143l127.579,-0c11.99,-0 21.826,4.048 29.507,12.143c7.681,8.095 11.521,18.118 11.521,30.068l0,320.346c0,11.95 -3.84,21.973 -11.521,30.068c-7.681,8.095 -17.517,12.143 -29.507,12.143l-127.579,0Zm32.035,-53.198l63.509,0c6.37,0 11.521,-2.12 15.456,-6.361c3.934,-4.24 5.901,-9.444 5.901,-15.612l-0,-254.426c-0,-6.553 -1.967,-11.854 -5.901,-15.902c-3.935,-4.047 -9.086,-6.071 -15.456,-6.071l-63.509,-0c-5.245,-0 -9.835,2.024 -13.769,6.071c-3.935,4.048 -5.902,9.349 -5.902,15.902l0,254.426c0,6.168 1.967,11.372 5.902,15.612c3.934,4.241 8.524,6.361 13.769,6.361Z" style="fill:#020202;fill-rule:nonzero;stroke:#020202;stroke-width:27.12px;"/><path d="M1788.21,1032.47l0,-404.768l52.269,-0l104.536,270.038l0,-270.038l52.269,-0l-0,404.768l-52.269,0l-104.536,-270.038l-0,270.038l-52.269,0Z" style="fill:#020202;fill-rule:nonzero;stroke:#020202;stroke-width:27.12px;"/></g><g><path d="M742.703,1507.61c-11.276,-0 -20.861,-4.061 -28.754,-12.182c-7.894,-8.121 -11.84,-17.982 -11.84,-29.584l-0,-83.821l52.434,0l0,50.757c0,5.801 1.973,10.731 5.92,14.792c3.947,4.06 8.551,6.091 13.813,6.091l64.275,-0c5.638,-0 10.43,-2.031 14.377,-6.091c3.947,-4.061 5.92,-8.991 5.92,-14.792l-0,-102.094c-0,-5.8 -1.973,-10.731 -5.92,-14.792c-3.947,-4.06 -8.739,-6.09 -14.377,-6.09l-95.848,-0c-11.276,-0 -20.861,-4.061 -28.754,-12.182c-7.894,-8.121 -11.84,-17.983 -11.84,-29.584l-0,-124.717c-0,-11.601 3.946,-21.463 11.84,-29.584c7.893,-8.121 17.478,-12.181 28.754,-12.181l127.985,-0c11.276,-0 20.861,4.06 28.754,12.181c7.894,8.121 11.84,17.983 11.84,29.584l0,56.268l-52.434,-0l-0,-23.203c-0,-5.801 -1.973,-10.732 -5.92,-14.792c-3.947,-4.061 -8.739,-6.091 -14.377,-6.091l-64.275,-0c-5.262,-0 -9.866,2.03 -13.813,6.091c-3.947,4.06 -5.92,8.991 -5.92,14.792l0,58.588c0,5.8 1.973,10.731 5.92,14.792c3.947,4.06 8.551,6.09 13.813,6.09l96.412,0c11.276,0 20.861,4.061 28.754,12.182c7.894,8.121 11.84,17.982 11.84,29.584l0,168.222c0,11.602 -3.946,21.463 -11.84,29.584c-7.893,8.121 -17.478,12.182 -28.754,12.182l-127.985,-0Z" style="fill:#020202;fill-rule:nonzero;stroke:#020202;stroke-width:26.78px;"/><path d="M1055.98,1507.61l0,-352.107l-78.369,-0l-0,-53.947l209.173,-0l0,53.947l-78.369,-0l-0,352.107l-52.435,-0Z" style="fill:#020202;fill-rule:nonzero;stroke:#020202;stroke-width:26.78px;"/><path d="M1284.18,1507.61c-11.276,-0 -20.861,-4.061 -28.754,-12.182c-7.894,-8.121 -11.84,-17.982 -11.84,-29.584l-0,-364.288l49.687,-0l0,331.804c0,5.414 1.974,10.151 5.92,14.212c3.947,4.06 8.739,6.091 14.377,6.091l63.711,-0c5.638,-0 10.43,-2.031 14.377,-6.091c3.947,-4.061 5.92,-8.798 5.92,-14.212l0,-331.804l49.839,-0l-0,364.288c-0,11.602 -3.947,21.463 -11.84,29.584c-7.893,8.121 -17.478,12.182 -28.754,12.182l-122.643,-0Z" style="fill:#020202;fill-rule:nonzero;stroke:#020202;stroke-width:26.78px;"/><path d="M1513.68,1507.61l0,-406.054l169.143,-0c10.901,-0 20.297,4.06 28.191,12.181c7.893,8.121 11.84,17.983 11.84,29.584l-0,322.523c-0,11.602 -3.947,21.463 -11.84,29.584c-7.894,8.121 -17.29,12.182 -28.191,12.182l-169.143,-0Zm52.434,-53.947l84.572,-0c5.262,-0 9.961,-2.031 14.095,-6.091c4.135,-4.061 6.202,-8.991 6.202,-14.792l0,-256.394c0,-5.801 -2.067,-10.732 -6.202,-14.792c-4.134,-4.061 -8.833,-6.091 -14.095,-6.091l-84.572,-0l0,298.16Z" style="fill:#020202;fill-rule:nonzero;stroke:#020202;stroke-width:26.78px;"/><rect x="1788.11" y="1101.56" width="52.434" height="406.054" style="fill:#020202;fill-rule:nonzero;stroke:#020202;stroke-width:26.78px;"/><path d="M1944.33,1507.61c-10.524,-0 -19.733,-4.061 -27.627,-12.182c-7.893,-8.121 -11.84,-18.176 -11.84,-30.164l0,-321.363c0,-11.988 3.947,-22.043 11.84,-30.164c7.894,-8.121 17.103,-12.181 27.627,-12.181l127.985,-0c12.028,-0 21.895,4.06 29.6,12.181c7.706,8.121 11.558,18.176 11.558,30.164l0,321.363c0,11.988 -3.852,22.043 -11.558,30.164c-7.705,8.121 -17.572,12.182 -29.6,12.182l-127.985,-0Zm32.137,-53.367l63.711,-0c6.39,-0 11.558,-2.127 15.505,-6.381c3.946,-4.254 5.92,-9.475 5.92,-15.662l-0,-255.234c-0,-6.574 -1.974,-11.892 -5.92,-15.952c-3.947,-4.061 -9.115,-6.091 -15.505,-6.091l-63.711,-0c-5.262,-0 -9.866,2.03 -13.813,6.091c-3.947,4.06 -5.92,9.378 -5.92,15.952l0,255.234c0,6.187 1.973,11.408 5.92,15.662c3.947,4.254 8.551,6.381 13.813,6.381Z" style="fill:#020202;fill-rule:nonzero;stroke:#020202;stroke-width:26.78px;"/></g><path d="M452.405,772.668l185.699,-159.247l-0.002,907.864l-153.53,-24.596l-87.431,-80.996l-53.856,29.866l-52.479,22.078l-80.771,20.329l-39.021,-66.644l-105.837,-44.566l-0,-277.807l-56.672,-58.857l317.599,-299.448l126.301,32.024Zm-90.093,65.77l-0,94.761l-81.668,38.029l-20.483,79.181l45.04,29.495l161.531,-75.868l-6.573,-118.185l-97.847,-47.413Z" style="fill:#0e0e0e;stroke:#020202;stroke-width:2.08px;stroke-linejoin:round;"/></g><circle cx="2089.95" cy="1010.17" r="35.836" style="fill:#020202;"/></g></g></g></svg>