<?xml version="1.0" encoding="UTF-8" standalone="no"?><!DOCTYPE svg PUBLIC "-//W3C//DTD SVG 1.1//EN" "http://www.w3.org/Graphics/SVG/1.1/DTD/svg11.dtd"><svg width="100%" height="100%" viewBox="0 0 2136 2136" version="1.1" xmlns="http://www.w3.org/2000/svg" xmlns:xlink="http://www.w3.org/1999/xlink" xml:space="preserve" xmlns:serif="http://www.serif.com/" style="fill-rule:evenodd;clip-rule:evenodd;stroke-miterlimit:2;"><rect id="buzonstudio_black_green" x="1.486" y="0.686" width="2133.33" height="2133.33" style="fill:none;"/><clipPath id="_clip1"><rect x="1.486" y="0.686" width="2133.33" height="2133.33"/></clipPath><g clip-path="url(#_clip1)"><g><g><g><g><path d="M703.244,1032.47l-0,-405.346l142.754,-0c11.615,-0 21.357,4.144 29.225,12.432c7.869,8.288 11.803,18.022 11.803,29.201l-0,115.07c-0,-0 4.576,3.709 9.182,7.443c6.105,4.949 10.601,11.601 12.915,19.112c0.022,0.072 0.045,0.143 0.067,0.215c2.446,7.937 3.689,16.194 3.689,24.499c0,38.922 0,155.163 0,155.163c0,11.95 -3.934,21.973 -11.802,30.068c-7.869,8.095 -17.423,12.143 -28.664,12.143l-169.169,0Zm52.83,-250.956l57.889,-0c5.62,-0 10.491,-2.12 14.612,-6.361c4.122,-4.24 6.183,-9.059 6.183,-14.456l-0,-58.98c-0,-5.783 -2.061,-10.698 -6.183,-14.746c-4.121,-4.047 -8.992,-6.071 -14.612,-6.071l-57.889,-0l0,100.614Zm0,197.18l84.866,-0c5.245,-0 9.835,-2.024 13.77,-6.072c3.934,-4.047 5.901,-9.155 5.901,-15.323l-0,-101.77c-0,-5.397 -1.967,-10.216 -5.901,-14.456c-3.935,-4.241 -8.525,-6.361 -13.77,-6.361l-84.866,-0l0,143.982Z" style="fill:#020202;fill-rule:nonzero;stroke:#020202;stroke-width:27.12px;"/><path d="M1019.56,1032.47c-11.241,0 -20.795,-4.048 -28.663,-12.143c-7.869,-8.095 -11.803,-17.925 -11.803,-29.49l0,-363.135l52.268,-0l0,330.753c0,5.397 1.968,10.12 5.902,14.167c3.934,4.048 8.711,6.072 14.331,6.072l63.509,-0c5.62,-0 10.398,-2.024 14.332,-6.072c3.934,-4.047 5.901,-8.77 5.901,-14.167l0,-330.753l52.268,-0l0,363.135c0,11.565 -3.934,21.395 -11.802,29.49c-7.869,8.095 -17.423,12.143 -28.663,12.143l-127.58,0Z" style="fill:#020202;fill-rule:nonzero;stroke:#020202;stroke-width:27.12px;"/><path d="M1244.92,1032.47l0.009,-57.177l135.423,-293.815l-135.448,0l-0,-53.776l203.359,-0l-0.02,56.545l-130.838,294.447l130.787,-0l-0,53.776l-203.272,0Z" style="fill:#020202;fill-rule:nonzero;stroke:#020202;stroke-width:27.12px;"/><path d="M1554.99,1032.47c-10.491,0 -19.671,-4.048 -27.539,-12.143c-7.869,-8.095 -11.803,-18.118 -11.803,-30.068l0,-320.346c0,-11.95 3.934,-21.973 11.803,-30.068c7.868,-8.095 17.048,-12.143 27.539,-12.143l127.58,-0c11.99,-0 21.825,4.048 29.506,12.143c7.681,8.095 11.521,18.118 11.521,30.068l0,320.346c0,11.95 -3.84,21.973 -11.521,30.068c-7.681,8.095 -17.516,12.143 -29.506,12.143l-127.58,0Zm32.035,-53.198l63.509,0c6.37,0 11.522,-2.12 15.456,-6.361c3.934,-4.24 5.901,-9.444 5.901,-15.612l0,-254.426c0,-6.553 -1.967,-11.854 -5.901,-15.902c-3.934,-4.047 -9.086,-6.071 -15.456,-6.071l-63.509,-0c-5.245,-0 -9.835,2.024 -13.769,6.071c-3.934,4.048 -5.901,9.349 -5.901,15.902l-0,254.426c-0,6.168 1.967,11.372 5.901,15.612c3.934,4.241 8.524,6.361 13.769,6.361Z" style="fill:#020202;fill-rule:nonzero;stroke:#020202;stroke-width:27.12px;"/><path d="M1789.21,1032.47l-0,-404.768l52.268,-0l104.537,270.038l-0,-270.038l52.268,-0l-0,404.768l-52.268,0l-104.537,-270.038l0,270.038l-52.268,0Z" style="fill:#020202;fill-rule:nonzero;stroke:#020202;stroke-width:27.12px;"/></g><g><path d="M743.709,1507.61c-11.276,-0 -20.861,-4.061 -28.754,-12.182c-7.893,-8.121 -11.84,-17.982 -11.84,-29.584l0,-83.821l52.434,0l0,50.757c0,5.801 1.974,10.731 5.92,14.792c3.947,4.06 8.551,6.091 13.814,6.091l64.274,-0c5.638,-0 10.431,-2.031 14.377,-6.091c3.947,-4.061 5.92,-8.991 5.92,-14.792l0,-102.094c0,-5.8 -1.973,-10.731 -5.92,-14.792c-3.946,-4.06 -8.739,-6.09 -14.377,-6.09l-95.848,-0c-11.276,-0 -20.861,-4.061 -28.754,-12.182c-7.893,-8.121 -11.84,-17.983 -11.84,-29.584l0,-124.717c0,-11.601 3.947,-21.463 11.84,-29.584c7.893,-8.121 17.478,-12.181 28.754,-12.181l127.985,-0c11.276,-0 20.861,4.06 28.755,12.181c7.893,8.121 11.84,17.983 11.84,29.584l-0,56.268l-52.435,-0l0,-23.203c0,-5.801 -1.973,-10.732 -5.92,-14.792c-3.946,-4.061 -8.739,-6.091 -14.377,-6.091l-64.274,-0c-5.263,-0 -9.867,2.03 -13.814,6.091c-3.946,4.06 -5.92,8.991 -5.92,14.792l0,58.588c0,5.8 1.974,10.731 5.92,14.792c3.947,4.06 8.551,6.09 13.814,6.09l96.411,0c11.276,0 20.861,4.061 28.755,12.182c7.893,8.121 11.84,17.982 11.84,29.584l-0,168.222c-0,11.602 -3.947,21.463 -11.84,29.584c-7.894,8.121 -17.479,12.182 -28.755,12.182l-127.985,-0Z" style="fill:#020202;fill-rule:nonzero;stroke:#020202;stroke-width:26.78px;"/><path d="M1056.98,1507.61l-0,-352.107l-78.37,-0l-0,-53.947l209.174,-0l-0,53.947l-78.37,-0l-0,352.107l-52.434,-0Z" style="fill:#020202;fill-rule:nonzero;stroke:#020202;stroke-width:26.78px;"/><path d="M1285.19,1507.61c-11.276,-0 -20.861,-4.061 -28.754,-12.182c-7.893,-8.121 -11.84,-17.982 -11.84,-29.584l-0,-364.288l49.687,-0l0,331.804c0,5.414 1.974,10.151 5.92,14.212c3.947,4.06 8.74,6.091 14.378,6.091l63.71,-0c5.638,-0 10.431,-2.031 14.377,-6.091c3.947,-4.061 5.92,-8.798 5.92,-14.212l0,-331.804l49.839,-0l0,364.288c0,11.602 -3.946,21.463 -11.84,29.584c-7.893,8.121 -17.478,12.182 -28.754,12.182l-122.643,-0Z" style="fill:#020202;fill-rule:nonzero;stroke:#020202;stroke-width:26.78px;"/><path d="M1514.69,1507.61l0,-406.054l169.143,-0c10.901,-0 20.298,4.06 28.191,12.181c7.893,8.121 11.84,17.983 11.84,29.584l-0,322.523c-0,11.602 -3.947,21.463 -11.84,29.584c-7.893,8.121 -17.29,12.182 -28.191,12.182l-169.143,-0Zm52.435,-53.947l84.571,-0c5.263,-0 9.961,-2.031 14.096,-6.091c4.134,-4.061 6.201,-8.991 6.201,-14.792l0,-256.394c0,-5.801 -2.067,-10.732 -6.201,-14.792c-4.135,-4.061 -8.833,-6.091 -14.096,-6.091l-84.571,-0l-0,298.16Z" style="fill:#020202;fill-rule:nonzero;stroke:#020202;stroke-width:26.78px;"/><rect x="1789.12" y="1101.56" width="52.434" height="406.054" style="fill:#020202;fill-rule:nonzero;stroke:#020202;stroke-width:26.78px;"/><path d="M1945.33,1507.61c-10.524,-0 -19.733,-4.061 -27.626,-12.182c-7.894,-8.121 -11.84,-18.176 -11.84,-30.164l-0,-321.363c-0,-11.988 3.946,-22.043 11.84,-30.164c7.893,-8.121 17.102,-12.181 27.626,-12.181l127.985,-0c12.028,-0 21.895,4.06 29.6,12.181c7.706,8.121 11.559,18.176 11.559,30.164l-0,321.363c-0,11.988 -3.853,22.043 -11.559,30.164c-7.705,8.121 -17.572,12.182 -29.6,12.182l-127.985,-0Zm32.138,-53.367l63.71,-0c6.39,-0 11.558,-2.127 15.505,-6.381c3.947,-4.254 5.92,-9.475 5.92,-15.662l0,-255.234c0,-6.574 -1.973,-11.892 -5.92,-15.952c-3.947,-4.061 -9.115,-6.091 -15.505,-6.091l-63.71,-0c-5.263,-0 -9.867,2.03 -13.814,6.091c-3.946,4.06 -5.92,9.378 -5.92,15.952l0,255.234c0,6.187 1.974,11.408 5.92,15.662c3.947,4.254 8.551,6.381 13.814,6.381Z" style="fill:#020202;fill-rule:nonzero;stroke:#020202;stroke-width:26.78px;"/></g><path d="M453.412,772.668l185.698,-159.247l-0.002,907.864l-153.53,-24.596l-87.43,-80.996l-53.857,29.866l-52.479,22.078l-80.77,20.329l-39.022,-66.644l-105.837,-44.566l-0,-277.807l-56.672,-58.857l317.6,-299.448l126.301,32.024Zm-90.094,65.77l0,94.761l-81.668,38.029l-20.482,79.181l45.039,29.495l161.532,-75.868l-6.574,-118.185l-97.847,-47.413Z" style="fill:#0e0e0e;stroke:#020202;stroke-width:2.08px;stroke-linejoin:round;"/></g><circle cx="2090.96" cy="1010.17" r="35.836" style="fill:#00ff80;"/></g></g></g></svg>