<?xml version="1.0" encoding="UTF-8" standalone="no"?><!DOCTYPE svg PUBLIC "-//W3C//DTD SVG 1.1//EN" "http://www.w3.org/Graphics/SVG/1.1/DTD/svg11.dtd"><svg width="100%" height="100%" viewBox="0 0 2136 2136" version="1.1" xmlns="http://www.w3.org/2000/svg" xmlns:xlink="http://www.w3.org/1999/xlink" xml:space="preserve" xmlns:serif="http://www.serif.com/" style="fill-rule:evenodd;clip-rule:evenodd;stroke-linejoin:round;stroke-miterlimit:2;"><rect id="buzonstudio_black_green" x="1.486" y="0.686" width="2133.33" height="2133.33" style="fill:none;"/><g><path d="M471.754,660.942l171.668,-145.25l-0.002,1102.88l-154.837,-29.878l-106.212,-98.395l-75.501,41.826l-97.064,13.239l-18.244,-79.745l-128.572,-54.139l0,-337.483l-57.721,-78.916l290.806,-324.838l175.679,-9.301Zm-131.694,128.102l4.86,121.596l-91.764,40.663l-24.882,96.19l54.714,35.83l183.923,-93.109l-7.985,-143.573l-118.866,-57.597Z"/><circle cx="2076.82" cy="1003.9" r="37.607" style="fill:#00ff80;"/><g><path d="M908.779,924.223l-0,-88.828c-0,-31.324 -11.303,-77.077 -32.688,-98.826c-1.593,-1.822 -3.443,-3.688 -5.52,-5.555c2.318,-2.118 4.17,-3.994 5.568,-5.618c21.69,-21.454 32.64,-48.347 32.64,-80.733c-0,0 -0,-14.923 -0,-14.923c-0,-31.428 -10.947,-58.404 -32.839,-80.928c-21.524,-22.144 -47.662,-33.209 -78.409,-33.209l-111.938,-0l-0,522.757l111.938,-0c30.747,-0 56.885,-11.065 78.409,-33.209c21.892,-22.524 32.839,-49.499 32.839,-80.928Zm-111.148,23.723l-22.847,-0.48l0,-150.007c-0,-0 22.747,-0 22.747,-0c6.09,-0 11.263,2.2 15.526,6.586l0,-0c4.379,4.505 6.531,9.991 6.531,16.427c-0,-0 -0,103.751 -0,103.751c-0,6.436 -2.152,11.921 -6.531,16.426c-4.534,4.666 -9.573,7.23 -15.298,7.296l-0.128,0.001Zm-22.847,-341.219l22.747,0c6.09,0 11.263,2.201 15.526,6.586l0,0c4.379,4.506 6.531,9.991 6.531,16.427c-0,0 -0,34.821 -0,34.821c-0,6.837 -2.1,12.579 -6.531,17.137c-4.263,4.386 -9.436,6.586 -15.526,6.586l-22.747,0l-0,-81.557Z" style="fill-rule:nonzero;"/><path d="M1036.08,515.603l-89.192,-0l0,411.628c0,31.429 10.947,58.405 32.84,80.929c21.505,22.125 47.865,33.208 79.099,33.208c-0,0 111.247,0 111.247,0l0,-525.765l-89.191,-0l0,434.876c0,0 -22.16,0.475 -22.16,0.475c-6.155,-0.027 -11.49,-2.54 -16.113,-7.296c-4.379,-4.505 -6.53,-9.991 -6.53,-16.427c-0,0 -0,-411.628 -0,-411.628Z" style="fill-rule:nonzero;"/><path d="M1427.53,1040.33l0,-91.124l-129.032,0c0,0 129.032,-341.263 129.032,-341.263l0,-92.343l-223.186,-0l0,91.124l128.591,0c0.001,0 -128.591,315.789 -128.591,315.789l0,117.817l223.186,0Z" style="fill-rule:nonzero;"/><path d="M1577.41,515.293c-14.998,0 -42.9,0.364 -65.968,0.708c-26.992,0.339 -48.697,22.377 -48.624,49.398l-0,0.002c0.074,23.49 0.153,54.507 0.153,70.295l0,283.629c0,15.648 0.32,49.472 0.62,72.784c0.288,26.606 21.685,48.186 48.31,48.702c22.738,0.522 50.436,1.076 65.509,1.076c15.201,-0 42.985,-0.16 65.931,-0.312c27.013,-0.151 48.872,-22.043 48.982,-49.068c0.114,-23.596 0.235,-57.614 0.235,-73.182c0,-0 0,-283.629 0,-283.629c0,-15.788 0.077,-47.002 0.149,-70.674l-0,-0.002c0.069,-27.151 -21.835,-49.24 -48.983,-49.398c-23.12,-0.16 -51.109,-0.329 -66.314,-0.329Zm22.799,96.893l0.278,338.538c0,0 -47.109,0 -47.109,0c0,0 1.333,-338.538 1.333,-338.538l45.498,0Z" style="fill-rule:nonzero;"/><path d="M1823.06,1041.49l-0,-297.424c-0,0 99.495,296.708 99.495,296.708l72.245,1.372l-0,-526.897l-84.667,-0l-0,263.343c-0,0 -97.466,-262.894 -97.466,-262.894l-76.295,-0.005l-0,525.797l86.688,0Z"/></g><g><path d="M2013.87,1093.76c-15.24,-0 -43.594,0.369 -67.035,0.719c-27.428,0.344 -49.484,22.738 -49.41,50.196l-0,0.003c0.075,23.869 0.156,51.21 0.156,67.253c0,-0 0,288.216 0,288.216c0,15.903 0.325,45.034 0.629,68.727c0.294,27.036 22.036,48.965 49.092,49.489c23.105,0.531 51.251,1.093 66.568,1.093c15.447,0 43.681,-0.162 66.997,-0.317c27.45,-0.153 49.663,-22.399 49.775,-49.861c0.116,-23.98 0.239,-53.311 0.239,-69.131l0,-288.216c0,-16.043 0.078,-43.584 0.151,-67.638l-0,-0.003c0.071,-27.59 -22.188,-50.036 -49.775,-50.196c-23.495,-0.163 -51.936,-0.334 -67.387,-0.334Zm23.169,96.162l0.281,334.535c0,0 -47.869,0 -47.869,0c0,-0 1.352,-334.535 1.352,-334.535l46.236,0Z" style="fill-rule:nonzero;"/><path d="M796.998,1094.4c-32.966,-0 -60.336,11.796 -82.15,35.291c-22.594,22.769 -33.966,50.726 -33.966,83.851c0,-0 0,35.479 0,35.479c0,33.75 11.461,61.75 34.189,84.08c22.262,22.859 49.575,34.323 81.927,34.323c6.137,-0 11.531,2.701 16.375,7.685c4.614,4.746 6.882,10.525 6.882,17.305l-0,107.915c-0,6.781 -2.269,12.559 -6.882,17.306c-4.844,4.984 -10.238,7.685 -16.375,7.685c-6.532,-0 -12.193,-2.644 -17.093,-7.685c-4.613,-4.747 -6.881,-10.526 -6.881,-17.306c-0,0 -0,-80.158 -0,-80.158l-92.142,0l0,80.158c0,32.605 11.357,60.59 34.068,83.957c22.307,22.95 49.651,34.446 82.048,34.446c31.893,0 59.005,-11.477 81.33,-34.446c22.711,-23.367 34.068,-51.352 34.068,-83.957l-0,-107.915c-0,-32.605 -11.357,-60.59 -34.068,-83.957c-22.325,-22.969 -49.437,-34.446 -81.33,-34.446c-6.532,0 -12.193,-2.644 -17.093,-7.685c-4.613,-4.746 -6.881,-10.525 -6.881,-17.305l-0,-35.479c-0,-7.2 2.216,-13.245 6.881,-18.045c4.55,-4.681 10.268,-6.946 17.093,-6.946c6.423,0 11.879,2.321 16.375,6.946c4.666,4.8 6.882,10.845 6.882,18.045c-0,-0 -0,17.202 -0,17.202l92.141,0l-0,-17.202c-0,-33.161 -11.397,-61.143 -34.095,-83.985c-22.303,-23.448 -49.421,-35.157 -81.303,-35.157Z" style="fill-rule:nonzero;"/><path d="M1169.69,1094.4l-231.513,-0l-0,94.151l69.686,0c-0,0 -0,430.181 -0,430.181l92.141,0l0,-430.181c0,0 69.686,0 69.686,0l0,-94.151Z" style="fill-rule:nonzero;"/><path d="M1293.29,1094.4l-92.141,-0l-0,405.929c-0,32.605 11.356,60.59 34.068,83.957c22.306,22.95 49.65,34.446 82.048,34.446c-0,0 115.397,0 115.397,0l0,-524.332l-92.141,-0l0,430.418c0,0 -23.361,0.501 -23.361,0.501c-6.489,-0.028 -12.115,-2.67 -16.989,-7.684c-4.613,-4.747 -6.881,-10.526 -6.881,-17.306c-0,0 -0,-405.929 -0,-405.929Z" style="fill-rule:nonzero;"/><path d="M1597.35,1094.4l-116.116,-0l0,524.332l116.116,0c31.893,0 59.005,-11.477 81.33,-34.446c22.711,-23.367 34.068,-51.352 34.068,-83.957c-0,0 -0,-286.787 -0,-286.787c-0,-33.161 -11.397,-61.143 -34.095,-83.985c-22.303,-23.448 -49.421,-35.157 -81.303,-35.157Zm0.102,430.919l-24.076,-0.505c-0.001,-0 -0.001,-336.263 -0.001,-336.263c0,0 23.975,0 23.975,0c6.423,0 11.879,2.321 16.375,6.946c4.666,4.8 6.882,10.845 6.882,18.045c-0,-0 -0,286.787 -0,286.787c-0,6.781 -2.269,12.559 -6.882,17.306c-4.795,4.933 -10.129,7.629 -16.188,7.684l-0.085,0Z" style="fill-rule:nonzero;"/><path d="M1756.43,1607.5l-0,11.227l92.141,0l0,-524.332l-92.141,-0l-0,513.105Z" style="fill-rule:nonzero;"/></g></g></svg>