<?xml version="1.0" encoding="UTF-8" standalone="no"?><!DOCTYPE svg PUBLIC "-//W3C//DTD SVG 1.1//EN" "http://www.w3.org/Graphics/SVG/1.1/DTD/svg11.dtd"><svg width="100%" height="100%" viewBox="0 0 2136 1117" version="1.1" xmlns="http://www.w3.org/2000/svg" xmlns:xlink="http://www.w3.org/1999/xlink" xml:space="preserve" xmlns:serif="http://www.serif.com/" style="fill-rule:evenodd;clip-rule:evenodd;stroke-linejoin:round;stroke-miterlimit:2;"><rect id="buzonstudio_white_cropped" x="1.047" y="1.79" width="2133.33" height="1114.46" style="fill:none;"/><g><path d="M471.315,152.609l171.668,-145.251l-0.002,1102.88l-154.837,-29.879l-106.212,-98.394l-75.502,41.826l-97.064,13.238l-18.243,-79.744l-128.572,-54.14l0,-337.483l-57.721,-78.915l290.806,-324.839l175.679,-9.3Zm-131.694,128.101l4.86,121.597l-91.765,40.662l-24.882,96.191l54.715,35.83l183.923,-93.109l-7.986,-143.573l-118.865,-57.598Z" style="fill:#fdfdfd;"/><circle cx="2076.38" cy="495.569" r="37.607" style="fill:#fdfdfd;"/><g><path d="M908.339,415.89l0,-88.829c0,-31.323 -11.302,-77.076 -32.687,-98.825c-1.593,-1.823 -3.444,-3.689 -5.52,-5.556c2.317,-2.117 4.17,-3.993 5.568,-5.617c21.69,-21.454 32.639,-48.347 32.639,-80.733c0,0 0,-14.923 0,-14.923c0,-31.429 -10.947,-58.405 -32.839,-80.929c-21.523,-22.144 -47.661,-33.208 -78.408,-33.208l-111.939,-0l0,522.757l111.939,-0c30.747,-0 56.885,-11.065 78.408,-33.209c21.892,-22.524 32.839,-49.5 32.839,-80.928Zm-111.147,23.723l-22.847,-0.48l-0,-150.008c-0,0 22.747,0 22.747,0c6.09,0 11.263,2.201 15.526,6.587l-0,-0c4.379,4.505 6.53,9.99 6.53,16.426c0,0 0,103.751 0,103.751c0,6.436 -2.151,11.922 -6.53,16.427c-4.535,4.665 -9.573,7.229 -15.298,7.296l-0.128,0.001Zm-22.847,-341.219l22.747,-0c6.09,-0 11.263,2.2 15.526,6.586l-0,0c4.379,4.505 6.53,9.991 6.53,16.427c0,-0 0,34.82 0,34.82c0,6.838 -2.1,12.58 -6.53,17.138c-4.263,4.386 -9.436,6.586 -15.526,6.586l-22.747,0l-0,-81.557Z" style="fill:#fdfdfd;fill-rule:nonzero;"/><path d="M1035.64,7.27l-89.191,-0l-0,411.628c-0,31.428 10.947,58.404 32.839,80.928c21.505,22.126 47.866,33.209 79.099,33.209c0,-0 111.248,-0 111.248,-0l0,-525.765l-89.191,-0l-0,434.876c-0,-0 -22.16,0.475 -22.16,0.475c-6.155,-0.028 -11.49,-2.54 -16.113,-7.296c-4.379,-4.506 -6.531,-9.991 -6.531,-16.427c0,-0 0,-411.628 0,-411.628Z" style="fill:#fdfdfd;fill-rule:nonzero;"/><path d="M1427.09,532l-0,-91.124l-129.032,-0c-0,-0 129.032,-341.263 129.032,-341.263l-0,-92.343l-223.186,-0l-0,91.124l128.591,-0c0,-0 -128.591,315.789 -128.591,315.789l-0,117.817l223.186,0Z" style="fill:#fdfdfd;fill-rule:nonzero;"/><path d="M1576.97,6.96c-14.997,0 -42.9,0.364 -65.968,0.708c-26.992,0.339 -48.696,22.376 -48.624,49.397l0,0.003c0.075,23.49 0.154,54.507 0.154,70.294l0,283.63c0,15.648 0.32,49.472 0.619,72.784c0.289,26.606 21.685,48.186 48.311,48.701c22.737,0.523 50.435,1.077 65.508,1.077c15.201,-0 42.986,-0.161 65.931,-0.312c27.013,-0.151 48.873,-22.043 48.983,-49.068c0.113,-23.597 0.235,-57.614 0.235,-73.182c-0,-0 -0,-283.63 -0,-283.63c-0,-15.787 0.077,-47.001 0.148,-70.673l0,-0.003c0.07,-27.15 -21.835,-49.239 -48.982,-49.397c-23.121,-0.16 -51.11,-0.329 -66.315,-0.329Zm22.8,96.893l0.278,338.538c-0,-0 -47.109,-0 -47.109,-0c-0,-0 1.332,-338.538 1.332,-338.538l45.499,-0Z" style="fill:#fdfdfd;fill-rule:nonzero;"/><path d="M1822.62,533.157l-0,-297.424c-0.001,-0 99.494,296.708 99.494,296.708l72.245,1.372l0,-526.898l-84.667,0l0,263.344c0,-0 -97.465,-262.894 -97.465,-262.894l-76.296,-0.006l0,525.798l86.689,-0Z" style="fill:#fdfdfd;"/></g><g><path d="M2013.43,585.427c-15.24,0 -43.594,0.37 -67.035,0.72c-27.429,0.344 -49.484,22.738 -49.411,50.196l0,0.003c0.076,23.868 0.157,51.21 0.157,67.252c-0,0 -0,288.217 -0,288.217c-0,15.903 0.324,45.034 0.629,68.726c0.293,27.037 22.036,48.965 49.092,49.489c23.105,0.531 51.251,1.094 66.568,1.094c15.446,0 43.68,-0.163 66.997,-0.317c27.45,-0.153 49.663,-22.399 49.775,-49.862c0.115,-23.979 0.239,-53.31 0.239,-69.13l-0,-288.217c-0,-16.042 0.077,-43.583 0.15,-67.638l0,-0.002c0.071,-27.59 -22.188,-50.036 -49.774,-50.197c-23.495,-0.162 -51.936,-0.334 -67.387,-0.334Zm23.168,96.163l0.282,334.535c-0,-0 -47.869,-0 -47.869,-0c-0,-0 1.352,-334.535 1.352,-334.535l46.235,-0Z" style="fill:#fdfdfd;fill-rule:nonzero;"/><path d="M796.559,586.063c-32.967,0 -60.336,11.797 -82.15,35.291c-22.594,22.77 -33.966,50.727 -33.966,83.852c-0,-0 -0,35.478 -0,35.478c-0,33.75 11.461,61.751 34.189,84.08c22.262,22.86 49.574,34.324 81.927,34.324c6.136,-0 11.53,2.7 16.375,7.684c4.613,4.747 6.881,10.526 6.881,17.306l0,107.915c0,6.78 -2.268,12.559 -6.881,17.305c-4.845,4.984 -10.239,7.685 -16.375,7.685c-6.533,0 -12.194,-2.644 -17.093,-7.685c-4.614,-4.746 -6.882,-10.525 -6.882,-17.305c0,-0 0,-80.158 0,-80.158l-92.141,-0l-0,80.158c-0,32.605 11.357,60.59 34.068,83.957c22.307,22.95 49.65,34.446 82.048,34.446c31.893,-0 59.004,-11.477 81.329,-34.446c22.712,-23.367 34.069,-51.352 34.069,-83.957l-0,-107.915c-0,-32.605 -11.357,-60.59 -34.069,-83.957c-22.325,-22.969 -49.436,-34.446 -81.329,-34.446c-6.533,-0 -12.194,-2.644 -17.093,-7.685c-4.614,-4.747 -6.882,-10.525 -6.882,-17.306l0,-35.478c0,-7.2 2.216,-13.245 6.882,-18.045c4.55,-4.681 10.268,-6.946 17.093,-6.946c6.423,0 11.879,2.32 16.375,6.946c4.665,4.8 6.881,10.845 6.881,18.045c0,-0 0,17.202 0,17.202l92.142,0l-0,-17.202c-0,-33.161 -11.397,-61.144 -34.096,-83.986c-22.302,-23.448 -49.421,-35.157 -81.302,-35.157Z" style="fill:#fdfdfd;fill-rule:nonzero;"/><path d="M1169.25,586.063l-231.514,0l0,94.152l69.687,0c-0,0 -0,430.181 -0,430.181l92.141,-0l-0,-430.181c-0,0 69.686,0 69.686,0l-0,-94.152Z" style="fill:#fdfdfd;fill-rule:nonzero;"/><path d="M1292.85,586.063l-92.141,0l0,405.93c0,32.605 11.357,60.59 34.068,83.957c22.307,22.95 49.651,34.446 82.048,34.446c0,-0 115.398,-0 115.398,-0l-0,-524.333l-92.141,0l-0,430.419c-0,0 -23.362,0.501 -23.362,0.501c-6.488,-0.028 -12.115,-2.671 -16.988,-7.685c-4.613,-4.746 -6.882,-10.525 -6.882,-17.305c0,-0 0,-405.93 0,-405.93Z" style="fill:#fdfdfd;fill-rule:nonzero;"/><path d="M1596.91,586.063l-116.116,0l-0,524.333l116.116,-0c31.893,-0 59.004,-11.477 81.329,-34.446c22.712,-23.367 34.068,-51.352 34.068,-83.957c0,-0 0,-286.787 0,-286.787c0,-33.161 -11.396,-61.144 -34.095,-83.986c-22.302,-23.448 -49.421,-35.157 -81.302,-35.157Zm0.101,430.92l-24.076,-0.506c0,0 0,-336.262 0,-336.262c0,0 23.975,0 23.975,0c6.423,0 11.879,2.32 16.375,6.946c4.665,4.8 6.881,10.845 6.881,18.045c0,-0 0,286.787 0,286.787c0,6.78 -2.268,12.559 -6.881,17.305c-4.795,4.934 -10.129,7.63 -16.188,7.684l-0.086,0.001Z" style="fill:#fdfdfd;fill-rule:nonzero;"/><path d="M1756,1099.17l-0,11.228l92.141,-0l-0,-524.333l-92.141,0l-0,513.105Z" style="fill:#fdfdfd;fill-rule:nonzero;"/></g></g></svg>