<?xml version="1.0" encoding="UTF-8" standalone="no"?><!DOCTYPE svg PUBLIC "-//W3C//DTD SVG 1.1//EN" "http://www.w3.org/Graphics/SVG/1.1/DTD/svg11.dtd"><svg width="100%" height="100%" viewBox="0 0 2136 2136" version="1.1" xmlns="http://www.w3.org/2000/svg" xmlns:xlink="http://www.w3.org/1999/xlink" xml:space="preserve" xmlns:serif="http://www.serif.com/" style="fill-rule:evenodd;clip-rule:evenodd;stroke-linejoin:round;stroke-miterlimit:2;"><rect id="logo_white" x="0.558" y="1.019" width="2133.33" height="2133.33" style="fill:none;"/><clipPath id="_clip1"><rect x="0.558" y="1.019" width="2133.33" height="2133.33"/></clipPath><g clip-path="url(#_clip1)"><g><g><path d="M752.519,1390.24c-6.085,-3.352 -12.279,-6.121 -18.581,-8.307c-6.302,-2.186 -12.206,-3.279 -17.712,-3.279c-6.809,0 -12.17,1.385 -16.082,4.154c-3.912,2.769 -5.867,6.922 -5.867,12.46c-0,3.79 1.485,7.178 4.455,10.166c2.97,2.987 6.809,5.647 11.518,7.979c4.708,2.332 9.598,4.445 14.669,6.34c4.636,1.749 9.236,3.825 13.8,6.23c4.564,2.405 8.657,5.393 12.279,8.963c3.622,3.571 6.519,8.016 8.693,13.335c2.173,5.32 3.259,11.842 3.259,19.566c0,8.161 -2.1,15.74 -6.302,22.735c-4.202,6.996 -10.359,12.643 -18.472,16.943c-8.114,4.299 -18.111,6.449 -29.991,6.449c-6.085,-0 -12.279,-0.62 -18.581,-1.859c-6.302,-1.238 -12.496,-3.133 -18.581,-5.683c-6.085,-2.551 -11.953,-5.794 -17.603,-9.729l13.909,-24.702c3.767,2.769 7.859,5.21 12.278,7.323c4.419,2.113 8.874,3.753 13.366,4.919c4.491,1.166 8.62,1.749 12.387,1.749c3.767,-0 7.57,-0.547 11.409,-1.64c3.84,-1.093 7.027,-2.951 9.563,-5.575c2.535,-2.623 3.803,-6.266 3.803,-10.93c-0,-3.206 -1.051,-6.121 -3.151,-8.744c-2.101,-2.624 -4.926,-5.028 -8.476,-7.215c-3.55,-2.186 -7.425,-4.08 -11.627,-5.683c-4.926,-1.895 -9.997,-4.081 -15.212,-6.559c-5.216,-2.477 -10.106,-5.501 -14.67,-9.072c-4.563,-3.571 -8.258,-8.016 -11.083,-13.335c-2.825,-5.32 -4.238,-11.842 -4.238,-19.566c0,-9.327 2.065,-17.416 6.194,-24.266c4.129,-6.849 9.961,-12.278 17.494,-16.286c7.534,-4.008 16.227,-6.23 26.079,-6.668c12.894,0 23.362,1.531 31.403,4.591c8.041,3.061 15.249,6.704 21.624,10.931l-11.953,24.265Z" style="fill:#fff;fill-rule:nonzero;"/><path d="M788.928,1351.33l107.792,-0l0,30.605l-38.9,0l-0,130.292l-31.512,-0l-0,-130.292l-37.38,0l0,-30.605Z" style="fill:#fff;fill-rule:nonzero;"/><path d="M955.397,1452.77c0,5.101 1.522,9.983 4.564,14.647c3.043,4.663 7.063,8.453 12.061,11.367c4.999,2.915 10.468,4.373 16.408,4.373c6.52,-0 12.315,-1.458 17.386,-4.373c5.071,-2.914 9.091,-6.704 12.061,-11.367c2.97,-4.664 4.455,-9.546 4.455,-14.647l0,-101.435l31.078,-0l-0,102.091c-0,11.805 -2.898,22.261 -8.693,31.37c-5.796,9.109 -13.619,16.25 -23.471,21.424c-9.852,5.174 -20.791,7.761 -32.816,7.761c-11.88,-0 -22.71,-2.587 -32.489,-7.761c-9.78,-5.174 -17.567,-12.315 -23.363,-21.424c-5.795,-9.109 -8.692,-19.565 -8.692,-31.37l-0,-102.091l31.511,-0l0,101.435Z" style="fill:#fff;fill-rule:nonzero;"/><path d="M1091.44,1512.23l-0,-160.897l47.811,-0c16.082,-0 29.773,2.405 41.074,7.214c11.3,4.809 20.392,11.222 27.274,19.238c6.881,8.015 11.916,16.978 15.104,26.889c3.187,9.91 4.781,19.893 4.781,29.949c-0,11.951 -2.137,22.699 -6.411,32.245c-4.274,9.546 -10.106,17.708 -17.495,24.485c-7.389,6.776 -15.937,11.95 -25.644,15.521c-9.707,3.57 -19.993,5.356 -30.86,5.356l-55.634,-0Zm31.512,-30.606l18.689,0c7.969,0 15.213,-1.056 21.733,-3.169c6.519,-2.114 12.133,-5.211 16.842,-9.291c4.709,-4.081 8.331,-9.218 10.866,-15.412c2.536,-6.194 3.803,-13.299 3.803,-21.315c0,-10.493 -1.702,-19.055 -5.107,-25.687c-3.405,-6.631 -7.606,-11.768 -12.604,-15.412c-4.999,-3.643 -10.106,-6.157 -15.322,-7.542c-5.215,-1.384 -9.634,-2.076 -13.256,-2.076l-25.644,-0l-0,99.904Z" style="fill:#fff;fill-rule:nonzero;"/><rect x="1259" y="1351.33" width="31.512" height="160.897" style="fill:#fff;fill-rule:nonzero;"/><path d="M1322.02,1432c-0,-11.076 2.101,-21.57 6.302,-31.48c4.202,-9.91 10.033,-18.691 17.495,-26.342c7.461,-7.652 16.118,-13.664 25.97,-18.036c9.851,-4.372 20.428,-6.558 31.729,-6.558c11.155,-0 21.659,2.186 31.511,6.558c9.852,4.372 18.581,10.384 26.188,18.036c7.606,7.651 13.546,16.432 17.82,26.342c4.274,9.91 6.411,20.404 6.411,31.48c0,11.368 -2.137,22.007 -6.411,31.917c-4.274,9.91 -10.214,18.618 -17.82,26.124c-7.607,7.505 -16.336,13.372 -26.188,17.598c-9.852,4.226 -20.356,6.34 -31.511,6.34c-11.301,-0 -21.878,-2.114 -31.729,-6.34c-9.852,-4.226 -18.509,-10.093 -25.97,-17.598c-7.462,-7.506 -13.293,-16.214 -17.495,-26.124c-4.201,-9.91 -6.302,-20.549 -6.302,-31.917Zm32.598,-0c0,7.141 1.268,13.809 3.803,20.003c2.536,6.194 6.085,11.659 10.649,16.395c4.564,4.737 9.852,8.417 15.865,11.04c6.012,2.624 12.568,3.935 19.667,3.935c6.81,0 13.148,-1.311 19.016,-3.935c5.868,-2.623 10.975,-6.303 15.321,-11.04c4.347,-4.736 7.751,-10.201 10.214,-16.395c2.463,-6.194 3.695,-12.862 3.695,-20.003c-0,-7.287 -1.268,-14.064 -3.803,-20.331c-2.536,-6.267 -6.013,-11.768 -10.432,-16.505c-4.419,-4.736 -9.598,-8.416 -15.538,-11.04c-5.941,-2.623 -12.388,-3.935 -19.342,-3.935c-6.954,0 -13.402,1.312 -19.342,3.935c-5.94,2.624 -11.156,6.304 -15.647,11.04c-4.491,4.737 -7.968,10.238 -10.431,16.505c-2.463,6.267 -3.695,13.044 -3.695,20.331Z" style="fill:#fff;fill-rule:nonzero;"/></g><g><path d="M150.191,638.542c53.104,0 95.357,11.143 126.758,33.429c31.401,22.287 47.102,55.476 47.102,99.569c-0,32.59 -7.735,59.789 -23.205,81.596c-15.469,21.806 -36.48,38.101 -63.033,48.885c-26.552,10.784 -56.914,16.175 -91.086,16.175l-15.931,-56.074c42.022,-0 79.311,5.991 111.866,17.972c32.556,11.982 58.3,29.116 77.233,51.402c18.933,22.286 28.399,49.006 28.399,80.158c0,28.756 -4.964,53.079 -14.892,72.969c-9.928,19.89 -23.32,35.945 -40.175,48.167c-16.855,12.221 -35.903,21.087 -57.145,26.599c-21.242,5.512 -43.177,8.267 -65.804,8.267l-169.704,0l0,-529.114l149.617,0Zm11.775,216.391c19.857,-0 34.518,-6.231 43.985,-18.692c9.466,-12.461 14.199,-26.599 14.199,-42.415c0,-18.212 -5.887,-31.872 -17.663,-40.978c-11.775,-9.106 -27.591,-13.659 -47.448,-13.659l-54.028,0l0,115.744l60.955,-0Zm3.463,215.671c14.777,0 28.169,-2.037 40.175,-6.11c12.007,-4.074 21.473,-10.544 28.4,-19.411c6.926,-8.866 10.39,-20.009 10.39,-33.429c-0,-15.337 -4.156,-26.959 -12.468,-34.867c-8.312,-7.908 -19.049,-13.419 -32.209,-16.535c-13.161,-3.115 -26.899,-4.673 -41.214,-4.673l-57.492,0l0,115.025l64.418,0Z" style="fill:#fff;fill-rule:nonzero;"/><rect x="448.731" y="638.542" width="100.437" height="529.114" style="fill:#fff;fill-rule:nonzero;"/><path d="M952.995,766.507c-19.395,-11.023 -39.136,-20.129 -59.223,-27.318c-20.088,-7.189 -38.905,-10.783 -56.453,-10.783c-21.704,-0 -38.789,4.553 -51.258,13.659c-12.468,9.106 -18.702,22.765 -18.702,40.977c0,12.461 4.734,23.604 14.2,33.429c9.467,9.825 21.704,18.572 36.712,26.24c15.007,7.669 30.593,14.618 46.755,20.849c14.777,5.751 29.438,12.58 43.984,20.488c14.546,7.908 27.592,17.733 39.136,29.476c11.545,11.742 20.78,26.359 27.707,43.853c6.927,17.493 10.39,38.94 10.39,64.342c0,26.839 -6.696,51.761 -20.087,74.766c-13.392,23.005 -33.018,41.577 -58.877,55.715c-25.86,14.138 -57.723,21.208 -95.589,21.208c-19.394,-0 -39.136,-2.037 -59.223,-6.111c-20.087,-4.074 -39.828,-10.304 -59.223,-18.692c-19.395,-8.387 -38.097,-19.051 -56.106,-31.991l44.33,-81.236c12.007,9.106 25.052,17.134 39.136,24.083c14.084,6.95 28.284,12.341 42.599,16.176c14.316,3.834 27.476,5.751 39.483,5.751c12.006,-0 24.128,-1.797 36.365,-5.392c12.237,-3.594 22.396,-9.705 30.477,-18.332c8.081,-8.627 12.122,-20.609 12.122,-35.945c-0,-10.544 -3.348,-20.13 -10.044,-28.756c-6.696,-8.627 -15.7,-16.535 -27.014,-23.724c-11.314,-7.189 -23.666,-13.42 -37.058,-18.692c-15.7,-6.23 -31.863,-13.419 -48.487,-21.567c-16.624,-8.148 -32.209,-18.092 -46.755,-29.835c-14.546,-11.742 -26.321,-26.359 -35.326,-43.853c-9.005,-17.493 -13.507,-38.94 -13.507,-64.342c-0,-30.673 6.58,-57.273 19.741,-79.798c13.161,-22.526 31.747,-40.379 55.76,-53.559c24.013,-13.18 51.719,-20.488 83.12,-21.926c41.099,-0 74.462,5.032 100.091,15.097c25.629,10.064 48.602,22.046 68.921,35.945l-38.097,79.798Z" style="fill:#fff;fill-rule:nonzero;"/><path d="M1053.43,903.818c-0,-36.424 6.696,-70.932 20.087,-103.522c13.392,-32.59 31.979,-61.466 55.76,-86.628c23.782,-25.162 51.373,-44.932 82.774,-59.31c31.401,-14.378 65.111,-21.567 101.13,-21.567c35.557,0 69.036,7.189 100.437,21.567c31.401,14.378 59.223,34.148 83.467,59.31c24.243,25.162 43.176,54.038 56.799,86.628c13.622,32.59 20.434,67.098 20.434,103.522c-0,37.383 -6.812,72.37 -20.434,104.96c-13.623,32.591 -32.556,61.227 -56.799,85.91c-24.244,24.682 -52.066,43.973 -83.467,57.871c-31.401,13.899 -64.88,20.849 -100.437,20.849c-36.019,-0 -69.729,-6.95 -101.13,-20.849c-31.401,-13.898 -58.992,-33.189 -82.774,-57.871c-23.781,-24.683 -42.368,-53.319 -55.76,-85.91c-13.391,-32.59 -20.087,-67.577 -20.087,-104.96Zm103.9,0c0,23.485 4.041,45.411 12.122,65.78c8.081,20.369 19.395,38.342 33.941,53.918c14.546,15.576 31.401,27.678 50.565,36.305c19.164,8.627 40.059,12.94 62.686,12.94c21.704,-0 41.907,-4.313 60.609,-12.94c18.702,-8.627 34.98,-20.729 48.833,-36.305c13.854,-15.576 24.705,-33.549 32.556,-53.918c7.85,-20.369 11.775,-42.295 11.775,-65.78c0,-23.963 -4.04,-46.249 -12.122,-66.858c-8.081,-20.608 -19.163,-38.701 -33.248,-54.277c-14.084,-15.576 -30.593,-27.678 -49.526,-36.305c-18.933,-8.627 -39.482,-12.94 -61.647,-12.94c-22.166,-0 -42.715,4.313 -61.648,12.94c-18.933,8.627 -35.557,20.729 -49.872,36.305c-14.315,15.576 -25.398,33.669 -33.248,54.277c-7.85,20.609 -11.776,42.895 -11.776,66.858Z" style="fill:#fff;fill-rule:nonzero;"/><path d="M2131.23,1189.22l-386.51,-362.329l29.785,17.254l2.078,323.507l-101.822,0l-0,-549.962l4.156,0l378.197,360.89l-22.165,-10.064l-2.078,-329.978l101.13,0l-0,550.682l-2.771,-0Z" style="fill:#fff;fill-rule:nonzero;"/></g><g><path d="M1566.22,1389.23l-0,102.121l353.839,0c-0,0 213.473,-3.179 213.473,-204.607c-0,-0 0.001,98.087 -191.541,98.087l-375.771,4.399Z" style="fill:#fff;"/><path d="M568.09,1389.23l-0,102.121l-353.839,0c-0,0 -213.474,-3.179 -213.474,-204.607c0,-0 -0,98.087 191.541,98.087l375.772,4.399Z" style="fill:#fff;"/></g></g></g></svg>