<?xml version="1.0" encoding="UTF-8" standalone="no"?><!DOCTYPE svg PUBLIC "-//W3C//DTD SVG 1.1//EN" "http://www.w3.org/Graphics/SVG/1.1/DTD/svg11.dtd"><svg width="100%" height="100%" viewBox="0 0 2136 2136" version="1.1" xmlns="http://www.w3.org/2000/svg" xmlns:xlink="http://www.w3.org/1999/xlink" xml:space="preserve" xmlns:serif="http://www.serif.com/" style="fill-rule:evenodd;clip-rule:evenodd;stroke-linejoin:round;stroke-miterlimit:2;"><rect id="logo_black" x="0.978" y="0.875" width="2133.33" height="2133.33" style="fill:none;"/><clipPath id="_clip1"><rect x="0.978" y="0.875" width="2133.33" height="2133.33"/></clipPath><g clip-path="url(#_clip1)"><g><g><path d="M752.894,1390.22c-6.085,-3.352 -12.279,-6.121 -18.581,-8.307c-6.302,-2.186 -12.206,-3.279 -17.711,-3.279c-6.809,-0 -12.17,1.384 -16.082,4.153c-3.911,2.769 -5.867,6.923 -5.867,12.461c-0,3.789 1.485,7.177 4.455,10.165c2.97,2.987 6.809,5.647 11.518,7.979c4.708,2.332 9.598,4.445 14.668,6.339c4.637,1.749 9.236,3.826 13.8,6.231c4.564,2.404 8.656,5.392 12.278,8.962c3.622,3.571 6.52,8.016 8.693,13.335c2.173,5.32 3.26,11.841 3.26,19.565c-0,8.162 -2.101,15.74 -6.302,22.735c-4.202,6.995 -10.359,12.643 -18.472,16.942c-8.113,4.299 -18.11,6.449 -29.99,6.449c-6.085,-0 -12.278,-0.62 -18.58,-1.858c-6.303,-1.239 -12.496,-3.134 -18.581,-5.684c-6.085,-2.55 -11.952,-5.793 -17.603,-9.728l13.909,-24.702c3.766,2.769 7.859,5.21 12.278,7.323c4.419,2.113 8.874,3.753 13.365,4.919c4.491,1.165 8.62,1.748 12.387,1.748c3.767,0 7.57,-0.546 11.409,-1.639c3.839,-1.093 7.027,-2.951 9.562,-5.574c2.535,-2.624 3.803,-6.267 3.803,-10.931c0,-3.206 -1.05,-6.121 -3.151,-8.744c-2.101,-2.623 -4.926,-5.028 -8.475,-7.214c-3.55,-2.186 -7.425,-4.08 -11.627,-5.683c-4.926,-1.895 -9.996,-4.081 -15.212,-6.559c-5.216,-2.477 -10.105,-5.501 -14.669,-9.072c-4.563,-3.57 -8.258,-8.015 -11.083,-13.334c-2.825,-5.32 -4.238,-11.842 -4.238,-19.566c0,-9.327 2.065,-17.415 6.194,-24.265c4.129,-6.849 9.96,-12.278 17.494,-16.286c7.534,-4.007 16.226,-6.23 26.078,-6.667c12.894,0 23.361,1.53 31.402,4.591c8.041,3.06 15.248,6.704 21.623,10.93l-11.952,24.265Z" style="fill-rule:nonzero;"/><path d="M789.302,1351.31l107.789,0l-0,30.605l-38.9,-0l0,130.288l-31.51,-0l-0,-130.288l-37.379,-0l0,-30.605Z" style="fill-rule:nonzero;"/><path d="M955.766,1452.74c0,5.1 1.521,9.983 4.564,14.646c3.042,4.664 7.063,8.453 12.061,11.368c4.998,2.914 10.467,4.372 16.407,4.372c6.52,-0 12.315,-1.458 17.386,-4.372c5.07,-2.915 9.091,-6.704 12.061,-11.368c2.97,-4.663 4.455,-9.546 4.455,-14.646l-0,-101.433l31.076,0l-0,102.088c-0,11.805 -2.898,22.262 -8.693,31.37c-5.795,9.109 -13.618,16.25 -23.47,21.423c-9.852,5.174 -20.79,7.761 -32.815,7.761c-11.88,-0 -22.709,-2.587 -32.488,-7.761c-9.78,-5.173 -17.567,-12.314 -23.362,-21.423c-5.795,-9.108 -8.693,-19.565 -8.693,-31.37l0,-102.088l31.511,0l0,101.433Z" style="fill-rule:nonzero;"/><path d="M1091.81,1512.2l0,-160.893l47.81,0c16.081,0 29.772,2.405 41.072,7.214c11.301,4.81 20.392,11.222 27.274,19.238c6.881,8.015 11.916,16.978 15.103,26.888c3.187,9.91 4.781,19.893 4.781,29.949c-0,11.95 -2.137,22.698 -6.411,32.244c-4.274,9.545 -10.105,17.707 -17.494,24.483c-7.389,6.777 -15.936,11.951 -25.643,15.521c-9.707,3.571 -19.993,5.356 -30.859,5.356l-55.633,-0Zm31.511,-30.605l18.689,0c7.968,0 15.212,-1.056 21.732,-3.169c6.519,-2.114 12.133,-5.21 16.842,-9.291c4.708,-4.081 8.33,-9.218 10.865,-15.412c2.536,-6.193 3.804,-13.298 3.804,-21.314c-0,-10.492 -1.703,-19.054 -5.107,-25.685c-3.405,-6.631 -7.606,-11.769 -12.605,-15.412c-4.998,-3.643 -10.105,-6.157 -15.321,-7.542c-5.215,-1.384 -9.634,-2.077 -13.256,-2.077l-25.643,0l-0,99.902Z" style="fill-rule:nonzero;"/><rect x="1259.36" y="1351.31" width="31.511" height="160.892" style="fill-rule:nonzero;"/><path d="M1322.38,1431.97c0,-11.076 2.101,-21.569 6.303,-31.479c4.201,-9.91 10.032,-18.69 17.494,-26.341c7.461,-7.652 16.117,-13.663 25.969,-18.035c9.851,-4.372 20.428,-6.558 31.728,-6.558c11.155,-0 21.659,2.186 31.511,6.558c9.851,4.372 18.58,10.383 26.186,18.035c7.606,7.651 13.546,16.431 17.82,26.341c4.274,9.91 6.411,20.403 6.411,31.479c0,11.368 -2.137,22.006 -6.411,31.916c-4.274,9.91 -10.214,18.618 -17.82,26.124c-7.606,7.505 -16.335,13.371 -26.186,17.597c-9.852,4.227 -20.356,6.34 -31.511,6.34c-11.3,-0 -21.877,-2.113 -31.728,-6.34c-9.852,-4.226 -18.508,-10.092 -25.969,-17.597c-7.462,-7.506 -13.293,-16.214 -17.494,-26.124c-4.202,-9.91 -6.303,-20.548 -6.303,-31.916Zm32.598,0c-0,7.141 1.268,13.809 3.803,20.003c2.535,6.193 6.085,11.658 10.648,16.395c4.564,4.736 9.852,8.416 15.864,11.039c6.013,2.624 12.569,3.935 19.668,3.935c6.809,0 13.147,-1.311 19.015,-3.935c5.867,-2.623 10.974,-6.303 15.32,-11.039c4.347,-4.737 7.751,-10.202 10.214,-16.395c2.463,-6.194 3.695,-12.862 3.695,-20.003c-0,-7.287 -1.268,-14.063 -3.803,-20.33c-2.536,-6.267 -6.013,-11.768 -10.432,-16.504c-4.418,-4.737 -9.598,-8.417 -15.538,-11.04c-5.94,-2.623 -12.387,-3.935 -19.341,-3.935c-6.954,0 -13.401,1.312 -19.341,3.935c-5.94,2.623 -11.155,6.303 -15.647,11.04c-4.491,4.736 -7.968,10.237 -10.431,16.504c-2.463,6.267 -3.694,13.043 -3.694,20.33Z" style="fill-rule:nonzero;"/></g><g><path d="M150.582,638.541c53.104,0 95.355,11.143 126.755,33.428c31.4,22.286 47.101,55.474 47.101,99.566c-0,32.589 -7.735,59.787 -23.204,81.593c-15.469,21.806 -36.48,38.101 -63.031,48.884c-26.552,10.784 -56.913,16.175 -91.084,16.175l-15.931,-56.073c42.021,0 79.309,5.991 111.863,17.972c32.555,11.982 58.298,29.115 77.231,51.401c18.932,22.285 28.398,49.004 28.398,80.155c0,28.756 -4.964,53.078 -14.892,72.967c-9.928,19.889 -23.319,35.944 -40.173,48.165c-16.855,12.221 -35.903,21.088 -57.144,26.599c-21.241,5.511 -43.175,8.267 -65.802,8.267l-169.699,0l-0,-529.099l149.612,0Zm11.775,216.384c19.856,0 34.517,-6.23 43.984,-18.691c9.466,-12.46 14.199,-26.598 14.199,-42.414c0,-18.212 -5.888,-31.87 -17.663,-40.976c-11.775,-9.106 -27.59,-13.659 -47.446,-13.659l-54.027,-0l0,115.74l60.953,0Zm3.464,215.666c14.776,-0 28.167,-2.037 40.173,-6.111c12.006,-4.073 21.473,-10.543 28.399,-19.41c6.927,-8.866 10.39,-20.009 10.39,-33.428c-0,-15.336 -4.156,-26.958 -12.468,-34.866c-8.312,-7.907 -19.048,-13.419 -32.208,-16.534c-13.161,-3.115 -26.898,-4.673 -41.213,-4.673l-57.49,0l0,115.022l64.417,-0Z" style="fill-rule:nonzero;"/><rect x="449.115" y="638.541" width="100.434" height="529.099" style="fill-rule:nonzero;"/><path d="M953.364,766.503c-19.394,-11.023 -39.135,-20.129 -59.222,-27.318c-20.087,-7.189 -38.904,-10.783 -56.451,-10.783c-21.703,-0 -38.788,4.553 -51.256,13.658c-12.467,9.106 -18.701,22.765 -18.701,40.977c-0,12.461 4.733,23.603 14.199,33.428c9.466,9.825 21.703,18.571 36.71,26.239c15.008,7.668 30.593,14.618 46.754,20.848c14.777,5.751 29.438,12.58 43.984,20.488c14.545,7.908 27.59,17.733 39.134,29.474c11.545,11.742 20.78,26.36 27.706,43.852c6.927,17.493 10.39,38.94 10.39,64.341c0,26.838 -6.695,51.759 -20.087,74.764c-13.391,23.004 -33.016,41.575 -58.875,55.713c-25.859,14.138 -57.721,21.207 -95.586,21.207c-19.394,0 -39.134,-2.037 -59.221,-6.11c-20.087,-4.074 -39.828,-10.304 -59.222,-18.691c-19.394,-8.387 -38.096,-19.051 -56.105,-31.991l44.33,-81.234c12.006,9.106 25.051,17.134 39.135,24.083c14.084,6.949 28.283,12.341 42.598,16.175c14.315,3.834 27.475,5.751 39.481,5.751c12.006,0 24.127,-1.797 36.364,-5.392c12.237,-3.594 22.396,-9.705 30.477,-18.331c8.08,-8.627 12.121,-20.608 12.121,-35.944c-0,-10.544 -3.348,-20.129 -10.043,-28.756c-6.696,-8.626 -15.701,-16.534 -27.014,-23.723c-11.313,-7.189 -23.665,-13.419 -37.057,-18.691c-15.7,-6.23 -31.862,-13.419 -48.485,-21.567c-16.624,-8.147 -32.208,-18.091 -46.754,-29.833c-14.546,-11.742 -26.321,-26.359 -35.325,-43.852c-9.005,-17.493 -13.507,-38.94 -13.507,-64.34c0,-30.673 6.58,-57.272 19.741,-79.797c13.16,-22.525 31.746,-40.377 55.758,-53.557c24.012,-13.179 51.718,-20.488 83.118,-21.925c41.097,-0 74.46,5.032 100.088,15.096c25.628,10.064 48.601,22.046 68.919,35.944l-38.096,79.797Z" style="fill-rule:nonzero;"/><path d="M1053.8,903.81c0,-36.424 6.696,-70.93 20.087,-103.52c13.391,-32.589 31.977,-61.465 55.758,-86.626c23.781,-25.16 51.372,-44.93 82.772,-59.307c31.4,-14.378 65.109,-21.567 101.127,-21.567c35.556,-0 69.034,7.189 100.434,21.567c31.4,14.377 59.222,34.147 83.465,59.307c24.242,25.161 43.175,54.037 56.797,86.626c13.622,32.59 20.433,67.096 20.433,103.52c0,37.382 -6.811,72.367 -20.433,104.957c-13.622,32.589 -32.555,61.225 -56.797,85.906c-24.243,24.682 -52.065,43.972 -83.465,57.871c-31.4,13.898 -64.878,20.847 -100.434,20.847c-36.018,0 -69.727,-6.949 -101.127,-20.847c-31.4,-13.899 -58.991,-33.189 -82.772,-57.871c-23.781,-24.681 -42.367,-53.317 -55.758,-85.906c-13.391,-32.59 -20.087,-67.575 -20.087,-104.957Zm103.898,-0c-0,23.483 4.04,45.409 12.121,65.777c8.081,20.369 19.394,38.341 33.94,53.917c14.546,15.576 31.4,27.677 50.563,36.304c19.164,8.626 40.059,12.939 62.685,12.939c21.703,0 41.906,-4.313 60.607,-12.939c18.702,-8.627 34.979,-20.728 48.832,-36.304c13.853,-15.576 24.705,-33.548 32.555,-53.917c7.85,-20.368 11.775,-42.294 11.775,-65.777c-0,-23.963 -4.041,-46.249 -12.122,-66.857c-8.081,-20.608 -19.163,-38.7 -33.247,-54.276c-14.084,-15.575 -30.592,-27.677 -49.524,-36.303c-18.933,-8.627 -39.482,-12.94 -61.646,-12.94c-22.165,-0 -42.714,4.313 -61.646,12.94c-18.933,8.626 -35.556,20.728 -49.871,36.303c-14.315,15.576 -25.397,33.668 -33.247,54.276c-7.85,20.608 -11.775,42.894 -11.775,66.857Z" style="fill-rule:nonzero;"/><path d="M2131.56,1189.21l-386.499,-362.318l29.784,17.253l2.078,323.498l-101.82,0l0,-549.947l4.156,0l378.187,360.881l-22.164,-10.065l-2.078,-329.968l101.127,0l-0,550.666l-2.771,-0Z" style="fill-rule:nonzero;"/></g><g><path d="M1566.57,1389.21l-0,102.119l353.829,-0c-0,-0 213.467,-3.18 213.467,-204.602c-0,-0 0.001,98.084 -191.536,98.084l-375.76,4.399Z"/><path d="M568.469,1389.21l0,102.119l-353.829,-0c0,-0 -213.467,-3.18 -213.467,-204.602c0,-0 -0.001,98.084 191.536,98.084l375.76,4.399Z"/></g></g></g></svg>