<?xml version="1.0" encoding="UTF-8" standalone="no"?><!DOCTYPE svg PUBLIC "-//W3C//DTD SVG 1.1//EN" "http://www.w3.org/Graphics/SVG/1.1/DTD/svg11.dtd"><svg width="100%" height="100%" viewBox="0 0 4271 967" version="1.1" xmlns="http://www.w3.org/2000/svg" xmlns:xlink="http://www.w3.org/1999/xlink" xml:space="preserve" xmlns:serif="http://www.serif.com/" style="fill-rule:evenodd;clip-rule:evenodd;stroke-linejoin:round;stroke-miterlimit:2;"><rect id="zielonewidoki" x="0.322" y="1.962" width="4266.67" height="963.767" style="fill:none;"/><g><path d="M2383.43,754.848l-130.624,0l0,-364.652l130.624,-0l-0,13.07l-117.554,-0l-0,338.514l117.554,-0l-0,13.068Z" style="fill:#fff;fill-rule:nonzero;"/><rect x="2259.34" y="598.561" width="103.407" height="13.069" style="fill:#fff;"/><path d="M2180.64,755.569l-256.213,-326.398l-0,325.4l-12.301,0l0,-361.915l256.213,326.399l-0,-328.859l12.301,0l0,365.373Z" style="fill:#fff;fill-rule:nonzero;"/><path d="M392.559,190.734l-0,-155.239l-270.542,162.212l0,116.783l164.543,-96.932l0,532.576l45.311,0l0,-595.532l60.688,36.132Z" style="fill:#fff;fill-rule:nonzero;"/><path d="M122.017,314.49l-105.998,62.444l-0,555.263l270.542,-0l-0,-182.063l-164.544,-0l0,-435.644Z" style="fill:#fff;fill-rule:nonzero;"/><path d="M122.017,314.49l0,435.644l164.544,-0l-0,-532.576l-164.544,96.932Z" style="fill:#fff;fill-rule:nonzero;"/><path d="M972.961,754.848l-185.304,0l174.758,-351.582l-164.212,-0l0,-13.07l185.303,-0l-174.757,351.584l164.212,-0l-0,13.068Z" style="fill:#fff;fill-rule:nonzero;"/><rect x="1036.74" y="390.138" width="13.069" height="364.704" style="fill:#fff;"/><rect x="3142.11" y="390.138" width="13.069" height="364.704" style="fill:#fff;"/><rect x="3142.11" y="390.138" width="13.069" height="364.704" style="fill:#fff;"/><path d="M1264.57,754.848l-130.623,0l0,-364.652l130.623,-0l0,13.07l-117.553,-0l-0,338.514l117.553,-0l0,13.068Z" style="fill:#fff;fill-rule:nonzero;"/><rect x="1140.48" y="598.561" width="103.408" height="13.069" style="fill:#fff;"/><path d="M1451.74,754.848l-122.092,0l-0,-364.709l13.069,-0l0,351.641l109.023,-0l-0,13.068Z" style="fill:#fff;fill-rule:nonzero;"/><path d="M3691.21,403.555c-93.447,-0 -169.473,76.025 -169.473,169.472c-0,93.448 76.026,169.473 169.473,169.473c93.447,-0 169.473,-76.025 169.473,-169.473c0,-93.447 -76.026,-169.472 -169.473,-169.472m0,352.014c-48.759,0 -94.599,-18.988 -129.076,-53.466c-34.478,-34.477 -53.466,-80.318 -53.466,-129.076c-0,-48.759 18.988,-94.599 53.466,-129.077c34.477,-34.477 80.317,-53.464 129.076,-53.464c48.758,-0 94.599,18.987 129.076,53.464c34.479,34.478 53.466,80.318 53.466,129.077c-0,48.758 -18.987,94.599 -53.466,129.076c-34.477,34.478 -80.318,53.466 -129.076,53.466" style="fill:#fff;fill-rule:nonzero;"/><path d="M3691.21,403.555c-93.447,-0 -169.473,76.025 -169.473,169.472c-0,93.448 76.026,169.473 169.473,169.473c93.447,-0 169.473,-76.025 169.473,-169.473c0,-93.447 -76.026,-169.472 -169.473,-169.472m0,352.014c-48.759,0 -94.599,-18.988 -129.076,-53.466c-34.478,-34.477 -53.466,-80.318 -53.466,-129.076c-0,-48.759 18.988,-94.599 53.466,-129.077c34.477,-34.477 80.317,-53.464 129.076,-53.464c48.758,-0 94.599,18.987 129.076,53.464c34.479,34.478 53.466,80.318 53.466,129.077c-0,48.758 -18.987,94.599 -53.466,129.076c-34.477,34.478 -80.318,53.466 -129.076,53.466" style="fill:#fff;fill-rule:nonzero;"/><path d="M3691.21,403.555c-93.447,-0 -169.473,76.025 -169.473,169.472c-0,93.448 76.026,169.473 169.473,169.473c93.447,-0 169.473,-76.025 169.473,-169.473c0,-93.447 -76.026,-169.472 -169.473,-169.472Zm0,352.014c-48.759,0 -94.599,-18.988 -129.076,-53.466c-34.478,-34.477 -53.466,-80.318 -53.466,-129.076c-0,-48.759 18.988,-94.599 53.466,-129.077c34.477,-34.477 80.317,-53.464 129.076,-53.464c48.758,-0 94.599,18.987 129.076,53.464c34.479,34.478 53.466,80.318 53.466,129.077c-0,48.758 -18.987,94.599 -53.466,129.076c-34.477,34.478 -80.318,53.466 -129.076,53.466Z" style="fill:#fff;fill-rule:nonzero;"/><path d="M1651.31,403.555c-93.447,-0 -169.472,76.025 -169.472,169.472c-0,93.448 76.025,169.473 169.472,169.473c93.448,-0 169.472,-76.025 169.472,-169.473c0,-93.447 -76.024,-169.472 -169.472,-169.472m0,352.014c-48.759,0 -94.599,-18.988 -129.076,-53.466c-34.478,-34.477 -53.466,-80.318 -53.466,-129.076c0,-48.759 18.988,-94.599 53.466,-129.077c34.477,-34.477 80.317,-53.464 129.076,-53.464c48.759,-0 94.599,18.987 129.076,53.465c34.479,34.477 53.466,80.317 53.466,129.076c-0,48.758 -18.987,94.599 -53.466,129.076c-34.477,34.478 -80.316,53.466 -129.076,53.466" style="fill:#fff;fill-rule:nonzero;"/><path d="M3263.76,403.679l0,338.696c90.429,-3.449 162.938,-78.091 162.938,-169.348c0,-91.257 -72.509,-165.899 -162.938,-169.348m-6.535,351.89l-6.534,-0l-0,-365.083l6.534,-0c48.759,-0 94.6,18.987 129.077,53.464c34.477,34.478 53.466,80.318 53.466,129.077c-0,48.759 -18.989,94.599 -53.466,129.077c-34.477,34.477 -80.318,53.465 -129.077,53.465" style="fill:#fff;fill-rule:nonzero;"/><path d="M3263.76,403.679l0,338.696c90.429,-3.449 162.938,-78.091 162.938,-169.348c0,-91.257 -72.509,-165.899 -162.938,-169.348Zm-6.535,351.89l-6.534,-0l-0,-365.083l6.534,-0c48.759,-0 94.6,18.987 129.077,53.464c34.477,34.478 53.466,80.318 53.466,129.077c-0,48.759 -18.989,94.599 -53.466,129.077c-34.477,34.477 -80.318,53.465 -129.077,53.465Z" style="fill:#fff;fill-rule:nonzero;"/><path d="M2764.06,741.135l-145.452,-348.323l-14.163,0l159.435,381.811l164.266,-381.811l-14.227,0l-149.859,348.323Z" style="fill:#fff;fill-rule:nonzero;"/><path d="M2764.06,741.135l-145.452,-348.323l-14.163,0l159.435,381.811l164.266,-381.811l-14.227,0l-149.859,348.323Z" style="fill:#fff;fill-rule:nonzero;"/><path d="M2604.38,392.657l0.065,0.155l14.163,0" style="fill:#fff;fill-rule:nonzero;"/><path d="M2919.95,741.135l-145.463,-348.349l-14.162,0l159.446,381.837l164.275,-381.837l-14.226,0l-149.87,348.349Z" style="fill:#fff;fill-rule:nonzero;"/><path d="M2919.95,741.135l-145.463,-348.349l-14.162,0l159.446,381.837l164.275,-381.837l-14.226,0l-149.87,348.349Z" style="fill:#fff;fill-rule:nonzero;"/><path d="M392.559,190.734l-0,559.4l-60.688,0l0,119.106l270.542,0l0,-553.561l-209.854,-124.945Z" style="fill:#fff;fill-rule:nonzero;"/><path d="M392.559,190.734l-60.688,-36.132l0,595.532l60.688,0l-0,-559.4Z" style="fill:#fff;fill-rule:nonzero;"/><rect x="3945.58" y="390.138" width="13.069" height="364.704" style="fill:#fff;"/><rect x="3945.58" y="390.138" width="13.069" height="364.704" style="fill:#fff;"/><rect x="4238.22" y="390.138" width="13.069" height="364.704" style="fill:#fff;"/><rect x="4238.22" y="390.138" width="13.069" height="364.704" style="fill:#fff;"/><path d="M4161.69,754.842l-214.093,-219.473c-2.806,-2.873 -2.49,-7.547 0.676,-10.019l173.15,-135.212l21.236,-0l-180.773,141.164l218.061,223.54l-18.257,-0Z" style="fill:#fff;fill-rule:nonzero;"/><path d="M4161.69,754.842l-214.093,-219.473c-2.806,-2.873 -2.49,-7.547 0.676,-10.019l173.15,-135.212l21.236,-0l-180.773,141.164l218.061,223.54l-18.257,-0Z" style="fill:#fff;fill-rule:nonzero;"/></g></svg>