<?xml version="1.0" encoding="UTF-8" standalone="no"?><!DOCTYPE svg PUBLIC "-//W3C//DTD SVG 1.1//EN" "http://www.w3.org/Graphics/SVG/1.1/DTD/svg11.dtd"><svg width="100%" height="100%" viewBox="0 0 4271 2363" version="1.1" xmlns="http://www.w3.org/2000/svg" xmlns:xlink="http://www.w3.org/1999/xlink" xml:space="preserve" xmlns:serif="http://www.serif.com/" style="fill-rule:evenodd;clip-rule:evenodd;stroke-linejoin:round;stroke-miterlimit:2;"><rect id="ats" x="3.303" y="0" width="4266.67" height="2359.36" style="fill:none;"/><g><path d="M2048.41,1866.51c90.107,0 163.263,73.156 163.263,163.263c-0,90.108 -73.156,163.263 -163.263,163.263c-90.107,0 -163.263,-73.155 -163.263,-163.263c0,-90.107 73.156,-163.263 163.263,-163.263Zm0,46.7c64.333,0 116.563,52.23 116.563,116.563c0,64.333 -52.23,116.564 -116.563,116.564c-64.333,-0 -116.563,-52.231 -116.563,-116.564c-0,-64.333 52.23,-116.563 116.563,-116.563Z" style="fill:#fff;"/><path d="M4080.17,1873.95c85.463,0 154.848,69.385 154.848,154.848c-0,85.463 -69.385,154.849 -154.848,154.849c-85.463,-0 -154.848,-69.386 -154.848,-154.849c-0,-85.463 69.385,-154.848 154.848,-154.848Zm-0,46.7c59.689,-0 108.148,48.46 108.148,108.148c0,59.689 -48.459,108.149 -108.148,108.149c-59.689,-0 -108.149,-48.46 -108.149,-108.149c0,-59.688 48.46,-108.148 108.149,-108.148Z" style="fill:#fff;"/><path d="M2310.5,2200.81l0,-238.763c4.016,-9.887 25.695,-53.545 95.467,-53.545c31.149,0 52.523,13.865 66.958,30.537c18.615,21.586 28.855,49.142 28.855,77.646c0.233,48.315 0.233,161.276 0.233,161.276l-0,19.369l38.737,-0l0,-19.369c0,0 0,-113.046 -0.232,-161.34c-0.016,-37.776 -13.596,-74.29 -38.27,-102.896c-20.772,-23.999 -51.492,-43.96 -96.281,-43.96c-111.59,-0 -133.471,83.685 -133.471,83.685l-0.733,5.28l-0,242.08l38.737,-0Z" style="fill:#fff;"/><path d="M3616.47,2181.44l0,-222.711c0,0 19.719,-69.597 114.835,-69.597c37.974,0 64.022,16.917 81.615,37.243c21.655,25.105 33.568,57.155 33.568,90.309c0.232,48.25 0.232,161.276 0.232,161.276" style="fill:none;"/><path d="M3635.84,2200.81l0,-238.763c4.015,-9.887 25.695,-53.545 95.466,-53.545c31.15,0 52.524,13.865 66.959,30.537c18.614,21.586 28.855,49.142 28.855,77.646c0.233,48.315 0.232,161.276 0.232,161.276l0,19.369l38.738,-0l0,-19.369c0,0 -0,-113.046 -0.233,-161.34c-0.015,-37.776 -13.595,-74.29 -38.27,-102.896c-20.772,-23.999 -51.492,-43.96 -96.281,-43.96c-111.59,-0 -133.47,83.685 -133.47,83.685l-0.734,5.28l0,242.08l38.738,-0Z" style="fill:#fff;"/><path d="M3066.13,1867.5l-0,238.763c-4.016,9.887 -25.695,53.545 -95.466,53.545c-31.15,-0 -52.524,-13.865 -66.959,-30.537c-18.614,-21.586 -28.855,-49.142 -28.855,-77.646c-0.233,-48.315 -0.233,-161.276 -0.233,-161.276l0,-19.369l-38.737,0l-0,19.369c-0,-0 -0,113.046 0.233,161.34c0.015,37.775 13.595,74.29 38.269,102.896c20.773,23.999 51.493,43.96 96.282,43.96c111.59,0 133.47,-83.686 133.47,-83.686l0.734,-5.28l-0,-242.079l-38.738,0Z" style="fill:#fff;"/><path d="M2310.66,1962.42l0,-104.73l-38.737,0l-0,104.73l38.737,0Z" style="fill:#fff;"/><path d="M3635.99,1962.42l0,-104.73l-38.738,0l0,104.73l38.738,0Z" style="fill:#fff;"/><path d="M3197.3,2163.06l-0,-375.071" style="fill:none;"/><path d="M3216.66,2182.43l-0,-413.809l-38.738,-0l0,413.809l38.738,-0Z" style="fill:#fff;"/><path d="M3345.91,2163.06l0,-375.071" style="fill:none;"/><path d="M3365.28,2182.43l0,-413.809l-38.737,-0l-0,413.809l38.737,-0Z" style="fill:#fff;"/><path d="M3502.55,2163.8l-0,-269.655" style="fill:none;"/><path d="M3521.92,2183.17l-0,-308.393l-38.738,0l0,308.393l38.738,0Z" style="fill:#fff;"/><path d="M3502.55,1820.83l-0,-41.006" style="fill:none;"/><path d="M3521.92,1840.19l-0,-79.743l-38.738,-0l0,79.743l38.738,0Z" style="fill:#fff;"/><path d="M3417.17,1894.01l-140.298,-0" style="fill:none;"/><path d="M3436.54,1874.64l-179.035,0l-0,38.738l179.035,-0l-0,-38.738Z" style="fill:#fff;"/><path d="M4207.56,1876.44l33.804,0l0,312.192c0,0 -15.245,106.715 -147.811,106.715c-132.565,0 -152.45,-102.075 -152.45,-102.075l35.13,-0c-0,-0 2.651,66.945 114.669,66.945c112.018,0 115.995,-84.179 115.995,-84.179l0.663,-299.598Z" style="fill:#fff;"/><path d="M4207.56,1876.44l33.804,0l0,312.192c0,0 -15.245,106.715 -147.811,106.715c-132.565,0 -152.45,-102.075 -152.45,-102.075l35.13,-0c-0,-0 2.651,66.945 114.669,66.945c112.018,0 115.995,-84.179 115.995,-84.179l0.663,-299.598Z" style="fill:#fff;"/><path d="M1113.74,1474.73l269.772,-635.486l71.289,0l270.73,634.854l-66.516,-0l-93.938,-213.273l-294.572,0l-92.173,214.752l-64.592,-0.847Zm178.867,-273.901l125.46,-287.297l123.975,288.782l-249.435,-1.485Z" style="fill:#fff;"/><path d="M1872.65,1474.81l-0,-581.831l-144.762,-0l-0,-50.11l350.769,-0l0,50.11l-142.906,-0l0,581.831l-63.101,0Z" style="fill:#fff;"/><path d="M2528.98,999.982c-0,-0 -5.8,-169.643 -178.343,-169.643c-172.542,0 -173.82,156.583 -173.82,164.007c-0,7.424 -20.415,130.843 155.897,166.105c176.313,35.263 146.432,130.719 146.432,160.203c-1.294,49.55 -26.375,104.266 -121.377,104.266c-113.007,-0 -128.986,-62.174 -128.986,-128.987l-74.237,0c-0,0 -6.496,189.304 202.295,189.304c170.782,0 181.88,-147.137 181.88,-170.039c0,-140.493 -57.294,-176.071 -212.503,-215.064c-156.603,-39.344 -77.776,-220.516 23.554,-214.296c3.635,0.227 7.279,0.297 10.921,0.21c102.063,-2.318 108.039,111.742 105.647,112.938l62.64,0.996Z" style="fill:#fff;"/><path d="M2773.94,1951.73c-0,0 -2.939,-82.703 -90.367,-82.703c-87.428,0 -88.076,76.337 -88.076,79.956c0,3.619 -10.344,63.787 78.994,80.978c89.338,17.191 74.198,63.727 74.198,78.101c-0.656,24.156 -13.365,50.83 -61.503,50.83c-57.261,0 -65.358,-30.31 -65.358,-62.882l-37.616,-0c0,-0 -3.291,92.288 102.504,92.288c86.536,-0 92.16,-71.732 92.16,-82.897c-0,-68.492 -29.031,-85.836 -107.676,-104.846c-78.398,-18.95 -40.353,-105.391 10.088,-104.542c1.615,0.038 3.231,0.012 4.844,-0.079c54.154,-2.67 57.299,54.718 56.068,55.311l31.74,0.485Z" style="fill:#fff;"/><path d="M1386.3,770.33l-0,-97.992l228.056,-0l-453.439,-636.062l-455.221,634.28l226.274,0l0,99.774l454.33,0Z" style="fill:#fff;"/><path d="M831.085,936.072l-184.989,0l0,-228.055l-636.062,453.439l634.28,455.22l0,-226.274l186.771,0l0,-454.33Z" style="fill:#fff;"/><path d="M931.036,1537.51l0,97.992l-228.056,0l453.439,636.062l455.221,-634.28l-226.274,0l-0,-99.774l-454.33,-0Z" style="fill:#fff;"/><path d="M1574.15,1769.43l-0,408.302l41.758,0l-0,-109.035l49.878,-63.797l140.354,176.312l48.718,0l-155.434,-211.111l158.913,-199.511l-49.877,-0l-191.392,236.63l-1.188,-238.356l-41.73,0.566Z" style="fill:#fff;"/></g></svg>