<?xml version="1.0" encoding="UTF-8" standalone="no"?><!DOCTYPE svg PUBLIC "-//W3C//DTD SVG 1.1//EN" "http://www.w3.org/Graphics/SVG/1.1/DTD/svg11.dtd"><svg width="100%" height="100%" viewBox="0 0 2521 403" version="1.1" xmlns="http://www.w3.org/2000/svg" xmlns:xlink="http://www.w3.org/1999/xlink" xml:space="preserve" xmlns:serif="http://www.serif.com/" style="fill-rule:evenodd;clip-rule:evenodd;stroke-linejoin:round;stroke-miterlimit:2;"><rect id="Logo_white_94" x="0.223" y="1.299" width="2520.26" height="400.794" style="fill:none;"/><clipPath id="_clip1"><rect x="0.223" y="1.299" width="2520.26" height="400.794"/></clipPath><g clip-path="url(#_clip1)"><g><text x="175.924px" y="300.581px" style="font-family:'Cormorant-Light', 'Cormorant';font-weight:300;font-size:319.094px;fill:#f1f1f1;">B<tspan x="354.297px 462.789px 636.057px 808.368px 1034.29px 1268.82px 1464.11px 1540.37px 1702.79px 1928.71px 2144.73px " y="300.581px 300.581px 300.581px 300.581px 300.581px 300.581px 300.581px 300.581px 300.581px 300.581px 300.581px ">IELANY PARK</tspan></text><path d="M0.223,7.474l2520.26,0" style="fill:none;"/><path d="M0.223,7.636c-0,-0 117.783,0.687 302.431,1.579c125.618,0.607 282.176,1.362 453.649,2.013c81.231,0.309 165.808,0.587 252.026,0.797c82.995,0.202 167.51,0.387 252.025,0.43c67.465,0.034 134.93,-0.015 201.621,-0.14c103.647,-0.192 205.424,-0.56 302.43,-0.916c108.073,-0.397 210.219,-0.854 302.432,-1.302c269.159,-1.31 453.649,-2.461 453.649,-2.461l-0,-0.324c-0,0 -184.489,-1.151 -453.647,-2.461c-92.213,-0.448 -194.361,-0.905 -302.434,-1.302c-97.006,-0.356 -198.784,-0.724 -302.431,-0.916c-66.691,-0.125 -134.155,-0.174 -201.62,-0.14c-84.516,0.043 -169.031,0.228 -252.026,0.43c-86.218,0.21 -170.794,0.488 -252.025,0.797c-171.472,0.651 -328.029,1.406 -453.647,2.013c-184.649,0.892 -302.433,1.579 -302.433,1.579l-0,0.324Z" style="fill:#f1f1f1;"/><path d="M0.223,394.68l2520.26,-0" style="fill:none;"/><path d="M0.223,394.842c-0,-0 117.783,0.687 302.431,1.579c125.618,0.607 282.176,1.362 453.649,2.013c81.231,0.309 165.808,0.587 252.026,0.796c82.995,0.202 167.51,0.388 252.025,0.431c67.465,0.034 134.93,-0.016 201.621,-0.14c103.647,-0.193 205.424,-0.561 302.43,-0.916c108.073,-0.397 210.219,-0.854 302.432,-1.303c269.159,-1.309 453.649,-2.46 453.649,-2.46l-0,-0.324c-0,-0 -184.489,-1.151 -453.647,-2.461c-92.213,-0.449 -194.361,-0.906 -302.434,-1.302c-97.006,-0.356 -198.784,-0.724 -302.431,-0.917c-66.691,-0.124 -134.155,-0.173 -201.62,-0.139c-84.516,0.043 -169.031,0.228 -252.026,0.43c-86.218,0.21 -170.794,0.488 -252.025,0.796c-171.472,0.652 -328.029,1.407 -453.647,2.013c-184.649,0.892 -302.433,1.58 -302.433,1.58l-0,0.324Z" style="fill:#f1f1f1;"/></g></g></svg>