<?xml version="1.0" encoding="UTF-8" standalone="no"?><!DOCTYPE svg PUBLIC "-//W3C//DTD SVG 1.1//EN" "http://www.w3.org/Graphics/SVG/1.1/DTD/svg11.dtd"><svg width="100%" height="100%" viewBox="0 0 4271 1275" version="1.1" xmlns="http://www.w3.org/2000/svg" xmlns:xlink="http://www.w3.org/1999/xlink" xml:space="preserve" xmlns:serif="http://www.serif.com/" style="fill-rule:evenodd;clip-rule:evenodd;stroke-linejoin:round;stroke-miterlimit:2;"><rect id="danfit" x="0.411" y="1.063" width="4266.67" height="1273.9" style="fill:none;"/><g><g><circle cx="113.943" cy="851.835" r="101.867" style="fill:#fff;"/><circle cx="4155.28" cy="1122.31" r="80.062" style="fill:#fff;"/><circle cx="246.52" cy="1087.53" r="84.13" style="fill:#fff;"/><circle cx="467.005" cy="1138.96" r="67.691" style="fill:#fff;"/></g><g><g><g><path d="M3844.88,644.895c0.345,-1.957 -0.183,-3.967 -1.444,-5.502c-1.261,-1.536 -3.13,-2.443 -5.116,-2.485c-17.418,-0.388 -57.962,-1.272 -64.511,-1.272c-16.664,-0 -44.485,-0 -65.976,-0c-7.559,-0 -14.731,-3.345 -19.589,-9.135c-4.859,-5.791 -6.907,-13.434 -5.595,-20.878l28.883,-163.801c2.155,-12.221 12.774,-21.131 25.184,-21.131c22.08,-0 55.871,-0 74.987,-0c2.958,-0 50.135,0.527 66.799,0.714c3.331,0.036 6.198,-2.344 6.777,-5.625c11.353,-64.388 44.804,-254.098 54.724,-310.357c2.155,-12.221 12.774,-21.131 25.184,-21.131l151.204,-0c7.559,-0 14.731,3.344 19.589,9.135c4.859,5.79 6.907,13.434 5.595,20.878c-10.323,58.54 -40.49,229.626 -52.389,297.109c-0.345,1.959 0.183,3.97 1.446,5.506c1.263,1.536 3.134,2.442 5.122,2.482c18.835,0.376 64.617,1.289 64.617,1.289c17.38,-0 46.982,-0 69.472,-0c7.559,-0 14.731,3.344 19.589,9.134c4.859,5.791 6.907,13.434 5.595,20.879c-9.391,53.257 -20.753,117.692 -28.883,163.8c-2.155,12.221 -12.773,21.132 -25.184,21.132c-22.932,-0 -58.656,-0 -78.484,-0c-2.959,-0 -50.334,-0.295 -67.003,-0.4c-3.319,-0.02 -6.168,2.357 -6.744,5.625c-17.744,100.629 -79.293,449.689 -95.274,540.321c-2.155,12.221 -12.773,21.132 -25.183,21.132c-43.329,-0 -103.834,-0 -151.204,-0c-7.559,-0 -14.731,-3.345 -19.59,-9.135c-4.859,-5.791 -6.907,-13.434 -5.594,-20.878c17.518,-99.349 73.606,-417.442 92.996,-527.406Z" style="fill:#fff;"/><path d="M2942.74,1181.18c-2.155,12.221 -12.774,21.132 -25.184,21.132c-36.37,-0 -110.229,-0 -151.951,-0c-7.559,-0 -14.73,-3.345 -19.589,-9.135c-4.859,-5.791 -6.907,-13.434 -5.594,-20.878c17.987,-102.01 76.646,-434.682 94.633,-536.691c1.312,-7.444 -0.736,-15.088 -5.595,-20.878c-4.858,-5.791 -12.03,-9.135 -19.589,-9.135c-12.185,0 -26.192,0 -38.377,0c-7.559,0 -14.73,-3.344 -19.589,-9.135c-4.859,-5.79 -6.907,-13.433 -5.595,-20.878c7.335,-41.598 20.409,-115.742 26.801,-151.993c2.155,-12.221 12.774,-21.131 25.184,-21.131c17.636,-0 42.371,-0 59.199,-0c11.033,-0.001 20.821,-7.078 24.28,-17.555c7.949,-24.197 23.759,-68.142 41.981,-98.144c26.309,-43.316 58.6,-81.031 96.874,-113.144c38.274,-32.114 80.715,-57.506 127.323,-76.177c34.992,-14.017 58.379,-20.899 88.656,-23.488c7.911,-0.769 15.726,2.205 21.124,8.039c5.398,5.834 7.758,13.856 6.379,21.684c-7.397,42.799 -20.767,118.661 -27.063,154.389c-1.937,10.982 -10.767,19.442 -21.822,20.908c-6.686,0.572 -14.452,2.209 -22.151,5.175c-20.032,7.718 -38.101,18.422 -54.207,32.114c-16.106,13.692 -29.788,29.873 -41.047,48.544c-0.005,0.009 -0.011,0.019 -0.017,0.029c-4.618,7.665 -4.752,17.224 -0.35,25.015c4.402,7.792 12.659,12.611 21.608,12.611c14.67,-0 31.122,-0 44.904,-0c7.559,-0 14.73,3.344 19.589,9.134c4.859,5.791 6.907,13.434 5.595,20.878c-7.335,41.599 -20.409,115.743 -26.801,151.994c-2.155,12.221 -12.774,21.131 -25.184,21.131c-20.439,0 -51.037,0 -71.476,0c-12.41,0 -23.029,8.91 -25.184,21.132c-16.324,92.579 -81.441,461.874 -97.765,554.453Z" style="fill:#fff;"/><path d="M3441.21,1181.18c-2.155,12.222 -12.774,21.132 -25.184,21.132c-36.646,-0 -111.398,-0 -153.444,-0c-7.559,-0 -14.731,-3.345 -19.59,-9.135c-4.859,-5.791 -6.907,-13.434 -5.594,-20.878c22.826,-129.454 112.579,-638.468 132.017,-748.71c2.155,-12.221 12.774,-21.131 25.184,-21.131c36.646,-0 111.398,-0 153.445,-0c7.559,-0 14.73,3.344 19.589,9.134c4.859,5.791 6.907,13.434 5.594,20.879c-22.826,129.454 -112.579,638.468 -132.017,748.709Z" style="fill:#fff;"/><path d="M2065.72,1181.18c-2.155,12.221 -12.774,21.132 -25.184,21.132l-151.951,-0c-7.559,-0 -14.731,-3.345 -19.59,-9.135c-4.858,-5.791 -6.906,-13.434 -5.594,-20.878c15.519,-88.011 60.854,-345.118 77.376,-438.818c4.067,-23.07 10.254,-45.715 18.481,-67.648c0.001,-0.001 0.001,-0.002 0.002,-0.003c25.038,-66.75 67.61,-125.513 123.235,-170.103c11.512,-9.228 19.46,-15.599 19.46,-15.599c38.128,-29.873 79.405,-52.901 123.832,-69.082c44.427,-16.181 89.294,-24.272 134.601,-24.272c48.793,0 93.202,9.336 133.226,28.006c40.024,18.671 73.342,44.312 99.954,76.924c26.612,32.611 45.413,70.7 56.402,114.265c10.989,43.565 12.138,89.993 3.447,139.283c-0,0 -61.015,346.033 -76.866,435.928c-2.155,12.221 -12.774,21.132 -25.184,21.132l-151.951,-0c-7.559,-0 -14.731,-3.345 -19.589,-9.135c-4.859,-5.791 -6.907,-13.434 -5.595,-20.878c17.935,-101.711 75.3,-427.047 75.3,-427.047c3.687,-20.911 3.194,-40.702 -1.48,-59.373c-4.674,-18.67 -12.752,-34.976 -24.235,-48.917c-11.483,-13.941 -25.733,-24.894 -42.75,-32.86c-17.017,-7.967 -35.981,-11.95 -56.892,-11.95c-21.409,0 -42.276,3.983 -62.6,11.95c-20.325,7.966 -38.686,18.919 -55.085,32.86c-16.399,13.941 -30.228,30.247 -41.486,48.917c-11.259,18.671 -18.731,38.462 -22.419,59.373l-76.865,435.928Z" style="fill:#fff;"/><path d="M1744.86,1166.25c-2.155,12.221 -12.774,21.131 -25.184,21.131c-4.258,0 -8.646,0 -12.643,0c-9.363,0 -17.977,-5.117 -22.456,-13.339c-9.506,-17.449 -26.368,-48.402 -38.426,-70.537c-3.517,-6.452 -9.639,-11.079 -16.806,-12.702c-7.167,-1.623 -14.686,-0.084 -20.639,4.223c-15.233,10.987 -30.87,21.481 -46.908,31.489c-24.335,15.185 -49.44,28.379 -75.314,39.581c-25.874,11.203 -51.953,20.04 -78.237,26.513c-26.285,6.472 -52.372,9.709 -78.262,9.709c-56.261,-0 -107.494,-9.46 -153.697,-28.38c-46.204,-18.919 -84.67,-46.428 -115.397,-82.524c-30.728,-36.097 -52.187,-80.285 -64.378,-132.563c-12.192,-52.278 -12.405,-111.775 -0.641,-178.492c10.974,-62.236 31.752,-119.368 62.335,-171.397c30.584,-52.029 67.714,-96.714 111.391,-134.056c43.676,-37.341 92.106,-66.343 145.289,-87.006c53.183,-20.662 107.905,-30.993 164.166,-30.993c25.891,0 50.961,3.236 75.212,9.709c24.251,6.472 47.316,15.434 69.195,26.886c21.88,11.451 42.288,24.894 61.224,40.328c12.172,9.922 23.688,20.357 34.547,31.307c4.76,4.83 11.246,7.569 18.028,7.613c6.781,0.043 13.302,-2.612 18.123,-7.382c21.26,-20.981 54.904,-54.26 69.761,-68.956c4.788,-4.735 11.25,-7.391 17.984,-7.391c2.528,-0 5.357,-0 8.304,-0c7.559,-0 14.73,3.344 19.589,9.134c4.859,5.791 6.907,13.434 5.594,20.879c-22.797,129.287 -112.34,637.114 -131.754,747.216Zm-137.335,-385.891c4.916,-27.881 4.327,-54.892 -1.769,-81.031c-6.095,-26.139 -16.576,-49.29 -31.443,-69.455c-14.866,-20.164 -33.546,-36.346 -56.041,-48.544c-22.494,-12.198 -47.682,-18.297 -75.564,-18.297c-27.882,-0 -54.979,4.73 -81.292,14.19c-26.314,9.46 -50.181,23.4 -71.602,41.822c-21.421,18.422 -39.752,41.2 -54.992,68.335c-15.24,27.135 -25.933,58.128 -32.078,92.98c-6.146,34.852 -6.383,65.846 -0.712,92.98c5.671,27.135 15.969,49.914 30.893,68.335c14.925,18.422 33.876,32.363 56.853,41.823c22.978,9.46 48.407,14.189 76.289,14.189c27.881,0 55.22,-6.099 82.017,-18.297c26.796,-12.198 51.183,-28.379 73.16,-48.544c21.977,-20.164 40.623,-43.316 55.936,-69.455c15.314,-26.139 25.429,-53.149 30.345,-81.031Z" style="fill:#fff;"/><path d="M3633.98,203.249c-2.886,16.734 -8.703,32.367 -17.454,46.899c-8.75,14.532 -19.439,27.192 -32.065,37.981c-12.627,10.789 -26.704,19.376 -42.232,25.762c-15.528,6.385 -31.474,9.578 -47.839,9.578c-16.365,-0 -31.21,-3.193 -44.536,-9.578c-13.326,-6.386 -24.334,-14.973 -33.024,-25.762c-8.691,-10.789 -14.905,-23.449 -18.644,-37.981c-3.738,-14.532 -4.165,-30.165 -1.279,-46.899c2.809,-16.293 8.608,-31.816 17.396,-46.568c8.789,-14.752 19.388,-27.523 31.8,-38.312c12.411,-10.789 26.381,-19.376 41.909,-25.761c15.528,-6.385 31.474,-9.578 47.839,-9.578c16.364,0 31.21,3.193 44.535,9.578c13.326,6.385 24.442,14.972 33.348,25.761c8.906,10.789 15.209,23.56 18.909,38.312c3.701,14.752 4.147,30.275 1.337,46.568Z" style="fill:#fff;"/><path d="M138.638,630.273c3.235,-6.041 6.601,-12.026 10.097,-17.954c30.54,-51.781 67.692,-96.59 111.456,-134.43c43.765,-37.839 92.305,-67.463 145.619,-88.872c53.315,-21.409 108.103,-32.114 164.364,-32.114c17.924,0 36.207,1.494 54.849,4.481c18.642,2.987 36.456,7.842 53.444,14.563c16.988,6.722 32.482,15.559 46.483,26.513c0.548,0.429 1.092,0.862 1.632,1.299c7.04,5.66 16.546,7.183 25.002,4.005c8.456,-3.178 14.605,-10.585 16.174,-19.481c14.818,-83.919 42.52,-241.025 52.527,-297.777c2.155,-12.222 12.773,-21.132 25.183,-21.132c36.646,-0 111.398,-0 153.445,-0c7.559,-0 14.731,3.344 19.589,9.135c4.859,5.79 6.907,13.433 5.595,20.878c-28.556,161.946 -163.865,929.32 -188.116,1066.86c-2.155,12.222 -12.774,21.132 -25.184,21.132c-4.259,0 -8.647,0 -12.643,0c-9.363,0 -17.978,-5.117 -22.457,-13.339c-9.505,-17.449 -26.367,-48.402 -38.426,-70.537c-3.516,-6.452 -9.639,-11.079 -16.806,-12.702c-7.167,-1.623 -14.685,-0.084 -20.638,4.223c-15.233,10.987 -30.87,21.481 -46.908,31.489c-3.721,2.321 -7.46,4.597 -11.221,6.821l-140.762,-140.761c12.879,-3.039 25.634,-7.434 38.268,-13.186c26.796,-12.198 51.183,-28.379 73.16,-48.544c21.978,-20.164 40.623,-43.316 55.937,-69.455c15.313,-26.139 25.428,-53.149 30.345,-81.031c4.916,-27.881 4.326,-54.892 -1.769,-81.031c-6.096,-26.139 -16.577,-49.29 -31.443,-69.455c-14.866,-20.164 -33.547,-36.346 -56.041,-48.544c-22.495,-12.198 -47.683,-18.297 -75.564,-18.297c-27.882,-0 -55.023,4.979 -81.425,14.937c-26.401,9.957 -50.334,24.271 -71.799,42.942c-21.465,18.671 -39.795,41.449 -54.992,68.335c-15.196,26.886 -25.779,57.257 -31.749,91.113c-0.26,1.475 -0.506,2.946 -0.734,4.409l-154.492,-154.491Z" style="fill:#fff;"/></g></g></g></g></svg>