<?xml version="1.0" encoding="UTF-8" standalone="no"?><!DOCTYPE svg PUBLIC "-//W3C//DTD SVG 1.1//EN" "http://www.w3.org/Graphics/SVG/1.1/DTD/svg11.dtd"><svg width="100%" height="100%" viewBox="0 0 4267 1417" version="1.1" xmlns="http://www.w3.org/2000/svg" xmlns:xlink="http://www.w3.org/1999/xlink" xml:space="preserve" xmlns:serif="http://www.serif.com/" style="fill-rule:evenodd;clip-rule:evenodd;stroke-linejoin:round;stroke-miterlimit:2;"><rect id="komb" x="0" y="2.117" width="4266.67" height="1413.46" style="fill:none;"/><g><path d="M605.228,546.904l323.88,161.942l-323.88,161.939l179.235,89.618l243.38,-121.691l0,-259.735l-243.38,-121.69l-179.235,89.617Z" style="fill:#fff;"/><path d="M1027.84,838.712l0,243.38l160.997,80.499l0,-404.378l-160.997,80.499Z" style="fill:#fff;"/><path d="M1027.84,838.712l160.997,-80.499l0,-98.737l-160.997,-80.499l0,259.735Z" style="fill:#fff;"/><path d="M1188.84,1162.59l-160.997,-80.499l0,179.237l44.652,22.323l116.345,58.176l0,-179.237Z" style="fill:#fff;"/><path d="M1027.84,1261.33l0,-179.237l-243.38,-121.689l-179.235,89.617l422.615,211.309Z" style="fill:#fff;"/><path d="M605.228,367.669l179.235,89.618l243.38,-121.69l160.997,-80.499l0,-179.234l-116.345,58.173l-467.267,233.632Z" style="fill:#fff;"/><path d="M1027.84,335.597l0,243.38l160.997,80.501l0,-404.38l-160.997,80.499Z" style="fill:#fff;"/><path d="M1442.32,1082.13l-0,-746.917l121.379,0l0,309.11l268.362,-309.11l148.547,0l-296.051,332.1l331.228,414.817l-156.732,-0l-295.354,-381.556l0,381.556l-121.379,-0Zm1218.49,-371.979c0,-37.615 -6.966,-73.487 -20.725,-107.622c-13.756,-33.959 -33.436,-64.26 -59.383,-90.73c-25.077,-26.295 -54.336,-46.323 -87.422,-60.43c-33.263,-14.105 -68.091,-21.244 -104.837,-21.244c-36.746,0 -71.748,6.966 -104.838,20.898c-33.086,13.931 -62.691,34.132 -88.465,60.776c-25.774,26.122 -45.626,56.248 -59.21,90.208c-13.584,34.133 -20.376,70.18 -20.376,108.144c-0,37.792 6.792,73.493 20.376,107.275c13.584,33.612 33.436,63.74 59.21,90.208c25.774,26.646 55.204,46.847 88.294,60.779c32.912,13.932 67.915,20.897 105.009,20.897c36.398,0 71.053,-6.965 103.792,-20.897c32.74,-13.932 62.343,-34.133 88.467,-60.779c25.947,-26.468 45.627,-56.596 59.383,-90.556c13.759,-33.782 20.725,-69.483 20.725,-106.927Zm126.604,-0c-0,53.116 -9.925,103.271 -29.778,150.463c-20.028,47.368 -48.937,89.512 -87.074,126.607c-38.488,37.092 -81.849,65.479 -130.089,85.157c-48.238,19.68 -98.916,29.607 -152.03,29.607c-53.812,0 -105.009,-9.927 -153.773,-29.78c-48.934,-20.026 -91.949,-48.24 -129.39,-84.984c-38.14,-37.095 -67.048,-79.063 -86.725,-126.082c-19.681,-46.848 -29.606,-97.175 -29.606,-150.988c0,-53.462 9.925,-103.791 29.606,-150.984c19.677,-47.368 48.585,-89.685 86.725,-127.125c38.137,-37.098 81.326,-65.309 129.565,-84.639c48.241,-19.328 99.438,-29.08 153.598,-29.08c53.81,-0 104.662,9.752 152.727,29.08c48.237,19.33 91.253,47.541 129.392,84.639c38.137,37.788 67.046,80.453 87.074,127.821c19.853,47.544 29.778,97.522 29.778,150.288Zm716.771,3.135c-1.392,-5.921 -3.659,-21.767 -6.619,-48.065c-2.786,-21.767 -5.048,-39.703 -7.138,-53.983c-3.135,16.891 -7.489,33.958 -13.062,51.024c-5.571,16.894 -12.712,34.309 -21.074,52.071l-195.39,397.926l-195.394,-406.112c-8.185,-16.718 -15.324,-32.912 -21.246,-48.586c-5.921,-15.673 -11.145,-30.997 -15.5,-46.323c-0.348,15.674 -1.739,32.04 -3.831,49.11c-2.263,17.239 -5.573,35.178 -9.925,53.985l-80.108,367.797l-111.803,-0l176.585,-778.612l220.299,471.418c3.48,7.488 8.707,19.851 15.672,37.268c6.964,17.413 15.325,38.834 25.251,64.259c7.138,-21.421 18.286,-48.585 33.609,-81.676c4.007,-8.707 7.141,-15.498 9.231,-20.374l215.246,-470.895l180.59,778.612l-112.672,-0l-82.721,-368.844Zm379.798,-62.693l46.321,0c57.819,0 98.743,-7.835 122.775,-23.681c23.859,-15.85 35.874,-42.495 35.874,-79.936c0,-40.75 -10.972,-69.483 -33.087,-86.028c-22.119,-16.543 -63.912,-24.73 -125.562,-24.73l-46.321,0l-0,214.375Zm-0,330.01l41.795,0c42.492,0 74.36,-1.741 95.431,-5.049c21.073,-3.485 37.616,-9.403 49.982,-17.938c14.976,-9.752 26.47,-23.163 34.654,-39.706c8.185,-16.717 12.192,-35.005 12.192,-55.203c0,-23.687 -4.878,-44.582 -14.803,-62.172c-9.928,-17.763 -24.033,-31.522 -42.317,-41.271c-11.496,-5.925 -24.729,-10.101 -39.533,-12.887c-14.801,-2.614 -34.481,-4.007 -58.861,-4.007l-78.54,-0l-0,238.233Zm-118.943,101.527l-0,-746.917l188.254,0c53.811,0 93.515,2.96 119.117,8.71c25.598,5.746 47.541,15.323 65.477,28.558c23.163,17.066 41.098,39.357 53.812,66.873c12.712,27.517 19.157,57.992 19.157,91.253c-0,39.881 -9.229,73.141 -27.515,99.788c-18.46,26.642 -45.106,45.275 -80.108,55.9c43.536,6.793 77.845,26.643 102.922,59.385c24.902,32.912 37.44,74.184 37.44,124.166c0,30.301 -5.224,59.037 -15.846,86.202c-10.448,27.342 -25.425,50.502 -44.93,69.485c-20.376,20.723 -45.626,35.353 -75.93,43.885c-30.3,8.532 -81.151,12.712 -152.551,12.712l-189.299,-0Z" style="fill:#fff;fill-rule:nonzero;"/><path d="M1552.55,1294.22c-1.26,7.587 -3.525,14.353 -6.8,20.323c-3.238,5.937 -7.267,10.9 -12.017,14.857c-4.711,3.995 -10.179,6.979 -16.332,9.031c-6.15,2.05 -12.699,3.056 -19.64,3.056c-5.325,0 -10.397,-0.61 -15.11,-1.834c-4.748,-1.222 -9.317,-3.129 -13.669,-5.647c-4.352,-2.519 -8.204,-5.468 -11.584,-8.851c-4.786,-4.929 -8.238,-10.142 -10.325,-15.72c-2.123,-5.541 -3.416,-11.546 -3.885,-18.059c-0.503,-6.51 -0.756,-15.829 -0.756,-27.987c-0,-9.354 0.108,-16.765 0.36,-22.233c0.251,-5.504 0.827,-10.503 1.691,-15.072c0.9,-4.57 2.339,-8.85 4.316,-12.806c2.016,-3.96 4.858,-7.843 8.599,-11.657c5.325,-5.322 11.404,-9.389 18.237,-12.16c6.8,-2.769 14.174,-4.172 22.126,-4.172c14.387,-0 26.477,4.064 36.189,12.23c9.748,8.166 15.937,19.858 18.6,35.04l-23.816,0c-1.834,-8.058 -5.395,-14.46 -10.685,-19.209c-5.322,-4.713 -12.088,-7.088 -20.288,-7.088c-4.499,-0 -8.744,0.792 -12.699,2.41c-3.995,1.619 -7.34,3.887 -10.074,6.836c-2.052,2.265 -3.633,4.533 -4.748,6.798c-1.115,2.268 -2.05,5.289 -2.734,9.03c-0.719,3.776 -1.188,7.986 -1.438,12.699c-0.253,4.713 -0.361,11.153 -0.361,19.354c0,8.129 0.108,14.534 0.361,19.212c0.25,4.638 0.719,8.882 1.438,12.661c0.684,3.777 1.619,6.798 2.734,8.993c1.115,2.23 2.696,4.533 4.748,7.016c2.734,2.877 6.079,5.107 10.074,6.76c3.955,1.657 8.2,2.484 12.699,2.484c5.54,-0 10.433,-1.077 14.64,-3.275c4.21,-2.155 7.735,-5.252 10.539,-9.243c2.807,-3.995 4.821,-8.598 6.009,-13.777l23.601,0Zm229.253,-30.868c0,12.123 -0.215,21.442 -0.681,27.843c-0.469,6.44 -1.727,12.484 -3.849,18.132c-2.087,5.648 -5.47,10.899 -10.111,15.758c-11.007,10.935 -24.533,16.402 -40.542,16.402c-16.044,0 -29.498,-5.429 -40.362,-16.332c-4.784,-4.929 -8.236,-10.142 -10.323,-15.72c-2.125,-5.541 -3.419,-11.546 -3.887,-18.059c-0.504,-6.51 -0.754,-15.829 -0.754,-27.987c-0,-9.354 0.108,-16.765 0.36,-22.233c0.249,-5.504 0.828,-10.503 1.69,-15.072c0.899,-4.57 2.337,-8.85 4.317,-12.806c2.015,-3.96 4.856,-7.843 8.597,-11.657c10.864,-10.899 24.318,-16.332 40.327,-16.332c16.044,-0 29.535,5.433 40.577,16.332c4.713,4.929 8.094,10.146 10.182,15.756c2.051,5.576 3.309,11.587 3.778,18.062c0.466,6.437 0.681,15.755 0.681,27.913Zm-23.273,0.037c0,-15.289 -0.576,-26.046 -1.726,-32.306c-1.188,-6.224 -3.598,-11.366 -7.34,-15.359c-2.66,-2.88 -6.043,-5.18 -10.18,-6.871c-4.099,-1.727 -8.311,-2.591 -12.699,-2.591c-4.425,-0 -8.67,0.864 -12.772,2.591c-4.134,1.691 -7.52,3.991 -10.18,6.871c-3.739,4.136 -6.152,9.316 -7.34,15.467c-1.15,6.187 -1.726,16.909 -1.726,32.198c-0,8.129 0.108,14.641 0.36,19.498c0.254,4.894 0.72,9.136 1.439,12.806c0.684,3.634 1.548,6.475 2.521,8.527c0.969,2.012 2.553,4.315 4.746,6.833c2.806,2.952 6.226,5.252 10.288,6.946c4.032,1.689 8.239,2.516 12.664,2.516c9.281,-0 16.906,-3.165 22.879,-9.462c2.519,-2.734 4.461,-5.863 5.757,-9.354c1.295,-3.525 2.157,-8.309 2.625,-14.317c0.469,-6.041 0.684,-14.027 0.684,-23.993Zm266.774,76.841l-21.367,-0l-70.941,-108.139l-0,108.139l-23.491,-0l-0,-153.645l21.476,-0l71.05,107.921l-0,-107.921l23.273,-0l0,153.645Zm229.581,-43.853c0,6.836 -1.333,13.058 -3.994,18.708c-2.698,5.645 -6.51,10.466 -11.546,14.423c-5.037,3.994 -10.865,6.978 -17.558,8.995c-6.653,1.978 -14.027,2.984 -22.123,2.984c-11.727,0 -21.943,-1.583 -30.612,-4.71c-8.669,-3.132 -16.621,-8.347 -23.852,-15.613l15.578,-15.397c3.453,3.488 7.229,6.401 11.331,8.631c4.102,2.268 8.49,3.849 13.13,4.749c4.64,0.899 9.604,1.368 14.856,1.368c9.893,-0 17.665,-2.088 23.313,-6.222c5.611,-4.139 8.417,-9.892 8.417,-17.34c0,-6.945 -2.05,-12.232 -6.116,-15.9c-1.834,-1.8 -3.957,-3.203 -6.367,-4.137c-2.446,-0.935 -5.899,-1.727 -10.394,-2.376l-18.132,-2.518c-12.485,-1.762 -22.233,-5.864 -29.176,-12.338c-7.447,-6.944 -11.188,-16.728 -11.188,-29.285c0,-8.92 2.087,-16.798 6.224,-23.598c4.137,-6.834 10.073,-12.123 17.808,-15.865c7.733,-3.775 16.834,-5.647 27.305,-5.647c10.324,-0 19.244,1.403 26.764,4.172c7.517,2.807 14.495,7.232 20.973,13.313l-14.967,14.784c-3.092,-3.02 -6.405,-5.398 -9.893,-7.124c-3.525,-1.726 -7.194,-2.95 -10.972,-3.669c-3.776,-0.754 -7.986,-1.115 -12.554,-1.115c-5.828,-0 -10.829,1.008 -15.074,3.058c-4.209,2.017 -7.409,4.858 -9.642,8.454c-2.192,3.635 -3.308,7.734 -3.308,12.375c0,6.079 1.942,10.865 5.793,14.281c1.907,1.621 4.388,3.094 7.48,4.389c3.094,1.296 6.367,2.195 9.822,2.664l17.483,2.626c7.016,1.078 12.772,2.48 17.231,4.28c4.461,1.799 8.274,4.137 11.441,7.086c8.348,7.304 12.519,17.806 12.519,31.514Zm218.825,-88.819l-42.234,-0l-0,132.672l-23.276,-0l0,-132.672l-42.377,-0l0,-20.973l107.887,-0l-0,20.973Zm231.916,132.672l-27.197,-0l-32.339,-64.718l-29.103,0l-0,64.718l-23.492,-0l0,-153.645l59.716,-0c9.427,-0 17.774,1.906 25.04,5.755c7.266,3.814 12.877,9.101 16.764,15.901c3.921,6.763 5.866,14.499 5.866,23.203c-0,10.539 -2.845,19.354 -8.493,26.406c-5.647,7.05 -12.987,11.834 -22.053,14.387l35.291,67.993Zm-28.024,-108.57c0,-7.482 -2.373,-13.348 -7.121,-17.663c-4.751,-4.283 -11.08,-6.439 -19.031,-6.439l-34.463,-0l-0,47.916l34.463,0c7.878,0 14.21,-2.122 18.993,-6.402c4.786,-4.248 7.159,-10.073 7.159,-17.412Zm258.541,56.729c-0,10.399 -2.376,19.608 -7.16,27.703c-4.785,8.094 -11.368,14.316 -19.75,18.741c-8.419,4.425 -17.843,6.654 -28.311,6.654c-10.397,0 -19.786,-2.229 -28.133,-6.654c-8.346,-4.425 -14.929,-10.647 -19.712,-18.741c-4.786,-8.095 -7.162,-17.304 -7.162,-27.703l0,-101.804l23.279,-0l-0,100.654c-0,6.728 1.293,12.629 3.884,17.628c2.626,5.036 6.297,8.885 11.08,11.584c4.783,2.696 10.361,4.064 16.764,4.064c6.404,-0 12.017,-1.368 16.797,-4.064c4.822,-2.699 8.565,-6.548 11.191,-11.512c2.626,-5.001 3.957,-10.899 3.957,-17.7l0,-100.654l23.276,-0l-0,101.804Zm235.622,5.831c-1.26,7.587 -3.526,14.353 -6.801,20.323c-3.237,5.937 -7.266,10.9 -12.015,14.857c-4.71,3.995 -10.18,6.979 -16.332,9.031c-6.151,2.05 -12.699,3.056 -19.642,3.056c-5.325,0 -10.397,-0.61 -15.107,-1.834c-4.751,-1.222 -9.319,-3.129 -13.672,-5.647c-4.351,-2.519 -8.2,-5.468 -11.583,-8.851c-4.784,-4.929 -8.237,-10.142 -10.324,-15.72c-2.125,-5.541 -3.417,-11.546 -3.886,-18.059c-0.504,-6.51 -0.757,-15.829 -0.757,-27.987c-0,-9.354 0.11,-16.765 0.361,-22.233c0.25,-5.504 0.829,-10.503 1.691,-15.072c0.9,-4.57 2.338,-8.85 4.317,-12.806c2.015,-3.96 4.857,-7.843 8.598,-11.657c5.324,-5.322 11.403,-9.389 18.236,-12.16c6.801,-2.769 14.178,-4.172 22.126,-4.172c14.39,-0 26.478,4.064 36.19,12.23c9.747,8.166 15.936,19.858 18.6,35.04l-23.817,0c-1.835,-8.058 -5.395,-14.46 -10.682,-19.209c-5.324,-4.713 -12.087,-7.088 -20.291,-7.088c-4.495,-0 -8.74,0.792 -12.699,2.41c-3.994,1.619 -7.339,3.887 -10.073,6.836c-2.05,2.265 -3.633,4.533 -4.749,6.798c-1.112,2.268 -2.049,5.289 -2.733,9.03c-0.72,3.776 -1.185,7.986 -1.438,12.699c-0.254,4.713 -0.362,11.153 -0.362,19.354c0,8.129 0.108,14.534 0.362,19.212c0.253,4.638 0.718,8.882 1.438,12.661c0.684,3.777 1.621,6.798 2.733,8.993c1.116,2.23 2.699,4.533 4.749,7.016c2.734,2.877 6.079,5.107 10.073,6.76c3.959,1.657 8.204,2.484 12.699,2.484c5.54,-0 10.434,-1.077 14.641,-3.275c4.209,-2.155 7.735,-5.252 10.541,-9.243c2.806,-3.995 4.821,-8.598 6.009,-13.777l23.599,0Zm218.606,-86.662l-42.232,-0l0,132.672l-23.275,-0l-0,-132.672l-42.377,-0l0,-20.973l107.884,-0l0,20.973Zm143.279,132.672l-23.49,-0l-0,-153.645l23.49,-0l0,153.645Zm238.321,-76.878c0,12.123 -0.217,21.442 -0.683,27.843c-0.468,6.44 -1.726,12.484 -3.849,18.132c-2.088,5.648 -5.47,10.899 -10.11,15.758c-11.008,10.935 -24.534,16.402 -40.541,16.402c-16.044,0 -29.499,-5.429 -40.361,-16.332c-4.787,-4.929 -8.24,-10.142 -10.327,-15.72c-2.122,-5.541 -3.417,-11.546 -3.887,-18.059c-0.5,-6.51 -0.754,-15.829 -0.754,-27.987c0,-9.354 0.108,-16.765 0.361,-22.233c0.251,-5.504 0.827,-10.503 1.689,-15.072c0.9,-4.57 2.338,-8.85 4.318,-12.806c2.014,-3.96 4.856,-7.843 8.6,-11.657c10.862,-10.899 24.317,-16.332 40.324,-16.332c16.044,-0 29.535,5.433 40.578,16.332c4.713,4.929 8.096,10.146 10.18,15.756c2.053,5.576 3.311,11.587 3.779,18.062c0.466,6.437 0.683,15.755 0.683,27.913Zm-23.275,0.037c-0,-15.289 -0.577,-26.046 -1.727,-32.306c-1.187,-6.224 -3.597,-11.366 -7.338,-15.359c-2.662,-2.88 -6.042,-5.18 -10.181,-6.871c-4.1,-1.727 -8.309,-2.591 -12.699,-2.591c-4.425,-0 -8.667,0.864 -12.772,2.591c-4.134,1.691 -7.517,3.991 -10.181,6.871c-3.738,4.136 -6.151,9.316 -7.338,15.467c-1.149,6.187 -1.728,16.909 -1.728,32.198c0,8.129 0.111,14.641 0.362,19.498c0.253,4.894 0.719,9.136 1.438,12.806c0.686,3.634 1.549,6.475 2.52,8.527c0.97,2.012 2.554,4.315 4.746,6.833c2.807,2.952 6.227,5.252 10.291,6.946c4.029,1.689 8.237,2.516 12.662,2.516c9.281,-0 16.909,-3.165 22.88,-9.462c2.518,-2.734 4.459,-5.863 5.758,-9.354c1.292,-3.525 2.155,-8.309 2.625,-14.317c0.467,-6.041 0.682,-14.027 0.682,-23.993Zm266.777,76.841l-21.369,-0l-70.943,-108.139l0,108.139l-23.488,-0l-0,-153.645l21.474,-0l71.05,107.921l0,-107.921l23.276,-0l-0,153.645Zm229.579,-43.853c-0,6.836 -1.333,13.058 -3.995,18.708c-2.699,5.645 -6.51,10.466 -11.546,14.423c-5.037,3.994 -10.865,6.978 -17.558,8.995c-6.652,1.978 -14.027,2.984 -22.121,2.984c-11.728,0 -21.944,-1.583 -30.614,-4.71c-8.67,-3.132 -16.62,-8.347 -23.852,-15.613l15.578,-15.397c3.453,3.488 7.232,6.401 11.331,8.631c4.101,2.268 8.489,3.849 13.132,4.749c4.641,0.899 9.602,1.368 14.854,1.368c9.892,-0 17.665,-2.088 23.314,-6.222c5.61,-4.139 8.416,-9.892 8.416,-17.34c-0,-6.945 -2.049,-12.232 -6.114,-15.9c-1.837,-1.8 -3.959,-3.203 -6.37,-4.137c-2.445,-0.935 -5.898,-1.727 -10.393,-2.376l-18.131,-2.518c-12.484,-1.762 -22.233,-5.864 -29.177,-12.338c-7.447,-6.944 -11.188,-16.728 -11.188,-29.285c-0,-8.92 2.087,-16.798 6.224,-23.598c4.137,-6.834 10.073,-12.123 17.808,-15.865c7.733,-3.775 16.836,-5.647 27.305,-5.647c10.323,-0 19.244,1.403 26.763,4.172c7.52,2.807 14.499,7.232 20.973,13.313l-14.966,14.784c-3.092,-3.02 -6.403,-5.398 -9.893,-7.124c-3.526,-1.726 -7.194,-2.95 -10.972,-3.669c-3.776,-0.754 -7.986,-1.115 -12.554,-1.115c-5.825,-0 -10.827,1.008 -15.072,3.058c-4.212,2.017 -7.412,4.858 -9.642,8.454c-2.195,3.635 -3.31,7.734 -3.31,12.375c0,6.079 1.942,10.865 5.793,14.281c1.907,1.621 4.388,3.094 7.48,4.389c3.094,1.296 6.369,2.195 9.823,2.664l17.482,2.626c7.016,1.078 12.771,2.48 17.232,4.28c4.459,1.799 8.274,4.137 11.441,7.086c8.346,7.304 12.519,17.806 12.519,31.514" style="fill:#fff;fill-rule:nonzero;"/><path d="M21.615,659.476l160.997,-80.499l-0,-422.617l-44.652,-22.326l-116.345,-58.17l0,583.612Z" style="fill:#fff;"/><path d="M182.612,335.597l243.383,121.69l179.233,-89.618l-422.616,-211.309l-0,179.237Z" style="fill:#fff;"/><path d="M425.995,457.287l-243.383,121.69l-0,259.735l243.38,121.691l179.236,89.617l179.235,-89.617l-179.235,-89.618l-323.88,-161.939l323.88,-161.942l-179.233,-89.617Z" style="fill:#fff;"/><path d="M182.612,1261.33l422.616,-211.309l-179.236,-89.617l-243.38,121.689l-0,179.237Z" style="fill:#fff;"/><path d="M182.612,1261.33l-0,-422.617l-160.997,-80.499l0,583.615l116.345,-58.176l44.652,-22.323Z" style="fill:#fff;"/><path d="M21.615,758.213l160.997,80.499l-0,-259.735l-160.997,80.499l0,98.737Z" style="fill:#fff;"/><path d="M425.995,457.287l179.233,89.617l179.235,-89.617l-179.235,-89.618l-179.233,89.618Z" style="fill:#fff;"/></g></svg>