{
    "asset" : {
        "generator" : "Khronos glTF Blender I/O v1.6.8",
        "version" : "2.0"
    },
    "scene" : 0,
    "scenes" : [
        {
            "name" : "Scene",
            "nodes" : [
                0
            ]
        }
    ],
    "nodes" : [
        {
            "mesh" : 0,
            "name" : "Plane.000_Plane.004",
            "rotation" : [
                0.7071068286895752,
                0,
                0,
                0.7071067094802856
            ]
        }
    ],
    "materials" : [
        {
            "doubleSided" : true,
            "emissiveFactor" : [
                1,
                1,
                1
            ],
            "emissiveTexture" : {
                "index" : 0
            },
            "name" : "screen",
            "pbrMetallicRoughness" : {
                "baseColorTexture" : {
                    "index" : 1
                },
                "metallicFactor" : 0,
                "roughnessFactor" : 0.10000000149011612
            }
        },
        {
            "doubleSided" : true,
            "name" : "back",
            "pbrMetallicRoughness" : {
                "baseColorTexture" : {
                    "index" : 2
                },
                "metallicFactor" : 0,
                "roughnessFactor" : 0
            }
        },
        {
            "alphaMode" : "BLEND",
            "doubleSided" : true,
            "name" : "glass",
            "pbrMetallicRoughness" : {
                "baseColorFactor" : [
                    0.800000011920929,
                    0.800000011920929,
                    0.800000011920929,
                    0
                ],
                "metallicFactor" : 0,
                "roughnessFactor" : 0
            }
        },
        {
            "doubleSided" : true,
            "name" : "sidebars",
            "pbrMetallicRoughness" : {
                "baseColorFactor" : [
                    0,
                    0.0481720007956028,
                    0.226965993642807,
                    1
                ],
                "roughnessFactor" : 0.5
            }
        },
        {
            "doubleSided" : true,
            "name" : "antena_bands",
            "pbrMetallicRoughness" : {
                "baseColorFactor" : [
                    0.011082000099122524,
                    0.011082000099122524,
                    0.011082000099122524,
                    1
                ],
                "metallicFactor" : 0,
                "roughnessFactor" : 0.5
            }
        },
        {
            "doubleSided" : true,
            "name" : "gold",
            "pbrMetallicRoughness" : {
                "baseColorFactor" : [
                    0.800000011920929,
                    0.7402309775352478,
                    0.10449100285768509,
                    1
                ],
                "roughnessFactor" : 0.1666666567325592
            }
        },
        {
            "doubleSided" : true,
            "name" : "speaker_grill",
            "pbrMetallicRoughness" : {
                "baseColorTexture" : {
                    "index" : 3
                },
                "metallicFactor" : 0,
                "roughnessFactor" : 0.5
            }
        },
        {
            "doubleSided" : true,
            "name" : "black_bars",
            "pbrMetallicRoughness" : {
                "baseColorFactor" : [
                    0.0005130000063218176,
                    0.0005130000063218176,
                    0.0005130000063218176,
                    1
                ],
                "metallicFactor" : 0,
                "roughnessFactor" : 0.2657657861709595
            }
        },
        {
            "doubleSided" : true,
            "name" : "camera_lens",
            "pbrMetallicRoughness" : {
                "baseColorFactor" : [
                    0.028925498947501183,
                    0.018682243302464485,
                    0.0659148246049881,
                    1
                ],
                "metallicFactor" : 0,
                "roughnessFactor" : 0
            }
        }
    ],
    "meshes" : [
        {
            "name" : "Plane.000_Plane.004",
            "primitives" : [
                {
                    "attributes" : {
                        "POSITION" : 0,
                        "NORMAL" : 1,
                        "TEXCOORD_0" : 2
                    },
                    "indices" : 3,
                    "material" : 0
                },
                {
                    "attributes" : {
                        "POSITION" : 4,
                        "NORMAL" : 5,
                        "TEXCOORD_0" : 6
                    },
                    "indices" : 7,
                    "material" : 1
                },
                {
                    "attributes" : {
                        "POSITION" : 8,
                        "NORMAL" : 9,
                        "TEXCOORD_0" : 10
                    },
                    "indices" : 11,
                    "material" : 2
                },
                {
                    "attributes" : {
                        "POSITION" : 12,
                        "NORMAL" : 13,
                        "TEXCOORD_0" : 14
                    },
                    "indices" : 15,
                    "material" : 3
                },
                {
                    "attributes" : {
                        "POSITION" : 16,
                        "NORMAL" : 17,
                        "TEXCOORD_0" : 18
                    },
                    "indices" : 19,
                    "material" : 4
                },
                {
                    "attributes" : {
                        "POSITION" : 20,
                        "NORMAL" : 21,
                        "TEXCOORD_0" : 22
                    },
                    "indices" : 23,
                    "material" : 5
                },
                {
                    "attributes" : {
                        "POSITION" : 24,
                        "NORMAL" : 25,
                        "TEXCOORD_0" : 26
                    },
                    "indices" : 27,
                    "material" : 6
                },
                {
                    "attributes" : {
                        "POSITION" : 28,
                        "NORMAL" : 29,
                        "TEXCOORD_0" : 30
                    },
                    "indices" : 31,
                    "material" : 7
                },
                {
                    "attributes" : {
                        "POSITION" : 32,
                        "NORMAL" : 33,
                        "TEXCOORD_0" : 34
                    },
                    "indices" : 35,
                    "material" : 8
                }
            ]
        }
    ],
    "textures" : [
        {
            "sampler" : 0,
            "source" : 0
        },
        {
            "sampler" : 0,
            "source" : 0
        },
        {
            "sampler" : 0,
            "source" : 1
        },
        {
            "sampler" : 0,
            "source" : 2
        }
    ],
    "images" : [
        {
            "mimeType" : "image/jpeg",
            "name" : "OnePlus_7_Pro_Wallpaper_1_YTECHB.com",
            "uri" : "OnePlus_7_Pro_Wallpaper_1_YTECHB_com.jpg"
        },
        {
            "mimeType" : "image/png",
            "name" : "oneplus_7_pro_rear.png",
            "uri" : "oneplus_7_pro_rear_png.png"
        },
        {
            "mimeType" : "image/jpeg",
            "name" : "speaker grill",
            "uri" : "speaker%20grill.jpg"
        }
    ],
    "accessors" : [
        {
            "bufferView" : 0,
            "componentType" : 5126,
            "count" : 1074,
            "max" : [
                0.6475669741630554,
                0.05846500024199486,
                -0.023669999092817307
            ],
            "min" : [
                -0.7343760132789612,
                0.03004699945449829,
                -2.969878911972046
            ],
            "type" : "VEC3"
        },
        {
            "bufferView" : 1,
            "componentType" : 5126,
            "count" : 1074,
            "type" : "VEC3"
        },
        {
            "bufferView" : 2,
            "componentType" : 5126,
            "count" : 1074,
            "type" : "VEC2"
        },
        {
            "bufferView" : 3,
            "componentType" : 5123,
            "count" : 6048,
            "type" : "SCALAR"
        },
        {
            "bufferView" : 4,
            "componentType" : 5126,
            "count" : 693,
            "max" : [
                0.649802029132843,
                -0.012489000335335732,
                -0.022213999181985855
            ],
            "min" : [
                -0.7339720129966736,
                -0.04187700152397156,
                -2.9654150009155273
            ],
            "type" : "VEC3"
        },
        {
            "bufferView" : 5,
            "componentType" : 5126,
            "count" : 693,
            "type" : "VEC3"
        },
        {
            "bufferView" : 6,
            "componentType" : 5126,
            "count" : 693,
            "type" : "VEC2"
        },
        {
            "bufferView" : 7,
            "componentType" : 5123,
            "count" : 3840,
            "type" : "SCALAR"
        },
        {
            "bufferView" : 8,
            "componentType" : 5126,
            "count" : 1494,
            "max" : [
                0.04459000006318092,
                0.0500200018286705,
                -0.0281360000371933
            ],
            "min" : [
                -0.5336980223655701,
                -0.05714000016450882,
                -2.9632129669189453
            ],
            "type" : "VEC3"
        },
        {
            "bufferView" : 9,
            "componentType" : 5126,
            "count" : 1494,
            "type" : "VEC3"
        },
        {
            "bufferView" : 10,
            "componentType" : 5126,
            "count" : 1494,
            "type" : "VEC2"
        },
        {
            "bufferView" : 11,
            "componentType" : 5123,
            "count" : 7200,
            "type" : "SCALAR"
        },
        {
            "bufferView" : 12,
            "componentType" : 5126,
            "count" : 12981,
            "max" : [
                0.6525989770889282,
                0.05846500024199486,
                -0.017581000924110413
            ],
            "min" : [
                -0.7353000044822693,
                -0.058253999799489975,
                -2.98675799369812
            ],
            "type" : "VEC3"
        },
        {
            "bufferView" : 13,
            "componentType" : 5126,
            "count" : 12981,
            "type" : "VEC3"
        },
        {
            "bufferView" : 14,
            "componentType" : 5126,
            "count" : 12981,
            "type" : "VEC2"
        },
        {
            "bufferView" : 15,
            "componentType" : 5123,
            "count" : 69984,
            "type" : "SCALAR"
        },
        {
            "bufferView" : 16,
            "componentType" : 5126,
            "count" : 12728,
            "max" : [
                0.6460689902305603,
                0.050140999257564545,
                -0.02159300073981285
            ],
            "min" : [
                -0.7343760132789612,
                -0.03548799827694893,
                -2.985038995742798
            ],
            "type" : "VEC3"
        },
        {
            "bufferView" : 17,
            "componentType" : 5126,
            "count" : 12728,
            "type" : "VEC3"
        },
        {
            "bufferView" : 18,
            "componentType" : 5126,
            "count" : 12728,
            "type" : "VEC2"
        },
        {
            "bufferView" : 19,
            "componentType" : 5123,
            "count" : 73728,
            "type" : "SCALAR"
        },
        {
            "bufferView" : 20,
            "componentType" : 5126,
            "count" : 1044,
            "max" : [
                0.021643999963998795,
                -0.0010369999799877405,
                -0.07786300033330917
            ],
            "min" : [
                -0.10276400297880173,
                -0.004896999802440405,
                -0.13636399805545807
            ],
            "type" : "VEC3"
        },
        {
            "bufferView" : 21,
            "componentType" : 5126,
            "count" : 1044,
            "type" : "VEC3"
        },
        {
            "bufferView" : 22,
            "componentType" : 5126,
            "count" : 1044,
            "type" : "VEC2"
        },
        {
            "bufferView" : 23,
            "componentType" : 5123,
            "count" : 5376,
            "type" : "SCALAR"
        },
        {
            "bufferView" : 24,
            "componentType" : 5126,
            "count" : 720,
            "max" : [
                0.4429430067539215,
                0.016517000272870064,
                -0.02114499919116497
            ],
            "min" : [
                -0.5863270163536072,
                -0.01705300062894821,
                -0.03209000080823898
            ],
            "type" : "VEC3"
        },
        {
            "bufferView" : 25,
            "componentType" : 5126,
            "count" : 720,
            "type" : "VEC3"
        },
        {
            "bufferView" : 26,
            "componentType" : 5126,
            "count" : 720,
            "type" : "VEC2"
        },
        {
            "bufferView" : 27,
            "componentType" : 5123,
            "count" : 3072,
            "type" : "SCALAR"
        },
        {
            "bufferView" : 28,
            "componentType" : 5126,
            "count" : 3409,
            "max" : [
                0.04504400119185448,
                -0.048698000609874725,
                -2.1115589141845703
            ],
            "min" : [
                -0.11878299713134766,
                -0.0537710003554821,
                -2.7240140438079834
            ],
            "type" : "VEC3"
        },
        {
            "bufferView" : 29,
            "componentType" : 5126,
            "count" : 3409,
            "type" : "VEC3"
        },
        {
            "bufferView" : 30,
            "componentType" : 5126,
            "count" : 3409,
            "type" : "VEC2"
        },
        {
            "bufferView" : 31,
            "componentType" : 5123,
            "count" : 18432,
            "type" : "SCALAR"
        },
        {
            "bufferView" : 32,
            "componentType" : 5126,
            "count" : 1198,
            "max" : [
                0.007615000009536743,
                0.040681999176740646,
                -2.161083936691284
            ],
            "min" : [
                -0.36203300952911377,
                -0.05681199952960014,
                -2.9193739891052246
            ],
            "type" : "VEC3"
        },
        {
            "bufferView" : 33,
            "componentType" : 5126,
            "count" : 1198,
            "type" : "VEC3"
        },
        {
            "bufferView" : 34,
            "componentType" : 5126,
            "count" : 1198,
            "type" : "VEC2"
        },
        {
            "bufferView" : 35,
            "componentType" : 5123,
            "count" : 6240,
            "type" : "SCALAR"
        }
    ],
    "bufferViews" : [
        {
            "buffer" : 0,
            "byteLength" : 12888,
            "byteOffset" : 0
        },
        {
            "buffer" : 0,
            "byteLength" : 12888,
            "byteOffset" : 12888
        },
        {
            "buffer" : 0,
            "byteLength" : 8592,
            "byteOffset" : 25776
        },
        {
            "buffer" : 0,
            "byteLength" : 12096,
            "byteOffset" : 34368
        },
        {
            "buffer" : 0,
            "byteLength" : 8316,
            "byteOffset" : 46464
        },
        {
            "buffer" : 0,
            "byteLength" : 8316,
            "byteOffset" : 54780
        },
        {
            "buffer" : 0,
            "byteLength" : 5544,
            "byteOffset" : 63096
        },
        {
            "buffer" : 0,
            "byteLength" : 7680,
            "byteOffset" : 68640
        },
        {
            "buffer" : 0,
            "byteLength" : 17928,
            "byteOffset" : 76320
        },
        {
            "buffer" : 0,
            "byteLength" : 17928,
            "byteOffset" : 94248
        },
        {
            "buffer" : 0,
            "byteLength" : 11952,
            "byteOffset" : 112176
        },
        {
            "buffer" : 0,
            "byteLength" : 14400,
            "byteOffset" : 124128
        },
        {
            "buffer" : 0,
            "byteLength" : 155772,
            "byteOffset" : 138528
        },
        {
            "buffer" : 0,
            "byteLength" : 155772,
            "byteOffset" : 294300
        },
        {
            "buffer" : 0,
            "byteLength" : 103848,
            "byteOffset" : 450072
        },
        {
            "buffer" : 0,
            "byteLength" : 139968,
            "byteOffset" : 553920
        },
        {
            "buffer" : 0,
            "byteLength" : 152736,
            "byteOffset" : 693888
        },
        {
            "buffer" : 0,
            "byteLength" : 152736,
            "byteOffset" : 846624
        },
        {
            "buffer" : 0,
            "byteLength" : 101824,
            "byteOffset" : 999360
        },
        {
            "buffer" : 0,
            "byteLength" : 147456,
            "byteOffset" : 1101184
        },
        {
            "buffer" : 0,
            "byteLength" : 12528,
            "byteOffset" : 1248640
        },
        {
            "buffer" : 0,
            "byteLength" : 12528,
            "byteOffset" : 1261168
        },
        {
            "buffer" : 0,
            "byteLength" : 8352,
            "byteOffset" : 1273696
        },
        {
            "buffer" : 0,
            "byteLength" : 10752,
            "byteOffset" : 1282048
        },
        {
            "buffer" : 0,
            "byteLength" : 8640,
            "byteOffset" : 1292800
        },
        {
            "buffer" : 0,
            "byteLength" : 8640,
            "byteOffset" : 1301440
        },
        {
            "buffer" : 0,
            "byteLength" : 5760,
            "byteOffset" : 1310080
        },
        {
            "buffer" : 0,
            "byteLength" : 6144,
            "byteOffset" : 1315840
        },
        {
            "buffer" : 0,
            "byteLength" : 40908,
            "byteOffset" : 1321984
        },
        {
            "buffer" : 0,
            "byteLength" : 40908,
            "byteOffset" : 1362892
        },
        {
            "buffer" : 0,
            "byteLength" : 27272,
            "byteOffset" : 1403800
        },
        {
            "buffer" : 0,
            "byteLength" : 36864,
            "byteOffset" : 1431072
        },
        {
            "buffer" : 0,
            "byteLength" : 14376,
            "byteOffset" : 1467936
        },
        {
            "buffer" : 0,
            "byteLength" : 14376,
            "byteOffset" : 1482312
        },
        {
            "buffer" : 0,
            "byteLength" : 9584,
            "byteOffset" : 1496688
        },
        {
            "buffer" : 0,
            "byteLength" : 12480,
            "byteOffset" : 1506272
        }
    ],
    "samplers" : [
        {
            "magFilter" : 9729,
            "minFilter" : 9987
        }
    ],
    "buffers" : [
        {
            "byteLength" : 1518752,
            "uri" : "phone.bin"
        }
    ]
}
