<?xml version="1.0" encoding="UTF-8" standalone="no"?><!DOCTYPE svg PUBLIC "-//W3C//DTD SVG 1.1//EN" "http://www.w3.org/Graphics/SVG/1.1/DTD/svg11.dtd"><svg width="100%" height="100%" viewBox="0 0 2136 2136" version="1.1" xmlns="http://www.w3.org/2000/svg" xmlns:xlink="http://www.w3.org/1999/xlink" xml:space="preserve" xmlns:serif="http://www.serif.com/" style="fill-rule:evenodd;clip-rule:evenodd;stroke-linejoin:round;stroke-miterlimit:2;"><rect id="buzonstudio_favicon_green" x="0.411" y="1.534" width="2133.33" height="2133.33" style="fill:none;"/><g><g><path d="M1368.03,377.239c0.994,0.252 2.049,0.005 2.828,-0.663c23.767,-20.382 381.185,-326.888 428.713,-367.646c0.935,-0.802 2.252,-0.986 3.371,-0.471c1.119,0.514 1.836,1.634 1.836,2.865c-0,128.548 -0.004,2021.93 -0.004,2116.91c-0,0.924 -0.405,1.801 -1.108,2.4c-0.703,0.599 -1.633,0.86 -2.545,0.714c-36.592,-5.862 -336.195,-53.858 -355.183,-56.9c-0.615,-0.099 -1.187,-0.377 -1.644,-0.801c-12.34,-11.431 -183.683,-170.164 -202.507,-187.602c-1,-0.927 -2.481,-1.106 -3.673,-0.445c-15.76,8.74 -119.583,66.314 -124.06,68.796c-0.1,0.055 -0.202,0.105 -0.307,0.149c-4.779,2.011 -116.95,49.202 -122.599,51.578c-0.147,0.062 -0.299,0.113 -0.454,0.152c-6.908,1.739 -165.705,41.706 -186.748,47.002c-1.36,0.343 -2.783,-0.254 -3.491,-1.464c-10.23,-17.471 -82.793,-141.399 -89.717,-153.225c-0.344,-0.588 -0.87,-1.048 -1.498,-1.313c-15.905,-6.697 -222.895,-93.857 -245.119,-103.215c-1.17,-0.492 -1.93,-1.638 -1.93,-2.907c-0,-39.23 -0,-616.916 -0,-647.643c-0,-0.816 -0.316,-1.6 -0.882,-2.187c-10.59,-10.999 -113.285,-117.654 -129.71,-134.712c-0.584,-0.606 -0.902,-1.422 -0.881,-2.263c0.02,-0.842 0.376,-1.641 0.989,-2.219c44.267,-41.737 707.852,-667.397 740.677,-698.347c0.785,-0.74 1.893,-1.027 2.939,-0.762c22.799,5.781 270.526,68.593 292.707,74.217Zm-205.009,156.72c-0.977,-0.473 -2.129,-0.411 -3.05,0.166c-0.92,0.577 -1.479,1.586 -1.479,2.672c0,30.964 0,194.963 0,215.019c0,1.226 -0.711,2.341 -1.822,2.859c-18.515,8.621 -172.185,80.178 -188.208,87.639c-0.854,0.398 -1.486,1.157 -1.722,2.069c-4.167,16.109 -41.968,162.239 -47.059,181.922c-0.339,1.309 0.194,2.688 1.325,3.428c13.131,8.599 90.509,59.271 102.18,66.913c0.916,0.6 2.077,0.682 3.068,0.216c25.44,-11.948 347.122,-163.034 375.009,-176.132c1.164,-0.547 1.879,-1.746 1.808,-3.03c-1.354,-24.349 -13.915,-250.179 -15.183,-272.975c-0.063,-1.144 -0.742,-2.164 -1.773,-2.663c-18.917,-9.167 -192.689,-93.37 -223.094,-108.103Z" style="fill:#fdfdfd;"/></g></g></svg>