<?xml version="1.0" encoding="UTF-8" standalone="no"?><!DOCTYPE svg PUBLIC "-//W3C//DTD SVG 1.1//EN" "http://www.w3.org/Graphics/SVG/1.1/DTD/svg11.dtd"><svg width="100%" height="100%" viewBox="0 0 2136 2136" version="1.1" xmlns="http://www.w3.org/2000/svg" xmlns:xlink="http://www.w3.org/1999/xlink" xml:space="preserve" xmlns:serif="http://www.serif.com/" style="fill-rule:evenodd;clip-rule:evenodd;stroke-linejoin:round;stroke-miterlimit:2;"><rect id="buzonstudio_favicon_black" x="0.414" y="1.534" width="2133.33" height="2133.33" style="fill:none;"/><g><g><path d="M1368.03,377.239c0.995,0.252 2.05,0.005 2.829,-0.663c23.767,-20.382 381.185,-326.888 428.713,-367.646c0.935,-0.802 2.251,-0.986 3.37,-0.471c1.119,0.514 1.837,1.634 1.837,2.865c-0.001,128.548 -0.004,2021.93 -0.004,2116.91c-0,0.924 -0.405,1.801 -1.108,2.4c-0.703,0.599 -1.633,0.86 -2.545,0.714c-36.593,-5.862 -336.196,-53.858 -355.183,-56.9c-0.615,-0.099 -1.188,-0.377 -1.645,-0.801c-12.339,-11.431 -183.683,-170.164 -202.507,-187.602c-1,-0.927 -2.481,-1.106 -3.673,-0.445c-15.76,8.74 -119.583,66.314 -124.06,68.796c-0.099,0.055 -0.201,0.105 -0.306,0.149c-4.78,2.011 -116.951,49.202 -122.6,51.578c-0.147,0.062 -0.298,0.113 -0.453,0.152c-6.909,1.739 -165.705,41.706 -186.749,47.002c-1.36,0.343 -2.782,-0.254 -3.491,-1.464c-10.229,-17.471 -82.792,-141.399 -89.716,-153.225c-0.345,-0.588 -0.87,-1.048 -1.498,-1.313c-15.905,-6.697 -222.895,-93.857 -245.12,-103.215c-1.169,-0.492 -1.929,-1.638 -1.929,-2.907c-0,-39.23 -0,-616.916 -0,-647.643c-0,-0.816 -0.317,-1.6 -0.882,-2.187c-10.591,-10.999 -113.286,-117.654 -129.711,-134.712c-0.584,-0.606 -0.901,-1.422 -0.881,-2.263c0.021,-0.842 0.377,-1.641 0.99,-2.219c44.267,-41.737 707.851,-667.397 740.677,-698.347c0.785,-0.74 1.893,-1.027 2.939,-0.762c22.799,5.781 270.526,68.593 292.706,74.217Zm-205.008,156.72c-0.978,-0.473 -2.13,-0.411 -3.05,0.166c-0.92,0.577 -1.479,1.586 -1.479,2.672c-0,30.964 -0,194.963 -0,215.019c-0,1.226 -0.711,2.341 -1.823,2.859c-18.514,8.621 -172.185,80.178 -188.207,87.639c-0.855,0.398 -1.486,1.157 -1.722,2.069c-4.167,16.109 -41.968,162.239 -47.06,181.922c-0.338,1.309 0.195,2.688 1.326,3.428c13.13,8.599 90.509,59.271 102.179,66.913c0.916,0.6 2.078,0.682 3.069,0.216c25.44,-11.948 347.121,-163.034 375.008,-176.132c1.164,-0.547 1.88,-1.746 1.809,-3.03c-1.355,-24.349 -13.915,-250.179 -15.183,-272.975c-0.064,-1.144 -0.743,-2.164 -1.774,-2.663c-18.917,-9.167 -192.688,-93.37 -223.093,-108.103Z"/></g></g></svg>