<?xml version="1.0" encoding="UTF-8" standalone="no"?><!DOCTYPE svg PUBLIC "-//W3C//DTD SVG 1.1//EN" "http://www.w3.org/Graphics/SVG/1.1/DTD/svg11.dtd"><svg width="100%" height="100%" viewBox="0 0 419 417" version="1.1" xmlns="http://www.w3.org/2000/svg" xmlns:xlink="http://www.w3.org/1999/xlink" xml:space="preserve" xmlns:serif="http://www.serif.com/" style="fill-rule:evenodd;clip-rule:evenodd;stroke-linejoin:round;stroke-miterlimit:2;"><rect id="behance" x="1.114" y="0" width="416.667" height="416.667" style="fill:none;"/><clipPath id="_clip1"><rect x="1.114" y="0" width="416.667" height="416.667"/></clipPath><g clip-path="url(#_clip1)"><g><path d="M209.447,-0c114.983,-0 208.334,93.351 208.334,208.333c-0,114.983 -93.351,208.334 -208.334,208.334c-114.982,-0 -208.333,-93.351 -208.333,-208.334c-0,-114.982 93.351,-208.333 208.333,-208.333Zm74.755,284.412c-8.601,-0 -16.389,-1.481 -23.352,-4.414c-13.784,-5.867 -23.509,-15.72 -29.176,-29.574c-2.648,-6.693 -3.987,-13.727 -3.987,-21.102c0,-7.647 1.296,-14.837 3.902,-21.587c5.553,-14.025 15.278,-24.035 29.161,-30.001c7.048,-3.005 14.908,-4.5 23.665,-4.5c8.728,0 16.546,1.495 23.438,4.5c22.654,9.882 33.333,31.838 32.336,55.688c-0.057,1.638 -0.228,3.005 -0.513,4.101l-82.913,0c0.399,4.229 1.438,7.974 3.076,11.263c1.637,3.261 3.759,6.066 6.336,8.387c2.606,2.321 5.539,4.101 8.814,5.325c3.275,1.225 6.678,1.837 10.238,1.837c5.453,0 10.608,-1.324 15.449,-3.987c4.856,-2.662 8.159,-6.165 9.925,-10.551l23.551,6.564c-3.959,8.188 -10.267,14.908 -18.924,20.163c-8.686,5.254 -19.009,7.888 -31.026,7.888Zm-63.164,-38.673c-0,6.336 -1.267,11.904 -3.802,16.688c-2.535,4.799 -6.023,8.814 -10.466,12.032c-4.428,3.261 -9.568,5.724 -15.42,7.404c-5.853,1.695 -12.075,2.549 -18.696,2.549l-72.476,-0l-0,-150.036l80.293,0c5.211,0 9.924,1.14 14.154,3.389c4.229,2.25 7.817,5.169 10.778,8.771c2.962,3.589 5.24,7.675 6.863,12.246c1.624,4.585 2.435,9.198 2.435,13.84c0,7.333 -1.837,14.196 -5.496,20.604c-3.673,6.422 -9.027,11.163 -16.061,14.253c8.6,2.549 15.378,7.091 20.39,13.641c5.012,6.55 7.504,14.751 7.504,24.619Zm-29.375,-5.496c-0,-2.677 -0.456,-5.254 -1.367,-7.718c-0.911,-2.463 -2.15,-4.599 -3.702,-6.436c-1.552,-1.836 -3.375,-3.289 -5.482,-4.343c-2.122,-1.053 -4.443,-1.58 -6.991,-1.58l-44.782,-0l-0,39.513l43.315,-0c2.662,-0 5.168,-0.498 7.49,-1.481c2.335,-0.982 4.343,-2.349 6.037,-4.115c1.68,-1.751 3.019,-3.844 4.001,-6.237c0.997,-2.392 1.481,-4.926 1.481,-7.603Zm120.39,-20.533c-0.698,-8.059 -3.659,-14.509 -8.914,-19.35c-5.254,-4.856 -11.633,-7.262 -19.151,-7.262c-3.688,-0 -7.134,0.64 -10.323,1.936c-3.218,1.296 -6.052,3.104 -8.501,5.425c-2.463,2.321 -4.471,5.112 -6.051,8.401c-1.567,3.261 -2.492,6.878 -2.748,10.85l55.688,0Zm-182.714,-60.401l-0,37.833l38.872,-0c4.927,-0 9.127,-1.695 12.573,-5.084c3.446,-3.374 5.169,-8.016 5.169,-13.94c0,-5.766 -1.58,-10.351 -4.756,-13.726c-3.161,-3.375 -7.076,-5.083 -11.719,-5.083l-40.139,-0Zm118.767,-17.813l71.792,-0l0,17.813l-71.792,-0l-0,-17.813Z" style="fill:#fff;"/></g></g></svg>